<svg xmlns="http://www.w3.org/2000/svg" xmlns:xlink="http://www.w3.org/1999/xlink"
	viewBox="0 0 596.34 380.13">
	<defs>
		<style>
			.cls-1{isolation:isolate;}.cls-2{fill:url(#Degradado_sin_nombre_3);}.cls-3,.cls-4{fill:#fff;}.cls-4{opacity:0.5;mix-blend-mode:screen;}</style>
		<linearGradient id="Degradado_sin_nombre_3" x1="298.13" y1="282.86" x2="298.13" y2="14.85"
			gradientUnits="userSpaceOnUse">
			<stop offset="0" stop-color="#f4e0eb" />
			<stop offset="1" stop-color="#d5e5fc" />
		</linearGradient>
	</defs>
	<g class="cls-1">
		<g id="Capa_2" data-name="Capa 2">
			<g id="OBJECTS">
				<rect class="cls-2" width="596.25" height="380.13" />
				<path class="cls-3"
					d="M596.25,31.18V0H0V31.18C261.3-2.29,401.92,63.91,596.25,31.18Z" />
				<path class="cls-4"
					d="M0,179s71.67-13.28,188.63,22.2c143.68,43.59,246-53,407.62-19.54V302.58H0Z" />
				<path class="cls-3"
					d="M0,277s68.33-22.24,265.81-22.24,330.44,26.63,330.44,26.63v98.78H0Z" />
				<path class="cls-3"
					d="M369.1,99.06h44.55s-1.47-4.63-10.09-3.68c-5.67-9.14-14.08-1.83-14.08-.13C383.81,83.93,369.1,91.72,369.1,99.06Z" />
				<path class="cls-3"
					d="M497.85,138.57h75.37s-2.64-7.31-14-5c-7.91-16.21-26-21.06-36.55-6.58C503.88,124.47,497.85,138.57,497.85,138.57Z" />
				<path class="cls-3"
					d="M62.36,140.3h45.4s-1.59-4.4-8.4-3.05c-4.77-9.76-15.66-12.68-22-4C66,131.8,62.36,140.3,62.36,140.3Z" />
				<path class="cls-3"
					d="M67.69,74.66C57.11,48.7,23,57.35,20.1,76.58,12.4,72.41,5.63,72.21,0,73.78V87.16H93.17S86.44,72.73,67.69,74.66Z" />
				<path class="cls-3"
					d="M587.56,65.51C578.7,43.76,550.11,51,547.7,67.12,528.37,56.65,515.89,76,515.89,76h80.45V66.11A24.25,24.25,0,0,0,587.56,65.51Z" />
			</g>
		</g>
	</g>
</svg>