<svg xmlns="http://www.w3.org/2000/svg" viewBox="0 0 533.33 666.67"><defs><style>.cls-1{fill:#db2777;}.cls-2{fill:#fff;}</style></defs><g id="Capa_2" data-name="Capa 2"><g id="Capa_1-2" data-name="Capa 1"><path class="cls-1" d="M454.8,75.24C404.48,26.72,337.67,0,266.67,0S128.85,26.72,78.54,75.24C27.89,124.08,0,189.1,0,258.33c0,48,13.44,99.3,40,152.55,20.5,41.18,48.89,83.75,84.4,126.55,59.79,72.07,119,119.89,121.44,121.89a33.33,33.33,0,0,0,41.76,0c2.49-2,61.64-49.82,121.44-121.89,35.5-42.8,63.9-85.37,84.39-126.55,26.51-53.25,40-104.58,40-152.55C533.33,189.1,505.44,124.08,454.8,75.24Z"/><path class="cls-2" d="M391.35,271.44c0,57.7-47.59,104.63-106.1,104.63a106.8,106.8,0,0,1-52.65-13.8,1.59,1.59,0,0,0-2.39,1.38v18.2a54,54,0,0,1-54,54h-5a3.19,3.19,0,0,1-3.19-3.19V173.14a3.19,3.19,0,0,1,3.19-3.19H227a3.19,3.19,0,0,1,3.2,3.19v6.09a1.59,1.59,0,0,0,2.39,1.37,106.91,106.91,0,0,1,52.65-13.8C343.76,166.8,391.35,213.74,391.35,271.44Zm-67,0c0-26.47-21.83-48-48.66-48s-45.47,21.53-45.47,48,18.63,48,45.47,48S324.34,297.9,324.34,271.44Z"/></g></g></svg>