<svg xmlns="http://www.w3.org/2000/svg" viewBox="0 0 486.35 347.14">
	<defs>
		<style>
			.cls-1{fill:#ebebeb;}.cls-2{fill:#e0e0e0;}.cls-3{fill:#82a7f7;}.cls-4{fill:#4c60a5;}.cls-5{opacity:0.3;}.cls-6{fill:#263238;}.cls-7{opacity:0.5;}.cls-8{fill:#fafafa;}.cls-9{fill:#455a64;}</style>
	</defs>
	<g id="Capa_2" data-name="Capa 2">
		<g id="Background_Complete" data-name="Background Complete">
			<rect class="cls-1" x="40.08" y="187.02" width="109.86" height="162.99"
				transform="translate(-189.82 270.19) rotate(-70.85)" />
			<path class="cls-2"
				d="M190,243.36a11.83,11.83,0,0,1-1.91.88l-5.59,2.27-20.68,8.09L93.24,280.84l-.56.22-.33-.51c-.24-.4-.51-.82-.78-1.24L52,216.24,40.21,197l-3.16-5.26a10.82,10.82,0,0,1-1-1.88,10.85,10.85,0,0,1,1.26,1.72l3.39,5.12,12.24,18.95,39.89,62.83.78,1.24-.88-.3,68.74-25.83L182.3,246l5.69-2A11,11,0,0,1,190,243.36Z" />
			<path class="cls-2"
				d="M0,293.68c-.21-.35,16.31-10.56,36.89-22.8S74.33,249,74.54,249.36s-16.3,10.56-36.89,22.8S.21,294,0,293.68Z" />
			<path class="cls-2"
				d="M126.17,265.84c.39-.14,6.93,18,14.6,40.41S154.36,347,154,347.14s-6.92-18-14.6-40.41S125.79,266,126.17,265.84Z" />
			<rect class="cls-2" x="324.21" y="178" width="154.53" height="104.16"
				transform="translate(-32.79 70.3) rotate(-9.62)" />
			<path class="cls-1"
				d="M469,165.82a12.57,12.57,0,0,1-1.19,1.61l-3.61,4.43L450.65,188l-45,53.1-.37.44-.51-.28-1.21-.67-61.63-34.38-18.59-10.56-5-2.93a11.79,11.79,0,0,1-1.71-1.1,9.72,9.72,0,0,1,1.84.85l5.15,2.71,18.82,10.16,61.82,34,1.21.67-.87.16c17.7-20.61,33.67-39.23,45.34-52.83l13.84-15.87,3.81-4.26A10.27,10.27,0,0,1,469,165.82Z" />
			<path class="cls-1"
				d="M334,294.33c-.33-.2,8.74-16.22,20.26-35.78s21.14-35.26,21.47-35.06S367,239.7,355.46,259.27,334.33,294.52,334,294.33Z" />
			<path class="cls-1"
				d="M426.15,213.63c.26-.29,14,11.77,30.57,26.92s29.89,27.68,29.63,28-14-11.76-30.58-26.92S425.89,213.91,426.15,213.63Z" />
			<rect class="cls-2" x="52.55" y="35.14" width="105.72" height="71.26"
				transform="translate(-19.54 48.25) rotate(-23.66)" />
			<path class="cls-1"
				d="M139.53,16.92a7.16,7.16,0,0,1-.52,1.27l-1.66,3.54c-1.53,3.15-3.66,7.56-6.27,13L110,77.41l-.18.35-.38-.1-.92-.24L61.93,64.83l-14.1-3.92L44,59.8a6.58,6.58,0,0,1-1.31-.46,7.43,7.43,0,0,1,1.36.27l3.87.94L62.1,64.17l46.68,12.32.92.24-.55.25,21.32-42.59c2.73-5.35,5-9.7,6.55-12.83.76-1.43,1.36-2.59,1.82-3.46A8.11,8.11,0,0,1,139.53,16.92Z" />
			<path class="cls-1"
				d="M71.29,124.61c-.25-.07,3.11-12.21,7.51-27.1S87,70.6,87.23,70.67s-3.11,12.21-7.51,27.11S71.55,124.69,71.29,124.61Z" />
			<path class="cls-1"
				d="M119.06,55.76c.13-.24,11.21,5.49,24.76,12.79S168.25,82,168.13,82.19,156.92,76.7,143.37,69.4,118.94,56,119.06,55.76Z" />
			<rect class="cls-1" x="325.91" y="-0.38" width="74.99" height="111.26"
				transform="translate(179 373.23) rotate(-68.53)" />
			<path class="cls-2"
				d="M428.9,41.68a6.52,6.52,0,0,1-1.33.55l-3.88,1.4-14.32,4.94-47.51,16-.39.13-.21-.36-.49-.86c-9.83-17.19-18.72-32.74-25.23-44.11L328,6l-2-3.67A7.84,7.84,0,0,1,325.36,1a7.57,7.57,0,0,1,.81,1.21l2.17,3.58C330.25,9,332.9,13.5,336.16,19L361.64,63l.5.87-.6-.23,47.6-15.72,14.43-4.64L427.51,42A9.11,9.11,0,0,1,428.9,41.68Z" />
			<path class="cls-2"
				d="M297.91,70.76c-.13-.24,11.42-6.75,25.79-14.53S349.84,42.35,350,42.59s-11.42,6.75-25.8,14.53S298.05,71,297.91,70.76Z" />
			<path class="cls-2"
				d="M384.74,55.25c.27-.08,4.23,12.45,8.84,28s8.14,28.18,7.88,28.26-4.23-12.44-8.85-28S384.47,55.33,384.74,55.25Z" />
		</g>
		<g id="Message">
			<polygon class="cls-3"
				points="123.81 159.02 359.68 157.3 366.26 317.67 122.02 315.4 123.81 159.02" />
			<path class="cls-4" d="M123.81,159,235.44,68.69a12.83,12.83,0,0,1,16.2,0l108,88.56" />
			<g class="cls-5">
				<path d="M123.81,159,235.44,68.69a12.83,12.83,0,0,1,16.2,0l108,88.56" />
			</g>
			<path class="cls-6"
				d="M122,315.4c-.29-.27,18.59-20.89,42.17-46s42.95-45.33,43.24-45.05-18.58,20.89-42.17,46.05S122.32,315.68,122,315.4Z" />
			<path class="cls-6"
				d="M366.26,317.67c-.3.26-18.69-19.94-41.07-45.12s-40.28-45.82-40-46.09,18.69,19.93,41.07,45.12S366.56,317.4,366.26,317.67Z" />
			<g class="cls-7">
				<polyline points="359.68 157.3 241.24 251.92 123.81 159.02" />
			</g>
			<polygon class="cls-8"
				points="135.69 167.78 135.32 94.11 341.86 91.67 344.19 169.18 241.23 250.68 135.69 167.78" />
			<path class="cls-6"
				d="M135.69,167.78s.67.5,1.94,1.48l5.6,4.37,21.31,16.67c18.4,14.41,44.79,35.1,76.82,60.22h-.26L344,169l-.1.21c-.45-14.79-.91-30.3-1.39-46.09-.32-10.63-.63-21.13-.94-31.42l.26.25L135.33,94.28l.16-.17c.08,23.18.15,41.58.19,54.2,0,6.31,0,11.17,0,14.46v3.74c0,.84,0,1.27,0,1.27l0-1.25c0-.85,0-2.09,0-3.72,0-3.29-.06-8.14-.11-14.44-.08-12.63-.2-31.05-.35-54.26V94h.16l206.54-2.53h.25v.25c.31,10.3.62,20.8.94,31.43.48,15.78.94,31.29,1.38,46.08v.13l-.1.08-103,81.47-.13.11-.13-.11-76.76-60.42-21.22-16.74-5.55-4.4C136.32,168.3,135.69,167.78,135.69,167.78Z" />
			<path class="cls-6"
				d="M309.22,128.76c0,.14-31.59.45-70.54.69s-70.55.31-70.55.17,31.58-.46,70.55-.69S309.22,128.62,309.22,128.76Z" />
			<path class="cls-6"
				d="M309.22,149.57c0,.14-31.59.45-70.54.69s-70.55.31-70.55.17,31.58-.46,70.55-.69S309.22,149.43,309.22,149.57Z" />
			<path class="cls-6"
				d="M309.22,173.55c0,.15-31.59.46-70.54.69s-70.55.31-70.55.17,31.58-.45,70.55-.69S309.22,173.41,309.22,173.55Z" />
			<path class="cls-6"
				d="M309.22,197.54c0,.14-30.14.44-67.3.67s-67.31.29-67.31.14,30.13-.44,67.31-.67S309.22,197.39,309.22,197.54Z" />
			<path class="cls-6"
				d="M282.8,218.59a4.41,4.41,0,0,1-.83.06l-2.37.06-8.72.14-28.79.42c-11.25.19-21.43.25-28.8.26l-8.72,0-2.38,0a6.47,6.47,0,0,1-.82,0,4.35,4.35,0,0,1,.82-.06l2.37-.07,8.73-.14,28.79-.41c11.24-.19,21.42-.25,28.79-.26l8.73,0,2.37,0A4.06,4.06,0,0,1,282.8,218.59Z" />
			<path class="cls-6"
				d="M256.21,238.82c0,.15-6.73.26-15,.26s-15-.11-15-.26,6.73-.26,15-.26S256.21,238.68,256.21,238.82Z" />
			<circle class="cls-6" cx="325.73" cy="197.54" r="24.95" />
			<circle class="cls-9" cx="319.24" cy="197.54" r="24.95" />
			<path class="cls-1" d="M322.41,185.92v20.74h-3.85V189.15h-4.39v-3.23Z" />
		</g>
	</g>
</svg>