<svg xmlns="http://www.w3.org/2000/svg" viewBox="0 0 480.83 185.02">
	<defs>
		<style>.cls-1{isolation:isolate;}.cls-2{fill:#4c60a5;}.cls-3{fill:#637abe;}.cls-4{fill:#82a7f7;}.cls-5{fill:#a0abe9;}.cls-6{fill:#697dd1;}.cls-7{fill:#617fc8;}.cls-8{fill:#7aa2f7;}.cls-9{fill:#d5e5fc;}.cls-10{fill:#fb6f6e;}.cls-11,.cls-14,.cls-15{fill:#e0eefb;}.cls-12{fill:#fff;}.cls-13{fill:#f3a9b8;}.cls-14{opacity:0.7;}.cls-14,.cls-15{mix-blend-mode:multiply;}.cls-15{opacity:0.5;}.cls-16,.cls-17{fill:none;stroke:#2e3154;stroke-miterlimit:10;stroke-width:0.5px;}.cls-17{stroke-dasharray:1
			1;}.cls-18{fill:#2e3154;}.cls-19{fill:#5a75c2;}.cls-20{fill:#354b87;}</style>
	</defs>
	<g class="cls-1">
		<g id="Capa_2" data-name="Capa 2">
			<g id="OBJECTS">
				<path class="cls-2" d="M210.23,76c-4.79-1.39-8.2.08-10.61,3.23l8.56,8.62Z" />
				<path class="cls-2" d="M198.91,147.32l6.54-2s3.8-8.77,7.38-20.09l-10.33,1.32Z" />
				<polygon class="cls-2"
					points="195.32 123.33 195.32 148.42 197.84 147.65 201.52 126.39 195.32 123.33" />
				<path class="cls-2"
					d="M205.73,102.05l2.24-13-8.93-9a29.27,29.27,0,0,0-3.72,10.79v3.37Z" />
				<path class="cls-2"
					d="M202.68,125.52l10.48-1.34c1.07-3.43,2.1-7.05,3-10.73l-11.67,1.6Z" />
				<polygon class="cls-2"
					points="205.53 103.15 195.32 95.49 195.32 109.13 203.69 113.82 205.53 103.15" />
				<path class="cls-2" d="M218,84.53c-1.15-3.9-3.31-6.82-6.84-8.18l-2,11.76Z" />
				<path class="cls-2" d="M206.7,102.3l12-2.53a42.44,42.44,0,0,0-.4-14.27L209,89.27Z" />
				<polygon class="cls-2"
					points="186.09 136.9 194.32 129.65 194.32 114.81 183.07 124.5 186.09 136.9" />
				<path class="cls-2"
					d="M204.67,114l11.74-1.6a108.21,108.21,0,0,0,2.16-11.59l-12,2.54Z" />
				<polygon class="cls-2"
					points="203.51 114.86 195.32 110.28 195.32 122.22 201.7 125.36 203.51 114.86" />
				<path class="cls-2" d="M179.15,112.56l-23.36-1.44a126,126,0,0,0,3.7,13.63l22.4-.91Z" />
				<path class="cls-2"
					d="M175.45,97.35l-21.95-3a111.11,111.11,0,0,0,2.08,15.72l23.32,1.44Z" />
				<path class="cls-2" d="M166.57,60.78c-6.22,1.52-10.07,7.31-11.91,15.45l16.78,4.62Z" />
				<path class="cls-2"
					d="M176.13,95.9l15.71-16.36a37.88,37.88,0,0,0-5.37-10.47L172.69,81.72Z" />
				<path class="cls-2" d="M182.13,124.83l-22.31.91a111,111,0,0,0,5.08,12.38l20.27-.78Z" />
				<path class="cls-2"
					d="M165.38,139.1a70.18,70.18,0,0,0,10.13,15.39l12.87-3.94-3-12.21Z" />
				<polygon class="cls-2"
					points="182.81 123.4 194.32 113.5 194.32 100.11 180.1 112.26 182.81 123.4" />
				<path class="cls-2"
					d="M179.84,111.17l14.48-12.38V89a68.21,68.21,0,0,0-2.12-8.42L176.41,97.05Z" />
				<polygon class="cls-2"
					points="186.35 138 189.33 150.26 194.32 148.73 194.32 130.98 186.35 138" />
				<path class="cls-2"
					d="M185.85,68.28a20.54,20.54,0,0,0-13.44-7.74,16.41,16.41,0,0,0-4.86,0l4.87,20Z" />
				<path class="cls-2" d="M171.71,82l-17.26-4.75a67.44,67.44,0,0,0-1,16.16l21.76,2.94Z" />
				<polygon class="cls-3"
					points="185.99 138.31 185.41 138.34 188.38 150.55 189.33 150.26 186.35 138 185.99 138.31" />
				<path class="cls-3" d="M172,81l.42-.39-4.87-20c-.33.06-.66.13-1,.21l4.87,20.07Z" />
				<polygon class="cls-3"
					points="186.09 136.9 183.07 124.5 182.71 124.81 182.13 124.83 185.17 137.34 185.6 137.33 186.09 136.9" />
				<polygon class="cls-3"
					points="182.81 123.4 180.1 112.26 179.72 112.59 179.15 112.56 181.89 123.84 182.32 123.82 182.81 123.4" />
				<polygon class="cls-3"
					points="176.13 95.9 172.69 81.72 172.26 82.11 171.71 81.96 175.2 96.31 175.67 96.37 176.13 95.9" />
				<polygon class="cls-3"
					points="179.84 111.17 176.41 97.05 176.04 97.43 175.45 97.35 178.9 111.54 179.37 111.57 179.84 111.17" />
				<polygon class="cls-3"
					points="205.53 103.15 203.69 113.82 204.16 114.08 204.67 114.01 206.51 103.36 205.96 103.47 205.53 103.15" />
				<polygon class="cls-3"
					points="203.51 114.86 201.7 125.36 202.16 125.59 202.68 125.52 204.49 115.05 203.97 115.12 203.51 114.86" />
				<path class="cls-3"
					d="M208.63,88.33l.52-.22,2-11.76a9.25,9.25,0,0,0-.93-.32h0l-2,11.85Z" />
				<polygon class="cls-3"
					points="201.99 126.62 201.52 126.39 197.84 147.65 198.91 147.32 202.5 126.55 201.99 126.62" />
				<polygon class="cls-3"
					points="207.97 89.08 205.73 102.05 206.2 102.4 206.7 102.3 208.95 89.27 208.38 89.5 207.97 89.08" />
				<path class="cls-3" d="M171.44,80.85l-16.78-4.62c-.08.32-.14.65-.21,1L171.71,82Z" />
				<path class="cls-3"
					d="M172.69,81.72l13.78-12.65c-.2-.27-.41-.53-.62-.79L172.42,80.61Z" />
				<polygon class="cls-3"
					points="172.69 81.72 172.42 80.61 172 81 171.44 80.85 171.71 81.96 172.26 82.11 172.69 81.72" />
				<path class="cls-3" d="M175.2,96.31l-21.76-2.94.06,1,21.95,3Z" />
				<path class="cls-3"
					d="M176.41,97.05,192.2,80.6c-.11-.35-.23-.71-.36-1.06L176.13,95.9Z" />
				<polygon class="cls-3"
					points="176.41 97.05 176.13 95.9 175.67 96.37 175.2 96.31 175.45 97.35 176.04 97.43 176.41 97.05" />
				<polygon class="cls-3"
					points="180.1 112.26 194.32 100.11 194.32 98.79 179.84 111.17 180.1 112.26" />
				<path class="cls-3" d="M178.9,111.54l-23.32-1.44.21,1,23.36,1.44Z" />
				<polygon class="cls-3"
					points="180.1 112.26 179.84 111.17 179.37 111.57 178.9 111.54 179.15 112.56 179.72 112.59 180.1 112.26" />
				<path class="cls-3"
					d="M194.6,123l.44-.89.28.14V110.28l-.74-.42.48-.87.26.14V95.49l-.8-.6.6-.8.2.15V90.87q-.18,1.06-.33,2.16c-.2-1.34-.42-2.68-.67-4v9.77l.18-.15.65.76-.83.71V113.5l.17-.15.66.75-.83.71v14.84l.17-.15.66.75-.83.73v17.75l1-.31V123.33Z" />
				<polygon class="cls-3"
					points="195.15 99.4 194.5 98.64 194.32 98.79 194.32 100.11 195.15 99.4" />
				<path class="cls-3" d="M209.15,88.11l-.2,1.16,9.34-3.77c-.08-.33-.17-.66-.26-1Z" />
				<path class="cls-3" d="M208.18,87.87l-8.56-8.62c-.2.26-.39.54-.58.83l8.93,9Z" />
				<polygon class="cls-3"
					points="208.18 87.87 207.97 89.08 208.38 89.5 208.95 89.27 209.15 88.11 208.63 88.33 208.18 87.87" />
				<path class="cls-3" d="M206.52,103.36l12-2.54.12-1-12,2.53Z" />
				<polygon class="cls-3"
					points="205.73 102.05 195.32 94.24 195.32 95.49 205.53 103.15 205.73 102.05" />
				<polygon class="cls-3"
					points="205.73 102.05 205.53 103.15 205.96 103.47 206.51 103.36 206.7 102.3 206.2 102.4 205.73 102.05" />
				<polygon class="cls-3"
					points="195.12 94.09 194.52 94.89 195.32 95.49 195.32 94.24 195.12 94.09" />
				<polygon class="cls-3"
					points="203.69 113.82 195.32 109.13 195.32 110.28 203.51 114.86 203.69 113.82" />
				<path class="cls-3" d="M204.49,115.05l11.67-1.6c.09-.35.17-.69.25-1L204.67,114Z" />
				<polygon class="cls-3"
					points="203.69 113.82 203.51 114.86 203.97 115.12 204.49 115.05 204.67 114.01 204.16 114.08 203.69 113.82" />
				<polygon class="cls-3"
					points="195.06 108.99 194.58 109.86 195.32 110.28 195.32 109.13 195.06 108.99" />
				<path class="cls-3" d="M202.5,126.55l10.33-1.32c.12-.35.22-.7.33-1l-10.48,1.34Z" />
				<polygon class="cls-3"
					points="195.32 122.22 195.32 123.33 201.52 126.39 201.7 125.36 195.32 122.22" />
				<polygon class="cls-3"
					points="201.7 125.36 201.52 126.39 201.99 126.62 202.5 126.55 202.68 125.52 202.16 125.59 201.7 125.36" />
				<polygon class="cls-3"
					points="195.04 122.08 194.6 122.97 195.32 123.33 195.32 122.22 195.04 122.08" />
				<path class="cls-3" d="M181.89,123.84l-22.4.91.33,1,22.31-.91Z" />
				<polygon class="cls-3"
					points="183.07 124.5 194.32 114.81 194.32 113.5 182.81 123.4 183.07 124.5" />
				<polygon class="cls-3"
					points="183.07 124.5 182.81 123.4 182.32 123.82 181.89 123.84 182.13 124.83 182.71 124.81 183.07 124.5" />
				<polygon class="cls-3"
					points="195.15 114.1 194.49 113.34 194.32 113.5 194.32 114.81 195.15 114.1" />
				<polygon class="cls-3"
					points="186.35 138 194.32 130.98 194.32 129.65 186.09 136.9 186.35 138" />
				<path class="cls-3" d="M185.17,137.34l-20.27.78.48,1,20-.76Z" />
				<polygon class="cls-3"
					points="185.6 137.33 185.17 137.34 185.41 138.34 185.99 138.31 186.35 138 186.09 136.9 185.6 137.33" />
				<polygon class="cls-3"
					points="195.15 130.25 194.49 129.5 194.32 129.65 194.32 130.98 195.15 130.25" />
				<path class="cls-4"
					d="M262.42,173.78s-7-47.57-49.68-54.89S175.26,51.34,117,53.73s-46.25,58.44-69.43,71-33.95,49-33.95,49Z" />
				<path class="cls-4"
					d="M255.14,173.78s0-38.57,45.72-52.16,34.84-84.35,92-73.46,29.39,83.28,51.71,99.06S462,173.78,462,173.78Z" />
				<path class="cls-5"
					d="M31.16,174l1.73,0L1.56,61.72C-8.22,65.65,31.16,174,31.16,174Z" />
				<path class="cls-5"
					d="M42.52,174.19,72.38,88.8c-7.74-.37-17.75,33-22.41,50.33-1.57,6.25-2.6,10.13-2.6,10.13s1-4.09,2.6-10.13C56.24,114.11,71,51,62.19,45L38.88,174.13Z" />
				<path class="cls-5"
					d="M35.18,174.07,32.52,21.51C21.73,28.81,31.16,154,31.16,154S12.82,64.05,2.58,61.65L33.93,174Z" />
				<path class="cls-5"
					d="M50,139.13c-1.63,6-2.6,10.13-2.6,10.13S48.4,145.38,50,139.13Z" />
				<path class="cls-5"
					d="M37.87,174.11,61.25,44.6C49,42.47,37.84,154,37.84,154s8.1-132.8-4.29-132.8h0l2.66,152.9Z" />
				<path class="cls-5" d="M46.89,174.27S84.06,94.8,73.58,89.14l-.22-.1L43.57,174.21Z" />
				<path class="cls-6" d="M33.93,174,2.58,61.65a1.65,1.65,0,0,0-1,0l-.06,0L32.89,174Z" />
				<path class="cls-6" d="M36.18,174.08,33.52,21.18a1.81,1.81,0,0,0-1,.33l2.66,152.56Z" />
				<path class="cls-6"
					d="M38.88,174.13,62.19,45a2.25,2.25,0,0,0-.53-.28,1.63,1.63,0,0,0-.41-.1L37.87,174.11Z" />
				<path class="cls-6" d="M43.57,174.21,73.36,89a2.87,2.87,0,0,0-1-.24L42.52,174.19Z" />
				<path class="cls-5"
					d="M437.69,174.11,461.07,44.6C448.84,42.47,437.66,154,437.66,154s8.1-132.8-4.29-132.8h0L436,174.08Z" />
				<path class="cls-5"
					d="M442.34,174.19,472.2,88.8c-7.74-.37-17.75,33-22.41,50.33-1.57,6.25-2.6,10.13-2.6,10.13s1-4.09,2.6-10.13C456.06,114.11,470.87,51,462,45L438.7,174.13Z" />
				<path class="cls-5"
					d="M449.79,139.13c-1.63,6-2.6,10.13-2.6,10.13S448.22,145.38,449.79,139.13Z" />
				<path class="cls-5" d="M446.71,174.27S483.88,94.8,473.4,89.14l-.22-.1-29.79,85.17Z" />
				<path class="cls-5" d="M431,174l1.73,0L401.38,61.72C391.6,65.65,431,174,431,174Z" />
				<path class="cls-5"
					d="M435,174.07,432.34,21.51C421.55,28.81,431,154,431,154S412.64,64.05,402.4,61.65L433.75,174Z" />
				<path class="cls-6"
					d="M433.75,174,402.4,61.65a1.65,1.65,0,0,0-1,0l-.06,0L432.71,174Z" />
				<path class="cls-6" d="M436,174.08l-2.66-152.9a1.81,1.81,0,0,0-1,.33L435,174.07Z" />
				<path class="cls-6"
					d="M438.7,174.13,462,45a2.25,2.25,0,0,0-.53-.28,1.63,1.63,0,0,0-.41-.1L437.69,174.11Z" />
				<path class="cls-6" d="M443.39,174.21,473.18,89a2.87,2.87,0,0,0-1-.24l-29.86,85.39Z" />
				<path class="cls-7"
					d="M68.07,71.39,92.22,173.17l1.93,0,5.93-29.86C100.38,131.22,98.38,96.3,68.07,71.39Z" />
				<path class="cls-7"
					d="M67.66,173.38l10.69-.09L34,123.31C45.13,162.78,67.66,173.38,67.66,173.38Z" />
				<path class="cls-7"
					d="M34.28,122.08l45.4,51.19,2.82,0-14-28.74C63.2,136.42,52,123.37,34.28,122.08Z" />
				<path class="cls-7"
					d="M68.68,142.68,83.6,173.24l7.6-.07-24-101C56.13,99.92,63.71,128.92,68.68,142.68Z" />
				<path class="cls-7" d="M111.88,173s34.11-13.19,34.71-65.18L101.5,173.09Z" />
				<path class="cls-7"
					d="M100.93,144.12l-5.76,29,5.11,0,45.95-66.5C113.76,120.18,103.81,137,100.93,144.12Z" />
				<path class="cls-8" d="M33.67,122c.12.44.24.86.36,1.29l44.32,50,1.33,0-45.4-51.19Z" />
				<path class="cls-8" d="M67.66,71.05c-.15.37-.3.73-.44,1.1l24,101h1L68.07,71.39Z" />
				<path class="cls-8"
					d="M146.23,106.6l-45.95,66.5h1.22l45.09-65.27c0-.46,0-.92,0-1.39Z" />
				<path class="cls-3" d="M71.71,150.17c.21.46.33.7.33.7S71.93,150.62,71.71,150.17Z" />
				<path class="cls-3"
					d="M71.71,150.17c.22.45.33.7.33.7s-.12-.24-.33-.7a54.57,54.57,0,0,0-3.25-5.66l14,28.74h1.1L68.68,142.68C70,146.39,71.17,149,71.71,150.17Z" />
				<path class="cls-3"
					d="M99.82,147.58s.19-1.56.26-4.29l-5.93,29.86h1l5.76-29A19.65,19.65,0,0,0,99.82,147.58Z" />
				<path class="cls-2"
					d="M393.06,151.31l5.32,23.43H401l15.46-105.1C389.37,97,390.69,134.29,393.06,151.31Z" />
				<path class="cls-2"
					d="M356.53,103.22l39.58,71.52h1.24l-5.87-25.84C386.84,135.49,376.58,113.85,356.53,103.22Z" />
				<path class="cls-2"
					d="M389,174.74H395L355.7,103.79C356.1,158.72,389,174.74,389,174.74Z" />
				<path class="cls-2" d="M420,174.74s27-12.58,39.33-54.45L415.6,174.74Z" />
				<path class="cls-2"
					d="M420.64,152.82l-8.19,21.92h1.87L459.13,119C437.83,125.62,426.11,142.32,420.64,152.82Z" />
				<path class="cls-2"
					d="M417.31,70.81,402,174.74h9.36l8.2-22C424.1,136.6,431,101.59,417.31,70.81Z" />
				<path class="cls-3" d="M355.69,102.78c0,.34,0,.67,0,1l39.27,71h1.14l-39.58-71.52Z" />
				<path class="cls-3"
					d="M416.68,69.42l-.21.22L401,174.74h1L417.31,70.81C417.1,70.35,416.9,69.88,416.68,69.42Z" />
				<path class="cls-3"
					d="M459.13,119l-44.81,55.77h1.28l43.75-54.45c.15-.52.31-1,.46-1.55Z" />
				<path class="cls-3"
					d="M394.2,158c.39,1.57.56,2.47.56,2.47s-.23-.87-.56-2.47c-.51-2-1.38-5.21-2.72-9.07l5.87,25.84h1l-5.32-23.43C393.45,154.14,393.87,156.4,394.2,158Z" />
				<path class="cls-3" d="M394.2,158c.33,1.6.56,2.47.56,2.47S394.59,159.54,394.2,158Z" />
				<path class="cls-3"
					d="M417.32,160.11c-.4,1.14-.64,1.76-.64,1.76s.21-.65.64-1.76c.53-1.54,1.35-4.05,2.26-7.33l-8.2,22h1.07l8.19-21.92A71.66,71.66,0,0,0,417.32,160.11Z" />
				<path class="cls-3"
					d="M417.32,160.11c-.43,1.11-.64,1.76-.64,1.76S416.92,161.25,417.32,160.11Z" />
				<path class="cls-9"
					d="M240.6,145.37C71.54,145.37.37,173.28.37,173.28S71.54,185,240.6,185s240.23-11.74,240.23-11.74S409.67,145.37,240.6,145.37Z" />
				<polygon class="cls-10"
					points="330.99 77.78 325.16 169.12 331.05 169.12 346.39 92.63 355.4 169.12 360.93 169.12 361.24 77.78 330.99 77.78" />
				<polygon class="cls-11"
					points="296.91 50.72 296.83 51.37 292.94 83.53 368.03 83.53 360.82 51.78 348.91 12.82 321.28 17.8 320.71 17.9 320.14 17.78 283.62 10.1 296.71 50.09 296.91 50.72" />
				<path class="cls-12"
					d="M371.75,86.5,363.69,51,351,9.43l-30.22,5.45L279.2,6.13,293.88,51,289.59,86.5ZM320.14,17.78l.57.12.57-.1,27.63-5,11.91,39L368,83.53H292.94l3.89-32.16.08-.65-.2-.63-13.09-40Z" />
				<path class="cls-13"
					d="M346.34,23.19h0A4.68,4.68,0,0,1,351,27.87v7.8a0,0,0,0,1,0,0h-9.36a0,0,0,0,1,0,0v-7.8A4.68,4.68,0,0,1,346.34,23.19Z"
					transform="translate(692.67 58.86) rotate(-180)" />
				<polygon class="cls-14"
					points="362.47 47.02 326.59 49.16 293.88 51.02 289.59 86.5 371.75 86.5 362.47 47.02" />
				<path class="cls-12"
					d="M318.38,23.42c-.87,0-1.82.8-2.72,1.91h5.45C320.21,24.22,319.26,23.42,318.38,23.42Z" />
				<path class="cls-5"
					d="M324.82,31.71a33.53,33.53,0,0,0-3.71-6.38h-5.45A33.53,33.53,0,0,0,312,31.71Z" />
				<path class="cls-12"
					d="M311.61,26.16a2.83,2.83,0,0,0-1.83,1.28h3.65A2.83,2.83,0,0,0,311.61,26.16Z" />
				<path class="cls-5"
					d="M315.91,31.71a22.47,22.47,0,0,0-2.48-4.27h-3.65a22.47,22.47,0,0,0-2.48,4.27Z" />
				<path class="cls-12"
					d="M325.16,26.16c-.59,0-1.22.54-1.83,1.28H327A2.87,2.87,0,0,0,325.16,26.16Z" />
				<path class="cls-5"
					d="M329.47,31.71A22.47,22.47,0,0,0,327,27.44h-3.66a22.47,22.47,0,0,0-2.48,4.27Z" />
				<path class="cls-10"
					d="M326.41,36.14a13.81,13.81,0,0,0-5.94,6.12c-15.5-9.64-28.27-7.72-28.81-7.63l.57,1.78c.13,0,12.54-2.21,27.59,7.19a23.4,23.4,0,0,0-1.09,3c-3.76,12.86-22.84,14.54-23,14.55l-.22,1.5c.68,0,13.81-1.2,20.92-9,2.54,2,12.93,11.34,6.48,29.87h1.59c6.63-19-4.22-28.81-7.12-31A16.39,16.39,0,0,0,320.15,47c1.39-4.75,3.66-7.88,6.94-9.56,4.64-2.39,11.37-1.91,21.16,1.51l.49-1.4C338.54,34,331.44,33.55,326.41,36.14Z" />
				<path class="cls-4"
					d="M294.4,71.46s6.11-6.12,12.65-1.88,8.16,1.28,11.07,4.19c3.91,3.9.26,9.76.26,9.76H292.94Z" />
				<polygon class="cls-15"
					points="320.75 14.88 326.99 51.5 330.99 86.5 289.59 86.5 293.88 51.02 279.2 6.13 320.75 14.88" />
				<path class="cls-13"
					d="M349.56,41.4l9.35,19.2a4.77,4.77,0,0,0,3.23,2.55h0a4.72,4.72,0,0,0,5.77-5c-1.09-9.74-9.59-22.89-9.59-22.89Z" />
				<path class="cls-16" d="M330.31,76.87a4.06,4.06,0,0,0-.07-.49" />
				<path class="cls-17"
					d="M330,75.41c-.81-2.86-3.76-9-14.1-9.89-8.77-.76-13.08-7.31-6.13-17.53,6.69-9.84,9.1-7.93,9.28-16.13" />
				<path class="cls-16" d="M319.06,31.35c0-.16,0-.33,0-.5" />
				<path class="cls-10"
					d="M316.79,32.28A2.16,2.16,0,1,0,319,30.12,2.16,2.16,0,0,0,316.79,32.28Z" />
				<path class="cls-13"
					d="M342.65,5S335.7,6.3,335.7,17.52s6.13,10.89,10.49,8.08,6.4-9.73,3.41-16.17S342.65,5,342.65,5Z" />
				<path class="cls-5"
					d="M345.67,29.43s-10.54-.69-12.42,11.1C331.72,50.15,335,54,334.7,62.13c-.13,3.88-3.71,11-3.71,15.66h30.25s-.85-4.86-3.31-15.66c-.64-2.81.82-6.16,1.95-9.9C365.23,34.46,354,29.43,345.67,29.43Z" />
				<path class="cls-10"
					d="M342.32,16s-7.2.66-8-7.83,10.29-11.08,17.14-4.24c1.89-6.45,11.59-4.72,9.8,4.08,4,5.82-.27,7.39-2.52,7.39,0,9.12-5.87,12.42-10.9,10.85S342.32,16,342.32,16Z" />
				<path class="cls-13"
					d="M333.66,37.92,323.18,55.59l-23-3.35-.62,3.4s13.26,8.4,26,7c7.24-.78,13.86-13.66,16.79-20.22a4.9,4.9,0,0,0-1.68-6h0A4.92,4.92,0,0,0,333.66,37.92Z" />
				<path class="cls-13"
					d="M342.32,16a2.18,2.18,0,0,1,2.47,2.33c0,2.6-3.19,2.86-3.19,2.86Z" />
				<path class="cls-18"
					d="M331.59,73.77s-5.69,11.41-5.69,30.06c7.92,3.79,18.89,2.8,18.89,2.8l1.55-9.9.85,10s9.9,2.36,18.48-2.59c.54-19-5.21-30.39-5.21-30.39S349.65,77.54,331.59,73.77Z" />
				<path class="cls-18"
					d="M324.1,170.17V157.46h11.32l-2.26,15.82H316.38S318.07,170.17,324.1,170.17Z" />
				<path class="cls-18"
					d="M364,170.17V157.46H352.72l2.22,15.82h16.81S370.07,170.17,364,170.17Z" />
				<path class="cls-19"
					d="M347.81,33.43s-9,15.84-9,33.34,36.4,17.25,36.4,0-6.92-33.34-6.92-33.34Z" />
				<path class="cls-2"
					d="M344.65,40.37h23.82a6.21,6.21,0,0,0,6.19-6.19h0A6.21,6.21,0,0,0,368.47,28H344.94a5.29,5.29,0,0,0-5.28,5.28v2.11A5,5,0,0,0,344.65,40.37Z" />
				<path class="cls-2" d="M339.72,56.62s-8,16.82,3.73,16.82,6.47-16.82,6.47-16.82Z" />
				<path class="cls-2"
					d="M357.07,56.62s-7.22,16.82,5.65,16.82S378,72.86,378,65.2s-3.3-8.58-3.3-8.58Z" />
				<path class="cls-20"
					d="M339.32,34.18c0,3.35,2.05,6.07,4.59,6.07s4.58-2.72,4.58-6.07-2.05-6.07-4.58-6.07S339.32,30.83,339.32,34.18Z" />
				<path class="cls-19" d="M351.1,28s5.61,6.71,0,12.38H354s5.93-6.24-.15-12.38" />
				<path class="cls-19" d="M364.69,28s5.62,6.71,0,12.38h2.86s5.93-6.24-.15-12.38" />
				<path class="cls-13"
					d="M301.24,52.72s-3.32-4.19-4.1-3.92.78,2.35.78,2.35-4.6-.69-5.25-.69-.18,1.25.92,1.52c-1,1,.23,3.37,3.6,3.64s4.33-.27,4.33-.27Z" />
				<path class="cls-16"
					d="M351.56,4.86s-2.48,4,2.26,6.19c-1.17,2.5,1.54,5.21,4.47,4.19" />
			</g>
		</g>
	</g>
</svg>