<svg xmlns="http://www.w3.org/2000/svg" viewBox="0 0 740 814"><defs><style>.cls-1{fill:#fbfcfd;}.cls-2{fill:#fdf7e7;}.cls-3{fill:#c5e8c5;}.cls-4{fill:#e8ebee;}.cls-5{fill:#a1e5fc;}</style></defs><g id="Capa_2" data-name="Capa 2"><g id="Capa_1-2" data-name="Capa 1"><path class="cls-1" d="M.14,163.06v-6l19.2-2.22c13.78-1.59,27.54-3.36,41.35-4.66,3.44-.32,4.82-1.15,4.46-4.63C64,134.7,63.07,123.83,61.91,113c-1.52-14.29-3.22-28.56-4.77-42.84-1.13-10.35-2-20.73-3.22-31.07-1.51-13-3.44-25.89-3.79-39h5c1,10,1.93,20,3.08,30C59.34,39.9,61,49.65,61.91,59.48c.83,9.2,2.41,18.31,3.1,27.5.68,8.88.32,8.9,9.27,7.11a8.1,8.1,0,0,1,1-.06l.39,4.48C74,100.86,71.42,100,69.2,100c-2.43,0-3.14,1-2.86,3.4,1.67,14.11,3.28,28.23,4.72,42.37.25,2.5.84,2.64,3.29,2.5,9.11-.55,18.08-2.08,27.1-3.18,13.13-1.62,26.31-2.74,39.45-4.24s26.22-3.49,39.38-4.65c4.1-.36,4.91-1.6,4.88-5.31-.16-19.15-.08-38.31-.08-57.47,0-16,0-32,0-48,0-4.1-1.4-7.44-5.45-8.24a78,78,0,0,0-13.85-1.1c-8.82-.16-17.65,0-26.48-.06-2.27,0-5.17.49-5.09-3.06s3-2.8,5.24-2.92c13.15-.71,26.23,1.21,39.35.89,4.25-.1,6.83,1.66,9.13,4.81A14.7,14.7,0,0,1,191.13,26c-.26,3.48.27,7-.13,10.48-.57,4.86,1.55,5.79,5.93,5.71,13.16-.25,26.32-.11,39.48-.07a19.89,19.89,0,0,1,4.42.48c.91.21,2,.72,1.8,2a2.54,2.54,0,0,1-1.74,2.26,21.73,21.73,0,0,1-4,.24c-13.83,0-27.65,0-41.48,0-2.61,0-4.44.15-4.42,3.62q.15,40.47,0,81c0,3,1.11,3.44,4,3,9.81-1.42,19.68-2.46,29.53-3.61q16-1.86,32-3.68c13-1.46,25.94-3.08,38.94-4.23,6.52-.58,7.49-1.1,7.49-7.61Q303,57.82,303,.1h5q0,32.21,0,64.4c0,10.82.11,21.64-.05,32.46-.05,3.78,1.38,4.85,4.8,3.69,1.41-.48,2.79-1.07,4.2-1.55,10.81-3.65,21.56-7.56,32.5-10.76,3-.88,3.66-1.94,3.56-4.61-.33-8.28-.67-16.6-.74-24.84C352.15,39.28,351,19.7,351,.1h5c.26,15.61,1.55,31.19,1,46.82,0,.33,0,.67,0,1-.18,2.38,1,3.15,3.29,3.19,8.95.17,17.86,1.51,26.84,1a26.93,26.93,0,0,1,4.49.12c16.13,1.9,32.41,1.41,48.57,2.86,2.76.24,3.79-.83,3.86-3.68.11-4.46.68-8.9,1.11-13.35q1.88-19,3.81-38h11c0,4.16.46,8.4-.19,12.46-3,19-3.85,38.13-5.82,57.19-1.2,11.5-2.46,23-3.87,34.45-.64,5.14-.21,6.18,4.94,5.81,15.5-1.12,31-2.63,46.46-3.81,15.17-1.16,30.37-2.08,45.55-3.16,1.67-.12,4.13,1,4.71-1.51,1.32-5.66,5.05-10,7.75-14.85C568.38,70.6,577,54.41,585.85,38.3c7-12.76,14.06-25.47,21.1-38.2h12a12,12,0,0,1-.75,3.34c-6.88,12.65-13.61,25.38-20.84,37.82-7,12-7.19,11.84,1,22.92,4.08,5.47,4.8,5.69,8.69.1q21-30.18,42.85-59.7a8.47,8.47,0,0,0,2-4.48h6a15.51,15.51,0,0,1-1.44,3.66c-14.89,20.71-29.77,41.43-44.84,62-5.81,7.94-6,7.79-.19,15.48a34.18,34.18,0,0,0,2.38,3.18c3.41,3.52,4.54,7.12,2.53,12.1-7.23,17.83-14,35.86-21.15,53.73-1.07,2.67-.55,3.59,1.79,4.91,9.4,5.29,18.53,11.06,28,16.12,2.93,1.55,5.72,3.85,9.54,3.81,11.62-.14,23.11,1.86,34.73,2.14,5.66.14,11.53.81,16.85,3.66,3.16,1.71,6.52,4.52,10,3.83,3.79-.75,4.26-5.5,6.23-8.48,1-1.52,2.19-2.91,3.13-4.47,9.49-15.72,18.78-31.57,28.56-47.11,1.64-2.6,2.11-6.47,5.82-7.61v9c-1.13.06-1.55.79-2.11,1.73C727.25,145.37,716.71,163,706,180.41c-4.79,7.8-5,7.72,3.17,11.72,10.23,5,20.51,10,30.77,14.91v5a7.68,7.68,0,0,1-4.28-1.12Q708.8,197.74,682,184.54a16.57,16.57,0,0,0-6.2-1.55c-10-.82-20.08-2-30.13-2.76-3.94-.31-8.56-1.57-11.71.56-3,2-.25,6.18.06,9.35,1,10.61,1.47,21,8.4,30.46,9.46,12.94,17.15,27.16,25.72,40.75,7.43,11.77,15.09,23.4,22.55,35.15,10.23,16.1,20.45,32.21,30.48,48.42,1.75,2.83,3.17,3,5.93,1.59,4.25-2.22,8-5.49,12.84-6.5v7c-4,.1-7,2.78-10.48,4.33a2.47,2.47,0,0,0-1.35,3.38c3.51,6,6.19,12.68,11.83,17.28v9c-1.79,0-2.48-1.25-3.31-2.58-3.85-6.2-8-12.2-11.63-18.52-2.43-4.25-5.07-4.51-8.81-2a63.45,63.45,0,0,1-9.37,5.61c-19.78,8.6-38.12,20.06-57.76,28.89-3.71,1.66-4.41,3.24-2.48,7.05C655,416.15,665,432,673.1,449c1.68,3.53,3.21,7.55,6.68,10.07,1.86,7.68,6.39,14.12,10,21,1.64,3.09,2.4,7,6.06,8.87-.14,2.57.89,4.67,2.18,6.88,3.77,6.48,8.28,12.63,9.89,20.18a24,24,0,0,0-9.84,4.58C695.87,514,693.76,507.41,688,503c-.05-1.16.28-2.52-.2-3.45C682.7,489.9,678.11,480,671.94,471a44.82,44.82,0,0,0-1.84-4.59c-5.85-10.82-11.78-21.59-17.64-32.4-4.12-7.6-15.55-10.44-22.93-5.85-5.2,3.23-10.1,6.92-15.66,9.61a13.09,13.09,0,0,0-6.83,7c-2.25,5.72-4.85,11.31-6.82,17.12-1.65,4.85-3,9.87-2.23,15.14,2,13.4,3.89,26.83,6,40.21,1.3,8,1.72,16.09,4,23.9-.54,5.77.86,11.32,1.9,16.91.3.77.95,1.59.86,2.3-.59,4.38,1.68,4.31,5,3.67,8.27-1.61,16.68-2.61,24.88-4.51,17.57-4.07,35.13-8.07,53-10.73,1.79-.27,4.07-.16,5.38-2.08l2.18,3.89c-.72,1.77-2.31,2-3.91,2.58-6.4,2.41-13.21,3-19.78,4.59-3,.72-4,1.3-3,4.46,1.49,4.73,2.39,9.64,3.84,14.37,3.27,10.61,7.56,21.21-2.28,30.86-1.41,1.38-.69,2.19,1.14,2.59a118.21,118.21,0,0,1,12.91,3.22c2.54.86,4,.19,5.66-1.55,5-5.46,10-11,15.32-16.21,3.37-3.26,5.73-6.78,6.34-11.42,1.38-10.54-25-25.28-32.12-35.61,1.91-4,21.09-34,23-38,2.89,3.87,18,39,20.89,42.73,3.56,4.7,3.73,9.6,2.71,14.92-.34,1.79-.74,3.57-1,5.37-2.53,20.52-2.52,20.52-17.11,35.11a17.17,17.17,0,0,1-1.42,1.41c-3.57,2.74-4.52,5.94-2,9.94,5.48,8.68,6.07,18.3,5.63,28.22-.14,3.18-1,6.21-1.09,9.36-.39,15.77.37,31.53-.84,47.32-1.2,15.54-.34,31.18-.86,46.8-.69,20.73-2,41.5-1.31,62.27h-5c0-11.15-.39-22.33.2-33.45.93-17.4,1.24-34.81,1.79-52.21.06-1.87-.33-3.21-2.64-3.32-4.63-.24-9.24-.85-13.87-.95-19.93-.42-39.87-.7-59.81-1.07-1.31,0-2.6-.45-3.92-.55-12.51-.89-25.44-3.17-33.76,10.09a30.19,30.19,0,0,1-3.69,4.67q-24,25-48,50Q532,798.8,520.85,810.51c-.93,1-1.92,1.88-1.87,3.37H504c0-2.28,1.91-3.29,3.2-4.69,2.64-2.87,5.75-5.3,7.79-8.74.95-1.61,1.74-3-.89-3.58A36.17,36.17,0,0,0,504,785,128,128,0,0,0,490,768.28c-1.75-1.69-2.75-2.15-4.78-.22-3.21,3.08-6.9,5.65-10.34,8.5-1.76,1.44-3.63,2.14-5.2.14s.69-2.8,1.83-3.79a85.37,85.37,0,0,1,7.6-6.39c6.29-4.31,6.11-4.09,0-10-2.13-2.08-4.45-.57-6.56-.23-15.31,2.45-30.58,5.14-45.88,7.62-5.45.88-6.59,2.16-5.28,7.52,1.57,6.42,3.57,12.75,4.94,19.21,1.65,7.74,4.19,15.31,4.7,23.28h-6c-.75-4.4-1.37-8.82-2.28-13.19-.52-2.51-2.08-4-5-3.84-4.49.17-9-.07-13.49.09-2.45.09-3.87-.49-4.84-3-3.66-9.62-7.76-19.07-11.36-28.71-1.29-3.45-3.22-4.56-6.72-4.34a40.9,40.9,0,0,0-18.69,6.09c-14.34,8.68-29.47,15.9-44.1,24-3.7,2.06-8.81,2.77-10.68,6.8-2.33,5-4.51,10.36-4.82,16.11h-5c2-10.18,2.94-21,14.51-25.65,4.32-1.74,3.87-4.25,1.95-7.43-1.37-2.27-2.67-4.6-3.93-6.93a2.37,2.37,0,0,1,.8-3.48c1.43-.87,2.59-.25,3.37,1,1.46,2.42,3.18,4.75,4.15,7.37,1.5,4.09,3.93,4.35,7.25,2.52,5.51-3.06,10.89-6.36,16.52-9.14,3.25-1.61,3.87-3.44,2.73-6.73-2.43-7.06-4.62-14.21-6.78-21.36-3.29-10.9-3.37-11.31-14-8C306.05,741.74,287.67,748,269.21,754c-2.74.88-3.93,2.37-2.49,5.21,2.18,4.3,2.72,9.2,5.06,13.49,1.54,2.83,1.44,5.8,0,9.06-1.74,4-4.84,7.19-6.3,11.27-1.11,3.15-3.51,4.63-6.41,5.76-10.36,4-20.69,8.14-31,12.24-1.37.54-2.94.94-3,2.87h-14c-.33-2.24,4-1.81,2.55-5.06-4.41-9.66-8.51-19.47-12.67-29.25-.89-2.09-2-2.5-4.22-1.77-14.47,4.76-29,9.32-43.48,14-16.37,5.34-32.77,10.58-49,16.31-4.45,1.57-9.82,1.42-13.13,5.73h-24c.1-2.37,2.24-2.21,3.63-2.7,5.43-1.92,10.93-3.64,16.41-5.44,9-3,8.9-2.94,6-12.2-2.58-8.31-31.46-30.75-33.92-39.11,1-2.13,20-23.86,21-26C84,740.29,96.35,785.75,99.8,797.68c.92,3.19,2,3.47,4.83,2.49,12.22-4.19,24.47-8.32,36.83-12.07,3.31-1,3.85-2.1,2.83-5.22-3.51-10.71-6.78-21.51-10.14-32.28-.64-2.05-1.47-4-.72-6.3,1.75-5.35,3.33-10.75,5.11-16.09.63-1.91,1.69-3.6,3.89-4.22,4.6-1.32,9.14-3,13.81-4,2.51-.54,2.65-1.25,2.28-3.61-1.52-9.84-4.62-19.32-6.35-29.09-1.18-6.66-1.62-6.83-8.29-5.94-8.69,1.14-17.41,4.9-26.25.29a79.87,79.87,0,0,0-9.68-3.9,7.08,7.08,0,0,1-4.87-5.75c-.81-4.06-2-8-2.73-12.1-.45-2.65-1.7-3.31-4.09-2.87-20.45,3.82-40.89,7.75-61.38,11.4-11.54,2-23.16,3.65-34.74,5.46v-6a45,45,0,0,0,6.41-.55c9.08-1.66,18.19-3.21,27.35-4.35,3.2-.4,3.24-2,3.23-4.31,0-10.47.11-20.94-.07-31.41a16.59,16.59,0,0,1,3-9.79,54.59,54.59,0,0,0,4.81-8.11q3.33-7.74,11.46-7.39c3.73.16,4.2-1.86,3.78-4.67-.61-4.08-1.3-8.15-2.1-12.2C56,575,50.47,571.5,40.42,573.91c-2.73.65-5.46,1.34-8.22,1.84-10.7,2-21.11,5.51-32.06,6.19v-5a19.55,19.55,0,0,0,3-.19c12.77-2.78,25.53-5.61,38.29-8.41,9.85-2.17,18.79,3.41,21.05,13.34a89.62,89.62,0,0,1,2.21,13.68c.27,4.11,2.25,5,5.77,4.58,8.53-1,17-2.26,25.62-2.9,3.82-.28,4.45-1.54,3.67-4.95-2.11-9.19-4.59-18.36-5.77-27.68-1.35-10.62-7.57-16.79-16.29-21.48a5.7,5.7,0,0,0-4.24-.65c-18.29,3.83-36.6,7.59-54.9,11.4-3.09.64-4.62-.05-5.67-3.56-3.33-11.16-4.29-22.77-7-34-.9-3.7-2.37-4.63-5.67-3.14v-6c3,.59,5.35-1.6,8.13-2,16.58-2.3,32.5-7.76,49.05-10.21,4-.6,5.41-3.34,5.77-6.94,1.11-11.2,3-22.32,3-33.61,0-3.18,1.38-4.65,4.61-5.32,7.29-1.52,14.68-2.17,22-3.65,19.11-3.85,38.36-7.11,57.65-9.92,5-.73,5.17-3.06,4.64-6.51-1-6.7-2.32-13.35-3.48-20-2.15-12.38-4.33-24.76-6.42-37.15-3.16-18.74-6.15-37.52-9.43-56.24-1.37-7.77-1.67-7.89-9.17-6-27.91,7.11-56.09,13.06-84.25,19.09-14.07,3-28.07,6.33-42.11,9.51v-6c10.68-1.3,21-4.51,31.45-6.72,17.32-3.65,34.67-7.24,51.87-11.43,15.29-3.72,30.74-6.6,46.06-10.14,2.64-.61,3.61-1.54,2.85-4.8-3.34-14.33-6.48-28.71-9.08-43.19-.81-4.46-2.3-5.06-6.22-4.25-10.68,2.21-21.42,4.07-32.13,6.16-1.71.34-3.1.24-3.57-1.57s.82-2.66,2.42-3.1c.8-.22,1.56-.63,2.37-.77,9.93-1.75,19.85-3.54,29.8-5.16,3.3-.53,4.69-2,3.91-5.39-1.67-7.25-3.22-14.52-4.78-21.78q-7-32.51-13.93-65c-.39-1.83-.2-3.65-3.07-3.33-14.29,1.63-28.59,3.11-42.88,4.69-11.17,1.23-22.33,2.49-33.48,3.85C14.52,161,7.34,162.06.14,163.06ZM520.05,574A50,50,0,0,0,518,559c-1.66-8.26-3.71-16.48-4.81-24.82-.54-4.08-1.71-4.51-5.32-3.73-12.6,2.69-25.26,5.1-37.92,7.53-2.71.52-4.09,1.68-4,4.64.17,4.32-.1,8.66.09,13,.13,3.17-1.53,4.6-4.23,5.22q-15.72,3.59-31.46,7.08c-16.32,3.63-32.61,7.36-49,10.72-4.43.91-4.86,2.9-3.77,6.66,1.94,6.68,4.09,13.36,5.16,20.2.73,4.7,3.07,4.92,6.51,4.23,7.14-1.44,14.21-3.19,21.37-4.42,8.33-1.43,16.48-3.61,24.75-5.23,14.24-2.8,28.55-5.29,42.61-8.95a93.14,93.14,0,0,0,25.89-5.2c5.37.63,10.31-1.37,15.38-2.56,2.11-.5,3.38-1.68,2.35-3.82C520.76,577.71,521.69,575.48,520.05,574ZM419.24,228.15c-1.45.29-2.89.65-4.35.85-12.77,1.76-10.2.05-8.09,12,.54,3.08,1.92,3.08,4.49,2.49,3.17-.72,6.35-1.84,9.71-1.48l1.14,2.78A2.45,2.45,0,0,1,419.9,247c-6,1.24-11.89,2.72-17.87,3.93-10.36,2.1-20.75,4.07-31.12,6.09-2.32.45-3.65.93-3.16,4.17a34.17,34.17,0,0,0,7.63,16.84c1.18,1.44,2.08,1.44,3.74,1.16q29-5,58.1-9.73c5.4-.87,10.66-1.29,15.72,2.31,4,2.87,8.85,4.64,13.89,7.18-2.05-11.84-4.09-22.85-5.79-33.92-.71-4.57-3-5.87-7.16-4.82-2.07.53-4.11,1.67-6-.36l1.33-4.82c2.46-.21,5,.27,7.39-.74,1.59-.65,2.56-1.14,2-3.18-3.74-12.87-4.44-26.32-7.46-39.37s-4.86-26.27-7.08-39.45c-.54-3.24-1.87-5-5.28-4-11.3,3.25-22.87,5.26-34.35,7.69-1.8.38-3.88.49-4.27,2.72-1.84,10.73-4.5,21.37-2.33,32.44q2.94,15.08,5.14,30.28c.6,4.13,2,4.74,5.94,3.66s8-3.4,12.24-.85C420.49,225.55,419.86,226.85,419.24,228.15Zm183.6,315a44.9,44.9,0,0,1-.83-6.86c.1-4.21-2.38-4.71-5.55-4.21q-31.34,4.89-62.65,9.87c-6.88,1.1-6.88,1.17-5.88,7.8.32,2.12.74,4.22,1.12,6.33a41.68,41.68,0,0,0,2.85,15c.46,9.49.61,9.71,9.78,7.89,19.25-3.81,38.48-7.75,57.71-11.69,7.29-1.5,7.54-1.94,5.74-8.29Q604,551.07,602.84,543.14ZM517.93,792c1.42,4.72,3.35,2.05,5.09.29,15.14-15.34,29-31.95,44.79-46.64,2.92-2.71,3.08-4.9,1.05-8-5.59-8.62-11.46-17.11-16.34-26.13-3-5.55-6.72-7.61-12.62-6.55-5.68.26-11.43-.79-17,.9-15.64-.6-31.22,1.18-46.85,1.09-1.23,0-3-.67-3.51,1-.4,1.2,1,2,1.79,2.77,3.51,3.56,6.95,7.19,10.62,10.58,2.29,2.11,3.23,4,2.2,7.35-2.07,6.63-3.48,13.47-5.3,20.19-.41,1.54-.68,2.73.6,4.06,5.18,5.39,10.28,10.86,15.36,16.35,1.9,2.06,3.54,1.94,5.45,0,2.55-2.62,5-5.38,8.16-7.3,1.32-.79,2.57-3,4.07-1.13,1.36,1.7.66,4-1.24,5.22a44.5,44.5,0,0,0-7.08,6.27c-4.3,4.3-4.26,4.6.89,8.64C510.25,785.56,514.3,788.6,517.93,792Zm18-95.08a16.68,16.68,0,0,1,2,0c3.77.42,5.29-.35,4.19-4.85-2.13-8.64-3.55-17.46-5.12-26.23q-6.6-36.76-13-73.58c-.51-2.91-2.13-3.87-4.46-3.2-6.79,2-14,2.18-20.61,4.81A87.29,87.29,0,0,0,477.07,598a4.69,4.69,0,0,0-1,0l-40.29,8c-2.73.54-2.79,2-2.18,4.4,1.73,6.72,3.13,13.53,4.8,20.26,2,7.9,2,7.91,9.81,7.28,1.63-.14,3.24-.74,4.87-.78,2.9-.09,6.12-1.31,8.59,1.06,8.54,8.19,19,14.67,19.22,29,.14,8.76,3.74,17.42,4.79,26.24.58,4.82,2.42,5.67,6.58,5.54,8-.24,15.91.17,23.8-1.13C522.7,697.52,529.41,699,536,696.94ZM436.1,407.88c-.36-3.28-.77-6.56-1.09-9.85-.76-8.07-1.39-16.16-2.25-24.22-1.17-11-2.35-22-3.8-33-1.25-9.5-2.83-19-4.34-28.42-.44-2.79-2-3.64-5-3.22-9.64,1.4-19.32,2.5-29,3.7-1.64.2-3-.22-3.48-2s.54-2.95,2.12-3.37a30.79,30.79,0,0,1,4.43-.47l27.1-3c1.42-.15,2.15-.77,1.89-2.26-1.21-7-2.5-14-3.58-21-.41-2.65-1.58-2.33-3.77-2.11-12.7,1.25-25.11,4.12-37.65,6.28-1.91.33-4.32.23-5-1.37-2.2-5-6.79-8.6-8.36-13.94-3.09-10.47-3.07-10.49-13.64-8.5-1.14.21-2.23.67-3.37.89-12.5,2.38-25,4.57-37.47,7.28-1.77.38-7.06-1.16-5.12,4.11,2.14,5.81,2.62,11.94,4.2,17.86,3,11.35,5.4,22.86,8.19,34.27.46,1.84.33,5.06,3.55,4.28,2.81-.67,5.61-.52,8.38-1q13.7-2.2,27.36-4.51c2.08-.35,3.29.4,3.52,2.41.88,7.4,3.89,14.39,4.08,21.93.13,5,1.73,6.21,6.63,4.94A90.76,90.76,0,0,1,384.82,351c1.48-.14,3.39-.21,3.71,1.63s-1.34,2.88-3.06,3.26c-4.52,1-9,2.28-13.59,2.84s-5.44,3.05-4.74,6.89c1,5.37,1.95,10.74,3,16.09,2.9,14.61,2.83,14.82,16.31,19.82,7.12,2.64,12.95,5.62,12.85,14.57,0,3.09,2,4.38,5.52,3.5,8.5-2.1,17.06-4.14,25.71-5.49C434.75,413.49,436.71,412.21,436.1,407.88ZM580.6,401c-7.83,1.52-17.84.6-27.71,2-2.07.29-2.84,1-2.95,3.06-.6,11.74-1.73,23.48-1.79,35.22a20.56,20.56,0,0,1-5.34,14.4c-1.2,1.36-2.25,2.86-3.4,4.27-2.64,3.24-5.44,6-10,6.5s-9.07,1.73-13.63,2.43c-2.45.38-3.11,1.5-2.43,3.74,2.2,7.15,2.92,14.58,4.3,21.88,2.56,13.48,5.06,27,7.27,40.5.54,3.3,2.14,3.14,4.47,2.76q11.48-1.92,23-3.75c14.68-2.31,29.34-4.77,44.06-6.77,3.74-.51,4-2.47,3.5-5-2.46-12.15-4-24.45-5.52-36.73-.9-7.06-4-14.16-.45-21.37,1.3-2.68,2.17-5.6,3.63-8.19,6-10.65,6.46-21.24.87-32.32-2.37-4.69-3.48-10-5.16-15.06C590.29,399.66,591.9,401.14,580.6,401ZM360.37,189.4c-2.29.12-5.37,1.28-5.77-2s2.91-3.06,5.39-3.45c10-1.55,19.88-3.34,29.82-5,1.73-.28,2-1.25,2.26-2.69.84-5,1.78-10.09,2.75-15.12,1.75-9.08,2.57-9.83,12.05-11.12a20.65,20.65,0,0,1,2.49-.06c1.87,0,2.75-.67,2.26-2.77-1.7-7.25-2-14.72-3.11-22.07-.76-5-2.83-5.48-6.72-5.16-17,1.37-34,2.74-51,4-2.65.2-2.56,1.73-2.85,3.67-1.78,11.92-3.75,23.82-5.58,35.73-2.16,14-4.41,28.08-6.23,42.16-.38,2.88-1.78,3.65-3.9,4.21-3.68,1-7.4,1.82-11.1,2.7-1.85.44-2.68,1.15-2.1,3.38,2.94,11.38,5.53,22.85,8.54,34.2,2.31,8.74,2.5,8.68,11.78,7.07,1.63-.28,3.29-.41,4.91-.73,17.84-3.45,35.67-7,53.53-10.36,3.64-.69,4.68-2.26,3.81-5.85-1.4-5.78-2.65-11.62-3.53-17.5-.92-6.19-1.15-6.37-7.27-5.16-8.42,1.68-16.9,3.07-25.38,4.44-1.55.25-3.77.41-4-1.86-.16-1.9,1.56-2.73,3.32-3,9.27-1.68,18.5-3.59,27.82-4.92,3.48-.49,3.71-2,3.06-4.62-1.52-6.27-2.23-12.7-3.35-19-.82-4.61-2.48-4.86-6.19-4.08C377.59,186.24,369,187.77,360.37,189.4ZM266.63,520.16c9.9-1.62,19-3.26,28.17-4.55,5.3-.74,4.54-4.27,4-7.7C298,502.19,297,496.5,296,490.8q-3.09-18.09-6.26-36.17c-.45-2.55-1.62-4.2-4.77-3.51-20,4.41-40.09,8.71-60.12,13.08-2,.44-3.45,1-2.92,3.94,2.88,15.76,4.83,31.73,8.4,47.33a56,56,0,0,1-1.93,33c-1,2.6-2.21,4-5.06,4.69-10.3,2.47-20.83,3.82-31.07,6.61-3.12.84-3.11,1.65-2.44,4.27,2.23,8.64,4.29,17.34,6.11,26.08.53,2.53,1.26,2.58,3.61,2.26,14.57-2,29.21-3.48,43.78-5.5,7.54-1.05,15.54-.55,21.94-6.29,2-1.79,3.13-3.29,2.7-5.81-2.8-16.29-5.65-32.57-8.45-48.86-1.2-7-2.4-14-3.43-21-.22-1.47-.63-3.69,2-3.73,2.16,0,2.57,1.84,2.87,3.48a107.23,107.23,0,0,1,1.89,11.73C263.09,519.58,263.55,521.65,266.63,520.16ZM535,589.58c1.19,6.84,2.34,13.69,3.57,20.52,2.12,11.71,4.43,23.38,6.34,35.13.57,3.53,1.51,4.56,5.06,3.28,8.4-3,16.9-5.8,25.38-8.61,15.4-5.11,30.82-10.13,46.21-15.25,12.41-4.12,24.66-8.77,37.21-12.39,15-4.35,20.32-12.43,16.69-27.3-.19-.8-.4-1.61-.55-2.42-1.07-6-3.59-10.56-10.6-11a14,14,0,0,1-5.09-1.94,35.79,35.79,0,0,0-26.71-3.14c-13.75,3.51-27.85,5.72-41.78,8.55-17.51,3.55-35,7.22-52.5,10.71C535.78,586.16,534.55,587,535,589.58Zm-428-3.65c.37,0,.87-.11,1.36-.2,14.48-2.6,29-5.23,43.45-7.75a4.17,4.17,0,0,0,3.5-2.34c2.17-4.46,4-8.71,2.36-14.09-2.2-7.1-3.36-14.51-5.1-21.76-.68-2.82-.14-4.33,3-4.95,4.06-.8,8-2.06,12-3.17,8.23-2.28,8.22-2.29,6.23-10.36a53.15,53.15,0,0,1-1.42-6.28c-.37-3.08-1.83-3.24-4.48-2.54-13,3.46-26,6.56-39,10.11-8.77,2.41-17.21,4.14-25.08-2.5a6.43,6.43,0,0,1-2.56-3.4c-1.71-7.08-3.72-14.11-4.9-21.28-.56-3.37-1.83-3.07-4.17-2.48-6.75,1.69-13.45,3.68-20.29,4.81C52.11,501,32.73,506.15,13.08,510c-2.3.44-3.39,1.73-2.75,3.81,3.07,10,3.31,20.58,6.31,30.62,1.08,3.62,2.83,3.92,5.73,3.34,14.92-3,30-5.38,44.7-9.2,7.27-1.89,12.85-1.11,18.36,3.54,2.28,1.92,4.85,3.49,7.28,5.23A8.45,8.45,0,0,1,96.35,553c1.78,9.42,3.83,18.79,5.81,28.17C102.69,583.66,103.45,586.06,106.93,585.93ZM415.1,451.76c-3.24.86-6.45,1.65-9.63,2.55-9.24,2.59-9.06,2.56-6.84,12.1,2.69,11.58,7,22.79,7.66,34.83.46,8.12.92,16.16,8.8,21.53,2.81,1.91,5.12,2.79,8.17,1.54,4.61-1.9,9.61-2.84,14.08-4.83,5.45-2.42,10.33-.67,15.53-.13,7,.72,8,6.52,10.39,11.2a2.08,2.08,0,0,1,.22.45c.57,2.32,1.54,2.94,4.24,2.33,11.76-2.63,23.61-4.86,35.43-7.22,2.59-.51,6-.11,7.6-1.64,2.1-2-.35-5.17-.81-7.8-3.84-22.28-8-44.51-11.68-66.82-.71-4.28-2.68-4.17-5.76-3.57C482.78,448.21,473,450,463.34,452c-10.82,2.28-22,2.57-32.66,5.61-1.88.54-3.17-.49-4.63-1.23C422.53,454.6,419.08,452.64,415.1,451.76ZM587.82,59.16a30.68,30.68,0,0,0-2.53,3.39c-2.62,4.8-5.23,9.61-7.68,14.49-7.8,15.52-17.77,29.94-23.78,46.37-2.43,6.64-6.76,12.6-6.89,20.07-.26,16.11-.65,32.21-1,48.32a69.92,69.92,0,0,1-.68,8.4c-.53,3.68-1.24,7.64.64,11.23,4,7.65,8.33,15.14,12.06,22.93,1.85,3.84,4,3.81,7,2,1.14-.67,2.15-1.61,3.33-2.18,7.86-3.81,14.09-11.43,24.13-10.21,2.38.29,2.49-1.42,2.27-3.34-.66-5.91-1.2-11.83-1.75-17.75-.78-8.4-1-16.88-2.4-25.18-2.15-13.15-2.23-25.7,3.5-38.29,6.51-14.3,11.77-29.16,17.56-43.78,1-2.39,1.47-4.7-.56-6.92-7.25-7.94-12.83-17.17-19.61-25.48C590.41,62,589.26,60.77,587.82,59.16ZM548,323.86c-1.21.25-2,.38-2.82.59-16.61,4.43-33.17,9.1-49.87,13.16-5.15,1.26-5.75,3.32-4.74,8,1.12,5.16,2.79,10.3,3.26,15.49,1.1,12.07,4.5,23.69,6.12,35.63.23,1.77.29,3.46,2.75,3.12,12.79-1.77,25.73-2,38.58-2.55,16.71-.76,33.39-2.62,50.15-2.3a57.13,57.13,0,0,0,8.87-.93c2.76-.38,3-1.55,1.87-3.65-1.5-2.77-3.13-5.47-4.55-8.28Q588,363.1,578.44,344a7.2,7.2,0,0,0-2.49-3c-7.62-5-15.13-10.14-22.78-15.09C551.55,324.85,549.52,324.45,548,323.86ZM236.06,663.3c-.46,2.59.61,5.45,1.09,8.39.59,3.55,2.16,4.42,5.79,3.33,11.09-3.32,22.34-6.09,33.44-9.4,4.31-1.28,6.74-.84,8.16,4,1.55,5.24,2.45,10.66,4.6,15.75,1.18,2.77,2.11,3.81,5.39,2.69,6.1-2.07,12.44-3.43,18.66-5.14,23.64-6.49,47.25-13.07,70.91-19.44,4.63-1.25,5.61-3.48,4.34-8-3.13-11.15-5.12-22.6-8.1-33.81-.89-3.33-2.14-3.81-4.95-3.77-8.16.1-16.05,2.16-24.1,3-14.62,1.6-29.2,3.6-43.85,4.76-5.51.44-5.92,3-5.24,7.11,1.09,6.57,1.16,6.73-5.52,8.14-17.79,3.75-35.57,7.56-53.45,10.87-5.35,1-7.24,3.61-7.17,8.53C236.07,661.17,236.06,662,236.06,663.3Zm453-45.24c-7-1.65-13.42-5.22-19.49-3.55-15.94,4.38-31.51,10.07-47.23,15.27q-18.39,6.08-36.77,12.19c-12,4-23.92,8-35.89,11.89-1.86.61-2.78,1.5-2.38,3.62,1.76,9.41,3.36,18.85,5.18,28.25.68,3.54-.07,8,2.41,10.38,2.76,2.63,6.94-.14,10.52-.18h.5c15.28.32,30.51-1.77,45.8-1,2.49.13,4.27-.79,6.25-2.33,6.34-5,10.62-11.78,16.22-17.38,13.4-13.4,27.1-26.52,39.6-40.77C678.44,629.09,683.6,624.19,689,618.06ZM121,647c8.45-1.55,16.9-3.07,25.35-4.64,14.78-2.76,29.53-5.67,44.34-8.28,8.85-1.56,9.07-1.4,7.41-8.71q-9.62-42.08-19.46-84.1c-1.64-7-1.85-7-8.7-5.25-3.05.76-6.05,1.75-9.09,2.55-2.08.55-3.4,1.58-2.46,3.88,2.14,5.26,1.78,11.09,4,16.36,3.16,7.42,0,14.39-3.06,20.79-2,4.2-7.66,3.25-11.67,4.12-12.76,2.76-25.64,4.9-38.48,7.26-2.51.45-4.61,1.09-3.86,4.42q5.43,23.94,10.75,47.92C116.73,646.05,118.14,647.38,121,647ZM358,73.71V78.2c0,11.86.19,12.44-10.87,16.08-10.05,3.3-19.72,7.74-30.14,10-8.63,1.89-9,2.82-9,11.59,0,.66.05,1.33,0,2-.17,2.39,1,3.22,3.28,3.2,4.15,0,8.29-.77,12.37-.85,15.26-.27,30.29-3.12,45.56-3.41,5.06-.1,10.24-.47,15.36-.88,15.65-1.27,31.23-3.49,46.95-3.86,6.65-.15,6.54-.52,7.57-7.34,1.07-7.08.31-14.21,1.68-21.27C442,77.34,442.37,71,443,64.77c.21-2.27.56-4.89-3.21-4.7-6.32.31-12.51-1.49-18.86-1a60.19,60.19,0,0,1-11.47-.13c-15.81-1.92-31.78-1-47.59-2.81-2.71-.31-4,.72-3.86,3.63C358.14,64.38,358,69,358,73.71ZM164,395c4.86-1.41,9.69,2.62,15.19,3.58,4.42.77,6.11,3.52,6.94,7.8,3.5,18,7.2,36,10,54.09.43,2.76,1.77,3.89,4.89,3.12,8.51-2.08,17.09-3.9,25.68-5.65,3.71-.76,4.89-2.56,4.11-6.29-1.25-6-3.75-11.67-4.35-17.81-.65-6.64-4.4-12.68-2.64-19.89,1.52-6.29,3.62-12.39,5.25-18.63,1.47-5.59,3.76-11.09,2.79-17-1.52-9.29-3.36-18.53-4.73-27.84-.43-2.9-1.17-3.72-4.07-3-5.45,1.38-11,2.39-16.47,3.66-10,2.33-20.38,3.31-28.8,10.8-6.85,6.09-13.7,13.49-24.68,11.24-1.69-.35-2.15,1.23-1.89,2.74q1.44,8.29,2.91,16.59c.31,1.8,1.51,2.48,3.19,2.5S161,395,164,395ZM594.05,164c1.43,4.58,1.14,10.11,1.78,15.52,1.59,13.45,2.07,27,3.91,40.47.53,3.81,2.09,4.4,5.08,4,3.27-.4,5.43,1.15,7,3.78,5.9,10,13.12,19.13,19.65,28.7,20.72,30.39,42.19,60.27,63.4,90.33,2.56,3.64,4,9.17,7.88,10.49,4.09,1.37,8-3,11.92-5.08a18.16,18.16,0,0,1,1.89-.61c2-.76,2.44-1.57,1-3.63-3.82-5.41-7.34-11-10.88-16.62Q683.75,295.22,660.93,259q-13.09-20.74-26.23-41.48a26,26,0,0,1-3.85-11.11c-1-8.52-2.55-17-3.71-25.48a5.59,5.59,0,0,0-3.3-4.52c-8.83-4.94-17.59-10-26.35-15.09C595.14,160,593.68,160,594.05,164ZM319.92,361.44c-2.84-5.64-3.14-12-4.61-18.06-3.56-14.64-7.51-29.19-10.25-44-.38-2.06-1.19-2.31-3.06-1.87-18.53,4.34-37.08,8.6-55.62,12.91-2.35.54-3.58,1.47-3,4.51,1.5,7.61,2.48,15.32,3.59,23,.41,2.77-.15,4.86-3.63,5.25-2.77.3-5.47,1.3-8.23,1.78-2.25.39-3.28,1.54-2.93,3.76,1.39,9,2.88,17.94,4.21,26.93.57,3.85,2.06,5,6,3.48,7.29-2.79,15.18-3.22,22.76-4.92,17.25-3.89,34.7-6.89,52.07-10.23C318.69,363.7,319.72,363.11,319.92,361.44ZM214,702.48c0-.14-.14-.63-.24-1.12-3.87-19.79-7.82-39.57-11.54-59.39-.51-2.72-1-3.62-4-3.13-10.11,1.66-20.1,3.89-30.25,5.44-18,2.75-35.78,6.42-53.67,9.65-8.9,1.61-8.65,1.53-7.33,10.73.72,5,2.08,9,7.42,10.36,4.54,1.18,8.21,4.71,13.66,3.59,7.1-1.45,14.41-1.85,21.63-2.69,3.26-.38,5,.56,5.8,4.31,2.41,11.33,5.49,22.51,8.1,33.8.64,2.76,1.38,3.8,4.5,3,14.53-3.83,29.11-7.45,43.71-11C213.71,705.51,214.18,704.53,214,702.48ZM335.46,125.06c-18.68,1.78-38,2.94-57.13,5.71-3.63.53-8-.06-5.9,5.87a180.88,180.88,0,0,1,5.6,21.61c.73,3.38,2.44,4.24,5.73,3.48,5.63-1.3,11.26-2.71,17.11-2.67,1.59,0,3,.12,3.14,2.26.09,1.92-.84,2.52-2.65,2.78-6,.88-12,2.13-18.1,2.87-2.75.33-2.94,1.05-2.64,3.74.52,4.69,2.53,8.88,3.46,13.42,1.85,9.06,4,18.06,6.19,27.06.45,1.92,1.41,3,4,2.37q14-3.48,28.05-6.4c6.51-1.34,9.34-4.08,10.2-11.63,2.57-22.45,6.71-44.73,10.3-67.06.38-2.38-.3-3.5-2.77-3.41C338.69,125.1,337.36,125.06,335.46,125.06Zm-38.33,507.5c-.59-5.91-1.29-6.54-6.75-5.17-2.5.62-5,.18-7.42.62-22.47,4.07-45.33,5.1-67.85,8.81-8.61,1.42-8.5,1.07-6.67,9.83q6,28.41,11.63,56.89,5.1,25.53,10,51.11c.54,2.88,2,3.69,4.52,2.91q7.13-2.19,14.19-4.53c15.1-5,30.12-10.25,45.36-14.79,4.38-1.3,5.46-2.82,3.9-6.77-.42-1.08-.69-2.22-1-3.34-5.37-17.76-10.78-35.5-16.06-53.29-1-3.38-2.45-4.46-6.08-3.43-11.95,3.42-24,6.4-36,9.8-2.55.72-4.55.57-5.34-1.84-3.12-9.38-4.2-18.93-1.18-28.58a3.61,3.61,0,0,1,3.26-2.74c7.21-.24,13.94-2.81,20.92-4.13,12.67-2.39,25.43-4.33,37.93-7.58C297,635.68,298.58,635.06,297.13,632.56Zm122,69.35c5.8,0,11.58-.45,17.37-.82,13.25-.85,26.55-1,39.83-1.08,4.79,0,5.16-2,4.33-5.82-1.07-5-1.87-10.07-2.66-15.13-2-13-4-25.95-16.31-34a1.09,1.09,0,0,1-.35-.36c-1.8-3.32-4.72-3-7.79-2.5-5.86,1-11.74,1.9-17.63,2.69-12.11,1.62-24.26,3-36.34,4.76-6.43,1-6.36,1.31-4.78,8q4.25,18.12,8.39,36.26c1.84,8,1.82,8,9.95,8ZM219.94,281.33c-.29-7.5-2.67-10.71-9.73-13.14a17.14,17.14,0,0,1-2.35-.81c-7.08-3.71-14.39-3.64-22.22-2.69s-15.44,1.72-23.19,2.34c-3.69.3-5.82-.89-6.6-4.94-1.49-7.78-3.58-15.44-5.28-23.19-2.23-10.17-4.53-20.34-6.36-30.59-.54-3.06-1.77-3.7-4.24-3.05a170.07,170.07,0,0,1-17.43,3.91c-2.4.37-3.59,1.36-2.83,4.45,3,12,5.36,24.2,8.2,36.28,3.71,15.75,6.38,31.75,9.54,47.63.52,2.6,1.58,3.82,4.85,3q20.25-4.81,40.66-9c11.66-2.38,23-6.05,34.89-7.6C219.57,283.78,220.14,282.92,219.94,281.33ZM243.31,161c-5.55.1-10.08,1.51-14.77,1.16-2.41-.18-2.81,1.54-2.14,3.37,2.78,7.55,2.08,15.73,4.35,23.39.72,2.42,1.3,5.49-.81,7.62-3.66,3.7-6.56,8.39-12.2,9.73-2.57.61-5,1.81-7.52,2.63-2.32.74-3.09,2.07-2.55,4.51,1.55,6.94,3.08,13.9,4.32,20.9.45,2.55,1.49,2.95,3.7,2.42,13-3.14,26.32-5,39.38-7.91,4-.9,9.8.08,11.85-3.61,3.44-6.19,8.84-7.58,14.65-8.74,3.13-.63,3.45-1.69,2.69-4.67-3.2-12.51-5.69-25.18-8.82-37.72-1.2-4.77-2.73-5.83-7-4.3-7,2.51-12.93,1.34-17.36-5.13C249,161.6,246.07,160.35,243.31,161ZM227.14,530.41a41.41,41.41,0,0,0-.27-5.47c-3.23-17.87-6.63-35.71-9.72-53.61-.71-4.08-2.78-4.91-6.24-4.15-10,2.2-20,4.35-30,6.69-12.58,2.95-13,3.52-8.65,16.05,3.56,10.37,4.8,21.27,7.76,31.79,2.72,9.7,4.71,19.61,7,29.44.75,3.26,2.46,4.24,5.79,3.47,9-2.07,18.08-3.82,27.08-5.86,1.61-.36,3.75-.33,4.22-2.79C225.05,540.78,227.31,535.84,227.14,530.41ZM513.05,226.92a17.1,17.1,0,0,0,0,2.48c1.59,10.46,3.73,20.85,4.73,31.36,1.91,19.81,4.9,39.38,10.11,58.6.46,1.69.49,3.34,2.7,3.5a22.74,22.74,0,0,0,22.57-14.09c4.56-10.92,6.51-22.59,10-33.81a9.23,9.23,0,0,0-.55-7.64q-13-24.37-25.92-48.83c-1-1.93-2-2.63-4.3-1.82-5.15,1.83-10.38,3.44-15.64,4.89C513.88,222.37,512.47,223.86,513.05,226.92Zm-300,15.44c-4.17.46-4.84-2.64-5.46-5.38-1.9-8.38-3.62-16.81-5.4-25.22-.69-3.24.36-5.55,3.63-6.6,3.47-1.12,7-2.08,10.41-3.33,5.27-1.93,10.67-8.25,9.67-11.93-1.37-5-1.5-10.14-2.48-15.16-2-10.21-2.94-20.6-5.21-30.79-1.4-6.31-1.45-6.82-8.12-5.4a22.68,22.68,0,0,1-2.93.49c-13.87.92-27.6,3-41.44,4.26C147,145,128.35,147.82,109.65,150c-2.62.3-3.2.68-2.74,3.51,1.28,7.86,3.73,15.48,4.93,23.3.69,4.5,2.43,4.71,5.86,3.9,6.27-1.48,12.58-2.83,18.85-4.35,3-.72,4.78,0,5.49,3.19,2.45,11.12,5,22.22,7.49,33.32,3.52,15.49,7.17,31,10.48,46.49.64,3,2.41,2.82,4.31,2.62,4.6-.46,9.16-1.22,13.76-1.74,11.37-1.29,22.55-2.43,33.58,2.91,6.11,3,12.2,4.87,12.05,13.15a8.86,8.86,0,0,0,.52,1.92c.59,2.59,1.59,3.7,4.74,2.94,10.9-2.61,21.88-4.88,32.87-7.1,2.56-.52,1.59-1.83,1.33-3.24-2.06-11.21-4.12-22.43-6.11-33.66-.34-1.9-1-3.2-3.19-2.86-3.75.57-7.52,1.07-11.23,1.83C232.76,238.13,222.91,240.27,213.06,242.36Zm322.58-87c1.1-14-3.34-22.93-4.29-32.47-.11-1.07-.36-2.45-1.65-2.91-7.57-2.7-14.2-8.16-22.76-7.93-18.53.48-36.93,2.88-55.42,4-2.81.17-2.88,2.1-2.31,3.87,2.33,7.3,2.87,14.93,4.4,22.37q4.35,21.12,8.05,42.37c2.45,14,5.21,27.92,7.19,42,.48,3.42,1.7,3.66,4.58,2.75,18.92-6,38.07-11.19,56.64-18.23,2.13-.8,3.86-1.39,3.94-4.26C534.52,188.36,535.17,169.8,535.64,155.4ZM70.84,491.91c7.54-1.76,15.4-3.72,23.31-5.43,15.32-3.3,30.67-6.44,46-9.69q9.23-2,18.38-4.14c2.14-.51,4-1.11,3.3-4.32-1.78-8.39-3.29-16.84-4.62-25.32-.49-3.18-1.27-4.13-4.78-3.4-11.63,2.39-23.35,4.32-35,6.39q-21,3.71-41.93,7.35c-2.88.5-4.27,1.58-4.5,5.09-.66,10-1.85,20.05-3.28,30C67.26,491.36,67.85,492.13,70.84,491.91ZM42.12,641.42c0,5.16.1,10.32,0,15.48-.09,3.35.81,4.2,4.4,3.51q30.9-6,61.92-11.34c3-.51,3.45-1.07,2.81-3.9-2.81-12.24-5.44-24.52-8-36.81-1.41-6.72-2.23-7.29-8.85-6.31q-15.69,2.31-31.45,4.06c-4,.44-9.23-.56-11.94,3.48-5.3,7.89-11.26,15.74-8.9,26.35C42.45,637.68,42.12,639.59,42.12,641.42ZM411.28,791.89a19.89,19.89,0,0,1,3,0c4.65.69,6-.83,4.82-5.63-5.76-23.62-11.41-47.27-16.63-71-.91-4.14-2.42-4.2-5.42-3.2C379.29,718,361.57,724,343.77,729.77c-3.67,1.19-4.1,2.89-2.9,6.27,3.26,9.23,6.29,18.53,9.23,27.86,1,3.22,1.93,4.13,5.21,2,9.34-6.19,19.37-10.55,31-10,2.26.1,3.73.62,4.58,2.88,3.2,8.54,6.63,17,9.77,25.56C403.39,791.84,403.27,791.89,411.28,791.89Zm46.09-84c-7-.17-13.07,1.18-19.25,1.12-9.27-.09-18.55.57-27.82.88-1.79.06-3.25-.07-2.58,2.72,3.51,14.45,6.84,29,10.18,43.44.75,3.24,2.4,4.16,5.76,3.55,13.15-2.41,26.32-4.69,39.53-6.71,12.69-1.94,12.71-1.77,15.85-14.26.44-1.77,1-3.5,1.63-5.22,1.73-5.14,1.36-9.53-3.55-13a40,40,0,0,1-6.73-6.66C466.69,709.42,462.47,706.61,457.37,707.9ZM241,333c.63-2.77-.58-5.28-.95-7.9-1.64-11.44-3.48-22.86-5.15-34.3-.53-3.61-1.9-4.8-5.79-3.76-7.66,2-15.48,3.45-23.22,5.17-7.42,1.66-14.83,3.33-22.22,5.09-2.13.51-3.84,1.12-3.32,4.33Q184,323.9,187,346.25c.38,2.87.84,3.55,3.82,2.89,15.16-3.39,30.35-6.65,45.6-9.65C240.42,338.69,241.75,336.79,241,333Zm232.54,10.09c-12,1-24,2-36.08,2.89-2.44.18-2.72,1.82-2.36,3.47.79,3.6.69,7.24,1.05,10.85,1.51,15.44,3.34,30.85,4.8,46.29.37,3.91,1.67,4.68,5.42,3.83q19.8-4.5,39.76-8.36c2.91-.56,3.1-1.94,2.69-4.11-3.16-16.86-6.52-33.69-9.4-50.6C478.71,343.32,477,342.39,473.52,343.12Zm-128.7,89.33c5.31-1.16,10.63-2.3,15.94-3.48,10.16-2.27,20.31-4.58,30.46-6.85,1.28-.28,2.75-.15,3.35-1.69,1.2-3.08-2.64-11-5.81-12.4-5.61-2.44-11.17-5-16.73-7.54-2-.92-3.6-2.07-4-4.6-1.89-10.72-4-21.4-5.91-32.12-.37-2.12-1.05-3-3.19-2.57-9.39,1.82-18.77,3.72-28.19,5.37-3.62.64-4.08,2.29-3.18,5.53,2,7.16,3.74,14.39,5.47,21.63,2.75,11.57,5.33,23.2,8.19,34.75C341.57,430.07,341.06,433.43,344.82,432.45Zm97.66-158.32c-4.78-.85-9,1.88-13.7,2-3.82.11-5.82,1.93-3.95,6.2.78,1.77.85,3.86,1.17,5.82,2.66,16.63,5.36,33.26,7.91,49.91.34,2.2.92,2.29,3.11,2.23q16.91-.48,33.71-2.21c6.79-.69,6.93-.65,5.77-7.19-2.2-12.36-5.19-24.59-6.55-37.09-.63-5.78-2.5-10.45-8.83-12.35-2.79-.84-5.21-2.9-7.85-4.28C449.89,275.43,446.63,273.21,442.48,274.13ZM516,288.52c-.46-4.29-.74-7.93-1.25-11.53-2.23-16-4.7-32.05-6.66-48.12-.46-3.79-1.49-3.92-4.59-2.9-9.77,3.2-19.61,6.17-29.43,9.19-2.48.77-3.38,2-2.72,4.8,1.42,6.11,2.6,12.29,3.55,18.5,1.93,12.58,5,25,6.36,37.66.54,5.2,2.26,6,7.36,4.5,7.8-2.28,15.52-4.83,23.35-7C515.14,292.7,516.56,291.08,516,288.52Zm52.28-11.33a12.06,12.06,0,0,0-1.17,1.82c-4.34,12.8-5.17,26.79-12.91,38.46-.94,1.42-1,2.57.84,3.67,3.8,2.35,7.38,5.05,11.14,7.48,8.79,5.68,17.16,10.94,21.41,21.92,5.49,14.17,13.51,27.36,20.29,41,1,2.1,2.5,2.83,4.34,2.27,4.1-1.23,8.26-.67,12.39-.87,4.42-.21,4.92-1.23,2.85-5.1q-21-39.36-42-78.75C579.9,298.64,574.23,288.19,568.31,277.19ZM432.83,452c.69-.11,1.83-.28,3-.49,6.66-1.19,13.31-2.37,20-3.58,12.33-2.25,24.63-4.63,37-6.7,3.34-.56,3.75-2.47,3.07-4.89-2.41-8.62-3.13-17.54-4.71-26.3-.5-2.8-1.27-3-3.87-2.41-16.6,3.7-33.2,7.46-49.93,10.51-5.52,1-7.17,3.24-6.33,8.3.19,1.14-.18,2.44.23,3.46,2.13,5.24-.11,8.93-3.91,12.26-1.93,1.7-5.45,3.33-4.6,5.86.93,2.76,4.9,2.86,7.68,3.81A11.87,11.87,0,0,0,432.83,452Zm-276.1-84.13c2.1-.3,4.58.86,6.63-.78q8.31-6.69,16.54-13.46a4.78,4.78,0,0,0,2-4.74c-1.06-6.84-1.85-13.72-2.9-20.56-1.3-8.47-1.77-17.05-3.72-25.44-.61-2.66-1.85-3.25-4.15-2.75-8.71,1.88-17.36,4.09-26.14,5.56-4.88.82-5.46,3.41-4.75,7.33,2.94,16.23,6,32.44,8.76,48.7C149.82,366.35,151.14,369.46,156.73,367.91Zm387.79,38.8c.42-3.33.22-3.81-3.26-3.66-12.24.54-24.48,1.31-36.72,1.95-3.23.17-2.76,2.54-2.44,4.36,2.75,15.29,5.44,30.6,8.53,45.82,1.82,9,2.13,8.93,11,7.09a39.64,39.64,0,0,1,4-.32c5.81-.59,17-11,17.29-16.5C543.58,432.55,544,419.63,544.52,406.71Zm-284.39,214c-.75-9.51-1.48-17.92-2.07-26.34-.2-3-2-3.63-4.41-3.38-5.76.59-11.48,1.61-17.25,1.91-12.08.64-23.86,3.79-36,4.1-2.08.06-2.55,1.34-2.15,3,2.29,9.66,4.6,19.33,7,29,.34,1.38.85,3,2.94,2.71,6.23-.76,12.48-1.43,18.7-2.22,9-1.15,18-2.89,27.05-3.34C259.08,625.89,261.1,624.65,260.13,620.68ZM117.48,520c.42-.09,1.71-.34,3-.66,5.93-1.45,11.87-2.9,17.8-4.4,9.45-2.39,18.88-4.85,28.33-7.22,3-.77,3.8-2.12,2.87-5.37-2.09-7.31-3.78-14.75-5.23-22.21-.45-2.35-1-2.52-3.09-2.07-9.51,2.1-19.06,4-28.58,6-9,1.94-18.1,3.92-27.11,6-2,.48-5,.52-4.13,4.18,1.34,5.8,2.5,11.63,3.91,17.41C106.11,515.27,112.73,520,117.48,520ZM268.09,777.55c-2.33-6.53-4.53-12.79-6.79-19-.67-1.85-2-1-3.32-.77-5.23,1.08-9.87,3.77-15,5.27-11.88,3.49-23.9,6.65-35.36,11.5-2.13.9-2.77,1.44-1.66,3.9,3.94,8.75,7.6,17.63,11.18,26.54,1.21,3,2.54,4.31,5.91,2.85,8.22-3.57,16.4-7.31,24.86-10.19s15.18-6.91,18.15-15.75A41.25,41.25,0,0,1,268.09,777.55Zm83-273.41c-.35.11-.68.18-1,.3-8.14,3.27-16.3,6.53-24.43,9.84-1.63.67-1.34,2-.89,3.36q1.73,5.45,3.19,11,5.32,20.14,10.54,40.32c.72,2.83,2,3.14,4.66,2.21,4.67-1.65,9.48-3,14.28-4.2,9.14-2.38,9.49-2.4,7.52-11.42-3.55-16.15-7.51-32.21-11.39-48.28C353.27,506,353.31,504,351.08,504.14ZM163.26,400c-7,0-7,0-6.2,7.1.31,2.62.6,5.25,1,7.85,3,17.39,6.05,34.76,8.89,52.17.47,2.91,1.92,3.13,4.1,2.68,5.82-1.2,11.57-2.8,17.44-3.6,3.67-.51,3.76-2.06,3.18-5q-5.43-27.18-10.59-54.4c-.27-1.42-.44-2.48-2.05-2.93C173.84,402.39,169,399.47,163.26,400ZM596.51,229.31c-4.2,0-8.91-1.45-11.29.29-5.92,4.33-12.55,7.28-18.66,11.17-3.2,2-3,3.79-1.46,6.73,11.33,21.05,22.3,42.3,33.88,63.21,3.93,7.11,7.43,14.43,11.4,21.52,10.12,18.09,19.88,36.38,29.56,54.7,1.36,2.56,2.28,3.05,4.8,1.72,16.25-8.56,32.47-17.18,48.91-25.36,4.34-2.15,4.19-3.86,1.74-7.28-13.6-19-27.3-37.93-40.48-57.22-13.93-20.39-28.32-40.47-42.15-60.92C608.31,231.28,604.3,226.85,596.51,229.31ZM335,601.12c0,4.15,0,8.3,0,12.46,0,1.67-.16,3.39,2.57,3q18.88-2.45,37.78-4.65c2.29-.27,2.95-1.34,2.37-3.3-3.49-11.72-6.13-23.65-8.68-35.6-.61-2.87-2.14-3.5-4.66-2.77-7.31,2.12-14.59,4.34-21.93,6.32-2.2.59-3.09,2.07-4.26,3.75C333.75,586.81,335.28,594.08,335,601.12ZM317.79,369c-4.19.52-8.28,1.81-12.49,2.57-11.67,2.12-23.2,5-34.84,7.33-9.55,1.91-19.16,3.5-28.76,5.15a6.74,6.74,0,0,0-6,5.6c-1.82,7.4-3.73,14.78-6,22-1.61,5-1.15,9.67.34,14.51,2.34,7.57,3.81,15.38,5.88,23,1.79,6.59,1,6.81,7.74,5.68.64-.11,1.26-.39,1.9-.56,14.22-3.84,28.8-6.09,43.11-9.5s28.45-6.08,42.69-9.08c3.24-.68,5.52-2,4.54-6.1q-6.8-28.45-13.35-57C321.84,370,320.89,368.35,317.79,369Zm75.77,83C400,451,406,448.72,412.24,447c10.1-2.78,16-12.45,13.49-22.42-.67-2.6-1.48-3.64-4.78-2.88-22.57,5.23-45.21,10.13-67.84,15.06-10.25,2.24-10.1,2.11-7.36,12.16.8,2.93,2.11,3.36,4.57,2.82,6.78-1.51,13.65-2.69,20.33-4.58a21.33,21.33,0,0,1,18.88,3.1C390.75,451.11,391.88,452.19,393.56,452Zm1.8,193c12.08-1.66,24.14-3.45,36.25-4.88,3.4-.41,3.8-1.92,3.09-4.61-2.2-8.31-4.5-16.6-6.55-25-.52-2.1-1.36-2.8-3.4-2.38-12.11,2.52-24.21,5.08-36.34,7.47-2.69.53-3.53,1.2-2.67,4.22,2,7.13,3.67,14.4,5.15,21.67C391.46,644.29,392.83,645.13,395.36,645ZM711,644.18c1.11-7.4-1.17-14.06-3.93-20.76-1.54-3.73-2.47-5-5.78-1.42-7.64,8.32-15.61,16.34-23.4,24.52-7.21,7.58-14.78,14.8-21.82,22.59-13.23,14.65-27.15,28.68-40.74,43-1.28,1.35-3.93,2.46-2.87,4.71s3.61,1,5.48,1c12.81.12,25.67-.49,38.44.3,16.4,1,32.83.58,49.21,1.75,2.22.16,3.4-.62,3.39-3.08,0-5.14.64-10.27.8-15.36C710.32,682.36,709.26,663.23,711,644.18ZM244.58,305.3a19.59,19.59,0,0,0,2.55-.33c15.71-3.69,31.47-7.21,47.1-11.21,9-2.3,8.91-2.66,6.68-11.56-.79-3.19-.7-7.3-2.7-9.32-2.73-2.76-6.49.6-9.75,1.26-15.2,3.08-30.32,6.56-45.48,9.88-2,.45-4.23,1-3.83,3.61.82,5.54,1.95,11,2.94,16.55C242.32,305.42,243,305.9,244.58,305.3ZM399.36,701.41c.58-2.8-1.76-5.33-2.35-8.37-1.44-7.3-3-14.56-4.38-21.88-.69-3.76-2.18-4.77-6.1-3.63-18.28,5.32-36.64,10.34-55,15.44-11.65,3.24-23.28,6.52-35,9.6-3.57.94-4.88,2.2-3.54,6.2,3.47,10.36,6.82,20.79,9.43,31.38,1.23,5,3.17,4.43,6.87,3.18q20.48-7,41.12-13.43c10.12-3.18,19.94-7.24,30.23-9.94,5.6-1.46,11-3.68,16.45-5.64C398.2,703.93,400.07,704.06,399.36,701.41ZM296.44,263.1c-3.14-13.34-6.31-26.69-9.38-40.05-.48-2.09-1.91-2.26-3.37-1.9-4.77,1.16-10,1.58-12.38,7a5.59,5.59,0,0,1-5,3.55c-5.14,0-4.63,3.43-4.11,6.45,1.81,10.4,4,20.74,5.79,31.15.45,2.6,1.79,3,3.77,2.56,7.41-1.71,14.79-3.54,22.19-5.31C295.75,266.14,297,265.38,296.44,263.1ZM461,545.42c0-2.33.07-4.66,0-7-.35-9.23-8.72-16.6-17.8-15.36a33.22,33.22,0,0,0-9,2.86c-10.3,4.68-20.11,7.2-27.5-4.74a1,1,0,0,0-.36-.34c-2.62-1.49-3.15-3.84-3.41-6.71a186.15,186.15,0,0,0-2.71-21.62c-2.14-10.21-5-20.25-7.63-30.35-1.71-6.62-9.78-12.28-16.59-11.07-8.3,1.47-16.51,3.51-24.76,5.31-2.58.56-3.16,1.65-2.47,4.54,4,17.07,7.45,34.29,11.6,51.33,4.82,19.76,10,39.43,13.81,59.42.48,2.49,1.84,3.74,4.67,2.86,3.15-1,6.38-1.79,9.6-2.51,20.83-4.66,41.68-9.22,62.49-13.95C461,555.8,461,555.66,461,545.42ZM272.32,160.31q-3.17-13.25-6.31-26.49c-.35-1.48-1.33-1.79-2.6-1.63q-19.14,2.43-38.26,4.87c-2.36.3-3,1.31-2.4,3.72.85,3.35,1.11,6.84,1.82,10.23,1.33,6.29,2.27,6.88,8.79,6a21.64,21.64,0,0,1,2.39-.63c6.15-.13,13.06-3.34,17.63,3.6,4,6.09,9.31,5.9,15.48,4.29C271.36,163.59,272.35,162.81,272.32,160.31ZM645.84,421.79c-4-7.5-7.61-14.54-11.38-21.53-1.07-2-3-2.5-5.15-2.17-9.36,1.41-18.82,1.31-28.24,1.79-3.82.2-5.48.46-3.81,4.89,3,8.05,5.62,16.28,8.28,24.47,2.11,6.53,2,6.55,8,2.95,1.85-1.11,3.76-2.12,5.56-3.3C627.05,423.74,634.77,418,645.84,421.79ZM306.3,263.9c2.83-.5,6.58-1.12,10.32-1.81,8.14-1.49,8.11-1.5,6.32-8.84q-4.41-18.1-8.74-36.22c-.33-1.4-.07-3.06-2.61-2.34-5.58,1.57-11.22,2.93-16.87,4.2-1.82.41-2.45.78-2,2.9,3.06,13.23,5.62,26.57,9.15,39.69C302.48,263.61,303.49,264.18,306.3,263.9ZM262.91,594c.79,10.3,1.53,19.2,2.13,28.12.18,2.61,1.38,2.85,3.63,2.52,6.86-1,13.75-1.88,20.64-2.67,12.32-1.41,24.65-2.71,37-4.09,2.47-.28,3.86-1.51,3.78-4.28-.14-4.66.09-9.33-.06-14-.26-8.05-.22-16,4.57-23,.93-1.37.11-2.84-.28-4.3-4.78-17.76-9.56-35.52-14.14-53.33-.59-2.3-.95-3-3.49-2.43-6.46,1.38-13,2.36-19.52,3.45q-14.92,2.52-29.84,4.95c-2.14.35-3,1-2.62,3.61,2.29,15.71,6,31.17,7.91,47,.49,4,0,6.6-3.37,8.31C264.37,586.28,261.72,589.7,262.91,594ZM523.32,321.34q-2.6-10.6-5.19-21.21c-.71-2.91-3.1-2.42-4.84-1.92-8.92,2.55-17.78,5.34-26.65,8.07-2,.63-2.9,1.87-2.43,4.16,1.29,6.14,2.79,12.28,3.46,18.5.5,4.61,2.8,4.49,6.08,3.66,8.83-2.23,17.66-4.49,26.52-6.61C523,325.35,523,323.5,523.32,321.34ZM351.84,329.9c-10.25,1.71-20.48,3.46-30.73,5.12-2.7.43-1.43,2.06-1.13,3.33,1.66,7.08,3.52,14.11,5,21.23.57,2.73,2.17,2.58,4,2.24,8.91-1.69,17.78-3.55,26.7-5.14,3.73-.66,5-2.3,4.12-6.09a97.71,97.71,0,0,1-2.93-16C356.67,331.76,355.61,329.2,351.84,329.9ZM607.94,703c-6.47.32-12.4,0-18.3-.16-10.48-.36-20.86,1.71-31.34,1.08-3-.18-4.07.79-2.15,3.78,3,4.75,5.75,9.7,8.7,14.51,3.14,5.13,6.4,10.19,9.84,15.65ZM225.2,758.83c-.17-1.74-.18-2.24-.28-2.73-2.68-13.46-5.42-26.92-8-40.4-.77-4-2.35-5.57-6.76-4.39-19.19,5.15-38.47,10-57.7,15-2.7.7-6.7.75-7.79,2.52-3.51,5.71-7.43,12.08-5.87,19,2.6,11.44,6.47,22.59,9.72,33.89.82,2.85,2.1,3.39,5.08,2.63,7.93-2,15.27-5.63,23-8.09q22.5-7.14,45.08-14C224.16,761.44,225.4,760.22,225.2,758.83ZM433.85,117.12c-3.79,2-8.75.3-13.48,1.31-7,1.5-7.05,1.49-6.34,8.48.58,5.75,1.27,11.5,2.25,17.2.24,1.42.14,4.26,3,3.67,6.95-1.46,13.85-3.17,20.79-4.72,1.42-.31,2.08-1.1,1.84-2.44-1.26-7.15-2.63-14.29-3.87-21.45C437.65,117.09,436.25,117.07,433.85,117.12ZM310,513.14c1.64-.22,3.3-.33,4.91-.66,10.32-2.14,19.54-7.23,29.22-11.06,7.75-3.06,7.7-3.1,5.83-11q-5.49-23.15-10.9-46.31c-.56-2.44-1.09-4.59-4.45-3.87-12.44,2.67-24.9,5.26-37.35,7.89-2.58.55-3.54,2.09-3.07,4.73,3.25,18.37,6.7,36.71,9.51,55.15C304.39,512.53,306,513.68,310,513.14ZM141,197.86c-.95-4.5-2-9.35-3-14.19-.39-1.79-1.91-1.8-3.17-1.57-5.84,1.05-11.68,2.14-17.47,3.44-2.06.47-3.34,1.61-2.53,4.37,1.15,4,1.62,8.09,2.48,12.12.48,2.3,1.95,3.44,4.36,2.91,5.64-1.25,11.25-2.63,16.91-3.79C140.35,200.78,141.26,200.07,141,197.86Zm382.61-87.68L538.91,128c4.28-5.49,5.42-12.4,8.75-18.71C539.46,108.32,532.12,110.63,523.61,110.18Zm133,451.33-.07,1.15c1.58.82,3.14,1.71,4.76,2.45,1.94.88,3.92,1.72,5.93,2.42,1.39.48,3.06,1,3.45-1.26a5.16,5.16,0,0,0-5.55-6.26A86.35,86.35,0,0,0,656.66,561.51Z"/><path class="cls-2" d="M663.93.1c24.16,0,48.32.07,72.48-.09,3,0,3.59.6,3.58,3.59-.13,35.49-.08,71-.08,106.47-2.15.49-3.13,2.12-4.13,3.9-3.32,5.92-6.74,11.78-10.17,17.63-8.66,14.73-17.44,29.4-26,44.19-3.4,5.87-3.88,6.2-10.06,3.57-4.26-1.82-8.44-4.5-12.88-5.09-10-1.3-20.15-1.29-30.19-2.3-8.08-.82-16.09-1-23.56-6.05a193.78,193.78,0,0,0-20.14-11.78c-3.84-2-4-4.07-2.6-7.48,5.9-14,11.58-28.16,17.6-42.14,5.43-12.6,5.57-12.54-1.52-24.79-3.36-5.79-2.75-8.7,1.32-13.91,5.6-7.15,10.91-14.56,16-22.1a269.55,269.55,0,0,1,18.36-24.95C656.82,13,660,6.33,663.93.1Z"/><path class="cls-3" d="M.14,501V344c3.09-.56,6.22-.95,9.26-1.69,25.08-6,50.13-12.21,75.23-18.2C97.79,321,111.1,318.4,124.19,315c5.07-1.33,6.43.4,6.9,4.77,1.28,11.65,3.55,23.17,5.31,34.75,3.64,24,8.14,47.92,12.4,71.85.67,3.76,0,5.85-4.32,5.69a23.37,23.37,0,0,0-6.44.45c-9.17,2.18-18.53,3.4-27.76,5.3-14.4,3-29,4.92-43.53,7.29-2.88.47-4.28,2.21-4.58,5.06C61,461.66,58.63,473,58.09,484.63c-.12,2.62-1.2,4-4.15,4.53-9.59,1.84-19.06,4.28-28.58,6.43C17,497.48,8.77,500.23.14,501Z"/><path class="cls-4" d="M105.77,99.16c11.17-1.58,22.45-1.38,33.67-2,4.31-.22,5.75-1.41,5.75-5.78,0-14.44-1.81-28.83-1.12-43.28a60.17,60.17,0,0,0-.68-8.37C143,35.64,141,35,137.51,35c-16.46.11-32.93-.1-49.38.14-4.75.08-6.11-1.81-6-6.15.15-9.64,0-19.29,0-28.93H303q0,57.72,0,115.44c0,6.51-1,7-7.49,7.61-13,1.15-26,2.77-38.94,4.23q-16,1.8-32,3.68c-9.85,1.15-19.72,2.19-29.53,3.61-2.89.41-4,0-4-3q.06-40.48,0-81c0-3.47,1.81-3.63,4.42-3.62,13.83.06,27.65,0,41.48,0a21.73,21.73,0,0,0,4-.24,2.54,2.54,0,0,0,1.74-2.26c.23-1.27-.89-1.78-1.8-2a19.89,19.89,0,0,0-4.42-.48c-13.16,0-26.32-.18-39.48.07-4.38.08-6.5-.85-5.93-5.71.4-3.45-.13-7,.13-10.48A14.7,14.7,0,0,0,188,15.8c-2.3-3.15-4.88-4.91-9.13-4.81-13.12.32-26.2-1.6-39.35-.89-2.23.12-5.17-.62-5.24,2.92s2.82,3.05,5.09,3.06c8.83,0,17.66-.1,26.48.06a78,78,0,0,1,13.85,1.1c4.05.8,5.47,4.14,5.45,8.24-.08,16,0,32,0,48,0,19.16-.08,38.32.08,57.47,0,3.71-.78,4.95-4.88,5.31-13.16,1.16-26.24,3.15-39.38,4.65s-26.32,2.62-39.45,4.24c-9,1.1-18,2.63-27.1,3.18-2.45.14-3,0-3.29-2.5-1.44-14.14-3-28.26-4.72-42.37-.28-2.42.43-3.35,2.86-3.4M194.08,89.22c0,12,.17,24-.1,36-.09,4.13,1.38,5.4,5.17,4.9,5.24-.69,10.47-1.82,15.72-1.9,11.46-.18,22.75-2,34-3.46,14.59-1.82,29.23-3,43.84-4.57,4.46-.47,6.43-2,6.37-6.8-.2-18.3-.08-36.61-.08-54.92,0-8.52-.68-9.3-9.31-9.31-30.3,0-60.59,0-90.88-.1-3.67,0-4.93,1-4.85,4.76C194.22,65.59,194.08,77.41,194.08,89.22Z"/><path class="cls-3" d="M.14,328v-129c4.32.1,8.48-1.32,12.86-1.07a92.77,92.77,0,0,0,15.46-.14c18.28-2.05,36.62-3,55-3.87,6.27-.29,12.55-.77,18.78-1.59,3.13-.41,4.23.21,5.09,3.46,1.74,6.53,2.43,13.24,4.27,19.77,2.23,7.91,3.16,16.19,4.52,24.33.33,1.93-.24,3.79-2.65,4-9.87.95-19.28,4.43-29.21,5.17-7.11.53-7.29,1.51-6.31,8.33.85,5.91,4.86,3.55,7.49,3.14,10.1-1.57,20.13-3.67,30.2-5.49,2.49-.45,4.1-.19,4.66,3.27,2.15,13.2,4.69,26.34,7.37,39.45.68,3.34-1.17,3.83-3.36,4.13-17,2.35-33.62,7.09-50.42,10.6-17.14,3.58-34.34,7-51.37,11.12C15.13,325.46,7.87,328,.14,328Z"/><path class="cls-4" d="M607,.1c-7,12.73-14.12,25.44-21.1,38.2C577,54.41,568.38,70.6,559.52,86.68c-2.7,4.89-6.43,9.19-7.75,14.85-.58,2.49-3,1.39-4.71,1.51-15.18,1.08-30.38,2-45.55,3.16-15.49,1.18-31,2.69-46.46,3.81-5.15.37-5.58-.67-4.94-5.81,1.41-11.47,2.67-23,3.87-34.45,2-19.06,2.81-38.23,5.82-57.19.65-4.06.16-8.3.19-12.46Z"/><path class="cls-3" d="M700.92,813.88H530a3.56,3.56,0,0,1,1.18-2.65c13-12.86,25-26.65,37.29-40.11,10.87-11.85,22.46-23.06,32.91-35.29,5.5-6.44,11.39-9.57,20.4-9.21,20.41.82,40.84,1.88,61.3,1.3,5.15-.14,10.33.2,15.47-.07,4.16-.21,6,1.34,5.38,5.47-2.08,13.68-.48,27.49-1.71,41.24C701,787.59,702.31,800.8,700.92,813.88Z"/><path class="cls-4" d="M.14,673.92c11.58-1.81,23.2-3.41,34.74-5.46,20.49-3.65,40.93-7.58,61.38-11.4,2.39-.44,3.64.22,4.09,2.87.68,4.07,1.92,8,2.73,12.1a7.08,7.08,0,0,0,4.87,5.75,79.87,79.87,0,0,1,9.68,3.9c8.84,4.61,17.56.85,26.25-.29,6.67-.89,7.11-.72,8.29,5.94,1.73,9.77,4.83,19.25,6.35,29.09.37,2.36.23,3.07-2.28,3.61-4.67,1-9.21,2.64-13.81,4-2.2.62-3.26,2.31-3.89,4.22-1.78,5.34-3.36,10.74-5.11,16.09-.75,2.26.08,4.25.72,6.3,3.36,10.77,6.63,21.57,10.14,32.28,1,3.12.48,4.21-2.83,5.22-12.36,3.75-24.61,7.88-36.83,12.07-2.86,1-3.91.7-4.83-2.49-3.45-11.93-7.32-23.74-11-35.58-2.51-11.67-3.51-15.67-6.66-23.19-.33-1.28-.57-2.59-1-3.83-4.32-12.26-4.86-26.63-19.29-33.22-2.35-1.07-4.29-2.28-6.84-1.74-6.62,1.4-13.19,3-19.84,4.25-11.67,2.17-23.13,5.45-35,6.54Z"/><path class="cls-4" d="M739.91,340c-4.86,1-8.59,4.28-12.84,6.5-2.76,1.44-4.18,1.24-5.93-1.59-10-16.21-20.25-32.32-30.48-48.42-7.46-11.75-15.12-23.38-22.55-35.15-8.57-13.59-16.26-27.81-25.72-40.75-6.93-9.48-7.39-19.85-8.4-30.46-.31-3.17-3.06-7.32-.06-9.35,3.15-2.13,7.77-.87,11.71-.56,10.05.81,20.08,1.94,30.13,2.76a16.57,16.57,0,0,1,6.2,1.55q26.81,13.23,53.66,26.38a7.68,7.68,0,0,0,4.28,1.12Z"/><path class="cls-4" d="M711.91,813.88c-.69-20.77.62-41.54,1.31-62.27.52-15.62-.34-31.26.86-46.8,1.21-15.79.45-31.55.84-47.32.07-3.15,1-6.18,1.09-9.36.44-9.92-.15-19.54-5.63-28.22-2.53-4-1.58-7.2,2-9.94a17.17,17.17,0,0,0,1.42-1.41C728.38,594,728.37,594,730.9,573.45c.22-1.8.62-3.58,1-5.37,1-5.32.85-10.22-2.71-14.92-2.85-3.77-3.94-8.69-6.83-12.56-7.06-12.17-8.06-14.17-14.4-24.69-1.61-7.55-6.12-13.7-9.89-20.18-1.29-2.21-2.32-4.31-2.18-6.88,2.06-6.52,6-12.09,9.13-18.05a125.12,125.12,0,0,1,27.7-36c2-1.81,4-4.09,7.23-3.81q0,189.21.09,378.4c0,3.75-.82,4.77-4.6,4.6C727.59,813.65,719.75,813.88,711.91,813.88Z"/><path class="cls-4" d="M50.13.1c.35,13.08,2.28,26,3.79,39,1.2,10.34,2.09,20.72,3.22,31.07,1.55,14.28,3.25,28.55,4.77,42.84,1.16,10.85,2.11,21.72,3.24,32.57.36,3.48-1,4.31-4.46,4.63-13.81,1.3-27.57,3.07-41.35,4.66L.14,157.06C.14,106.36.22,55.66,0,5c0-4.55,1.34-5,5.25-5C20.21.24,35.17.1,50.13.1Z"/><path class="cls-4" d="M.14,328c7.73,0,15-2.55,22.35-4.33,17-4.13,34.23-7.54,51.37-11.12,16.8-3.51,33.37-8.25,50.42-10.6,2.19-.3,4-.79,3.36-4.13-2.68-13.11-5.22-26.25-7.37-39.45-.56-3.46-2.17-3.72-4.66-3.27-10.07,1.82-20.1,3.92-30.2,5.49-2.63.41-6.64,2.77-7.49-3.14-1-6.82-.8-7.8,6.31-8.33,9.93-.74,19.34-4.22,29.21-5.17,2.41-.23,3-2.09,2.65-4-1.36-8.14-2.29-16.42-4.52-24.33-1.84-6.53-2.53-13.24-4.27-19.77-.86-3.25-2-3.87-5.09-3.46-6.23.82-12.51,1.3-18.78,1.59-18.35.88-36.69,1.82-55,3.87A92.77,92.77,0,0,1,13,198c-4.38-.25-8.54,1.17-12.86,1.07v-36c7.2-1,14.38-2.1,21.59-3,11.15-1.36,22.31-2.62,33.48-3.85,14.29-1.58,28.59-3.06,42.88-4.69,2.87-.32,2.68,1.5,3.07,3.33q6.91,32.5,13.93,65c1.56,7.26,3.11,14.53,4.78,21.78.78,3.42-.61,4.86-3.91,5.39-9.95,1.62-19.87,3.41-29.8,5.16-.81.14-1.57.55-2.37.77-1.6.44-2.91,1.23-2.42,3.1s1.86,1.91,3.57,1.57c10.71-2.09,21.45-3.95,32.13-6.16,3.92-.81,5.41-.21,6.22,4.25,2.6,14.48,5.74,28.86,9.08,43.19.76,3.26-.21,4.19-2.85,4.8-15.32,3.54-30.77,6.42-46.06,10.14-17.2,4.19-34.55,7.78-51.87,11.43C21.1,327.5,10.82,330.71.14,332Z"/><path class="cls-4" d="M679.78,459c-3.47-2.52-5-6.54-6.68-10.07C665,432,655,416.15,646.55,399.42c-1.93-3.81-1.23-5.39,2.48-7.05,19.64-8.83,38-20.29,57.76-28.89a63.45,63.45,0,0,0,9.37-5.61c3.74-2.48,6.38-2.22,8.81,2,3.61,6.32,7.78,12.32,11.63,18.52.83,1.33,1.52,2.59,3.31,2.58v24a12.67,12.67,0,0,0-2.35.76c-19.89,11.15-36.22,26.54-51,43.6C684,452.24,681.17,455.21,679.78,459Z"/><path class="cls-4" d="M449,.1q-1.9,19-3.81,38c-.43,4.45-1,8.89-1.11,13.35-.07,2.85-1.1,3.92-3.86,3.68-16.16-1.45-32.44-1-48.57-2.86a26.93,26.93,0,0,0-4.49-.12c-9,.51-17.89-.83-26.84-1-2.29,0-3.47-.81-3.29-3.19,0-.33,0-.67,0-1,.55-15.63-.74-31.21-1-46.82Z"/><path class="cls-4" d="M74.28,94.09c-9,1.79-8.59,1.77-9.27-7.11-.69-9.19-2.27-18.3-3.1-27.5C61,49.65,59.34,39.9,58.2,30.09c-1.15-10-2.06-20-3.08-30h21c-.72,11,1.13,21.88,1,32.84-.08,8.14,0,8.14,8.42,8.14q24,0,47.94,0c2,0,4.58-.68,4.61,2.83.13,15,1.59,29.87,1,44.83-.08,2.28-.8,3.41-3.19,3.31-10-.45-19.9.53-29.84,1"/><path class="cls-4" d="M225.07,813.88c.07-1.93,1.64-2.33,3-2.87,10.33-4.1,20.66-8.21,31-12.24,2.9-1.13,5.3-2.61,6.41-5.76,1.46-4.08,4.56-7.26,6.3-11.27,1.41-3.26,1.51-6.23,0-9.06-2.34-4.29-2.88-9.19-5.06-13.49-1.44-2.84-.25-4.33,2.49-5.21,18.46-6,36.84-12.24,55.39-17.93,10.65-3.28,10.73-2.87,14,8,2.16,7.15,4.35,14.3,6.78,21.36,1.14,3.29.52,5.12-2.73,6.73-5.63,2.78-11,6.08-16.52,9.14-3.32,1.83-5.75,1.57-7.25-2.52-1-2.62-2.69-4.95-4.15-7.37-.78-1.28-1.94-1.9-3.37-1a2.37,2.37,0,0,0-.8,3.48c1.26,2.33,2.56,4.66,3.93,6.93,1.92,3.18,2.37,5.69-1.95,7.43C301,792.89,300,803.7,298.05,813.88Z"/><path class="cls-4" d="M351,.1c0,19.6,1.12,39.18,1.29,58.79.07,8.24.41,16.56.74,24.84.1,2.67-.55,3.73-3.56,4.61-10.94,3.2-21.69,7.11-32.5,10.76-1.41.48-2.79,1.07-4.2,1.55-3.42,1.16-4.85.09-4.8-3.69.16-10.82.06-21.64.05-32.46q0-32.19,0-64.4Z"/><path class="cls-4" d="M.14,581.94c11-.68,21.36-4.22,32.06-6.19,2.76-.5,5.49-1.19,8.22-1.84C50.47,571.5,56,575,58,585.14c.8,4.05,1.49,8.12,2.1,12.2.42,2.81,0,4.83-3.78,4.67q-8.13-.36-11.46,7.39A54.59,54.59,0,0,1,40,617.51a16.59,16.59,0,0,0-3,9.79c.18,10.47,0,20.94.07,31.41,0,2.31,0,3.91-3.23,4.31-9.16,1.14-18.27,2.69-27.35,4.35a45,45,0,0,1-6.41.55Z"/><path class="cls-4" d="M53,760.45c-13.08,4.61-26.16,9.19-39.54,12.88C9,774.55,4.92,777,.14,776.89v-61a26.81,26.81,0,0,0,4.49-.12c15.41-3,30.83-6,46.17-9.38,4.07-.89,7.84-2,10.85,1.65,2.53,3.08,7,4.15,8.42,8.25,2.35,6.9,4.87,13.76,5.9,21"/><path class="cls-4" d="M85.76,768.49c2.47,8.35,4.84,16.74,7.42,25,2.88,9.26,3,9.24-6,12.2-5.48,1.8-11,3.52-16.41,5.44-1.39.49-3.53.33-3.63,2.7-21.22,0-42.44,0-63.66.07C.89,814,0,813.7.05,810.74c.25-9.61.09-19.23.09-28.85a18.78,18.78,0,0,0,5.39-.66c15.15-4.86,30.39-9.44,45.51-14.42,3.86-1.27,20.22-6.38,24.22-6.38"/><path class="cls-4" d="M.14,513c3.3-1.49,4.77-.56,5.67,3.14,2.76,11.26,3.72,22.87,7.05,34,1.05,3.51,2.58,4.2,5.67,3.56,18.3-3.81,36.61-7.57,54.9-11.4a5.7,5.7,0,0,1,4.24.65c8.72,4.69,14.94,10.86,16.29,21.48,1.18,9.32,3.66,18.49,5.77,27.68.78,3.41.15,4.67-3.67,4.95-8.57.64-17.09,1.87-25.62,2.9-3.52.43-5.5-.47-5.77-4.58a89.62,89.62,0,0,0-2.21-13.68c-2.26-9.93-11.2-15.51-21.05-13.34-12.76,2.8-25.52,5.63-38.29,8.41a19.55,19.55,0,0,1-3,.19Z"/><path class="cls-4" d="M431,813.88c-.51-8-3.05-15.54-4.7-23.28-1.37-6.46-3.37-12.79-4.94-19.21-1.31-5.36-.17-6.64,5.28-7.52,15.3-2.48,30.57-5.17,45.88-7.62,2.11-.34,4.43-1.85,6.56.23,6.09,5.95,6.27,5.73,0,10a85.37,85.37,0,0,0-7.6,6.39c-1.14,1-3.47,1.7-1.83,3.79s3.44,1.3,5.2-.14c3.44-2.85,7.13-5.42,10.34-8.5,2-1.93,3-1.47,4.78.22A128,128,0,0,1,504,785c-8.17,6.81-15.95,14.07-24.43,20.52-3.36,2.55-7.15,4.73-9.59,8.38Z"/><path class="cls-2" d="M422,813.88H308c.95-2.65,2.45-5.24,2.72-8,.56-5.66,4.16-8,8.7-10.37,11-5.76,21.4-12.56,32.5-18,9.16-4.5,16.94-12.22,28.15-12.34,2.78,0,3.94.27,5.24,2.9,3.53,7.18,5.59,14.92,9,22.09,5.14,10.86,1.55,9.64,14.21,9.7h5c6.19,0,8.12,1.8,8.45,8C422.1,809.88,422,811.88,422,813.88Z"/><path class="cls-4" d="M.14,501c8.63-.74,16.84-3.49,25.22-5.38,9.52-2.15,19-4.59,28.58-6.43,3-.57,4-1.91,4.15-4.53.54-11.59,2.87-23,4.08-34.49.3-2.85,1.7-4.59,4.58-5.06,14.52-2.37,29.13-4.32,43.53-7.29,9.23-1.9,18.59-3.12,27.76-5.3a23.37,23.37,0,0,1,6.44-.45c4.29.16,5-1.93,4.32-5.69-4.26-23.93-8.76-47.83-12.4-71.85-1.76-11.58-4-23.1-5.31-34.75-.47-4.37-1.83-6.1-6.9-4.77-13.09,3.42-26.4,6-39.56,9.14-25.1,6-50.15,12.16-75.23,18.2-3,.74-6.17,1.13-9.26,1.69v-6c14-3.18,28-6.5,42.11-9.51,28.16-6,56.34-12,84.25-19.09,7.5-1.91,7.8-1.79,9.17,6,3.28,18.72,6.27,37.5,9.43,56.24,2.09,12.39,4.27,24.77,6.42,37.15,1.16,6.68,2.45,13.33,3.48,20,.53,3.45.4,5.78-4.64,6.51-19.29,2.81-38.54,6.07-57.65,9.92-7.31,1.48-14.7,2.13-22,3.65-3.23.67-4.61,2.14-4.61,5.32,0,11.29-1.91,22.41-3,33.61-.36,3.6-1.73,6.34-5.77,6.94-16.55,2.45-32.47,7.91-49,10.21-2.78.39-5.11,2.58-8.13,2Z"/><path class="cls-4" d="M91.11,813.88c3.31-4.31,8.68-4.16,13.13-5.73,16.24-5.73,32.64-11,49-16.31,14.48-4.72,29-9.28,43.48-14,2.22-.73,3.33-.32,4.22,1.77,4.16,9.78,8.26,19.59,12.67,29.25,1.48,3.25-2.88,2.82-2.55,5.06Z"/><path class="cls-5" d="M679.78,459c1.39-3.82,4.25-6.79,6.75-9.68,14.81-17.06,31.14-32.45,51-43.6a12.67,12.67,0,0,1,2.35-.76v26c-3.23-.28-5.19,2-7.23,3.81a125.12,125.12,0,0,0-27.7,36c-3.14,6-7.07,11.53-9.13,18.05-3.66-1.82-4.42-5.78-6.06-8.87C686.17,473.15,681.64,466.71,679.78,459Z"/><path class="cls-4" d="M700.92,813.88c1.39-13.08.11-26.29,1.27-39.32,1.23-13.75-.37-27.56,1.71-41.24.63-4.13-1.22-5.68-5.38-5.47-5.14.27-10.32-.07-15.47.07-20.46.58-40.89-.48-61.3-1.3-9-.36-14.9,2.77-20.4,9.21-10.45,12.23-22,23.44-32.91,35.29-12.34,13.46-24.31,27.25-37.29,40.11a3.56,3.56,0,0,0-1.18,2.65H519c-.05-1.49.94-2.41,1.87-3.37q11.22-11.7,22.41-23.4,24-25,48-50a30.19,30.19,0,0,0,3.69-4.67c8.32-13.26,21.25-11,33.76-10.09,1.32.1,2.61.52,3.92.55,19.94.37,39.88.65,59.81,1.07,4.63.1,9.24.71,13.87.95,2.31.11,2.7,1.45,2.64,3.32-.55,17.4-.86,34.81-1.79,52.21-.59,11.12-.17,22.3-.2,33.45Z"/><path class="cls-4" d="M651.93.1a8.47,8.47,0,0,1-2,4.48q-21.83,29.57-42.85,59.7c-3.89,5.59-4.61,5.37-8.69-.1-8.24-11.08-8-10.94-1-22.92,7.23-12.44,14-25.17,20.84-37.82A12,12,0,0,0,618.94.1Z"/><path class="cls-4" d="M739.91,207c-10.26-5-20.54-9.89-30.77-14.91-8.17-4-8-3.92-3.17-11.72,10.74-17.46,21.28-35,31.83-52.61.56-.94,1-1.67,2.11-1.73Z"/><path class="cls-4" d="M663.93.1c-4,6.23-7.11,12.93-12,18.67a269.55,269.55,0,0,0-18.36,25c-5.08,7.54-10.39,15-16,22.1-4.07,5.21-4.68,8.12-1.32,13.91,7.09,12.25,7,12.19,1.52,24.79-6,14-11.7,28.11-17.6,42.14-1.44,3.41-1.24,5.52,2.6,7.48a193.78,193.78,0,0,1,20.14,11.78c7.47,5,15.48,5.23,23.56,6.05,10,1,20.19,1,30.19,2.3,4.44.59,8.62,3.27,12.88,5.09,6.18,2.63,6.66,2.3,10.06-3.57,8.56-14.79,17.34-29.46,26-44.19,3.43-5.85,6.85-11.71,10.17-17.63,1-1.78,2-3.41,4.13-3.9v7c-3.71,1.14-4.18,5-5.82,7.61-9.78,15.54-19.07,31.39-28.56,47.11-.94,1.56-2.13,3-3.13,4.47-2,3-2.44,7.73-6.23,8.48-3.47.69-6.83-2.12-10-3.83-5.32-2.85-11.19-3.52-16.85-3.66-11.62-.28-23.11-2.28-34.73-2.14-3.82,0-6.61-2.26-9.54-3.81-9.52-5.06-18.65-10.83-28-16.12-2.34-1.32-2.86-2.24-1.79-4.91,7.15-17.87,13.92-35.9,21.15-53.73,2-5,.88-8.58-2.53-12.1a34.18,34.18,0,0,1-2.38-3.18c-5.82-7.69-5.62-7.54.19-15.48,15.07-20.59,30-41.31,44.84-62A15.51,15.51,0,0,0,657.93.1Z"/><path class="cls-1" d="M64.1,95.05c9.94-.45,61.87-3.43,71.84-3,2.39.1,3.11-1,3.19-3.31.56-15-.9-29.88-1-44.83,0-3.51-2.57-2.83-4.61-2.83q-24,0-47.94,0c-8.43,0-8.5,0-8.42-8.14.12-11-1.73-21.86-1-32.84h6c0,9.64.11,19.29,0,28.93-.06,4.34,1.3,6.23,6,6.15,16.45-.24,32.92,0,49.38-.14,3.51,0,5.5.6,5.88,4.74a60.17,60.17,0,0,1,.68,8.37c-.69,14.45,1.12,28.84,1.12,43.28,0,4.37-1.44,5.56-5.75,5.78-11.22.57-64.5,2.37-75.67,4Z"/><path class="cls-4" d="M422,813.88c0-2,.09-4,0-6-.33-6.2-2.26-8-8.45-8h-5c-12.66-.06-9.07,1.16-14.21-9.7-3.4-7.17-5.46-14.91-9-22.09-1.3-2.63-2.46-2.92-5.24-2.9-11.21.12-19,7.84-28.15,12.34-11.1,5.45-21.54,12.25-32.5,18-4.54,2.39-8.14,4.71-8.7,10.37-.27,2.72-1.77,5.31-2.72,8h-5c.31-5.75,2.49-11.07,4.82-16.11,1.87-4,7-4.74,10.68-6.8,14.63-8.13,29.76-15.35,44.1-24a40.9,40.9,0,0,1,18.69-6.09c3.5-.22,5.43.89,6.72,4.34,3.6,9.64,7.7,19.09,11.36,28.71,1,2.55,2.39,3.13,4.84,3,4.49-.16,9,.08,13.49-.09,2.91-.11,4.47,1.33,5,3.84.91,4.37,1.53,8.79,2.28,13.19Z"/><path class="cls-5" d="M470,813.88c2.44-3.65,6.23-5.83,9.59-8.38,8.48-6.45,16.26-13.71,24.43-20.52a36.17,36.17,0,0,1,10.07,11.89c-4.1,3.89-8.21,7.76-12.28,11.68-1.73,1.66-4.64,2.27-4.82,5.33Z"/><path class="cls-1" d="M76,737.34c-1-7.27-3.55-14.13-5.9-21-1.39-4.1-5.89-5.17-8.42-8.25-3-3.63-6.78-2.54-10.85-1.65-15.34,3.36-30.76,6.33-46.17,9.38a26.81,26.81,0,0,1-4.49.12v-5c11.87-1.09,23.33-4.37,35-6.54,6.65-1.23,13.22-2.85,19.84-4.25,2.55-.54,4.49.67,6.84,1.74,14.43,6.59,15,21,19.29,33.22.43,1.24.67,2.55,1,3.83Z"/><path class="cls-1" d="M87.26,755.43C84.41,759.06,54.9,765.54,51,766.81c-15.12,5-30.36,9.56-45.51,14.42a18.78,18.78,0,0,1-5.39.66v-5c4.78.1,8.88-2.34,13.31-3.56,13.38-3.69,26.46-8.27,39.54-12.88,2.69-1,20.79-22.26,23.27-24C76.62,737.37,86.9,754.49,87.26,755.43Z"/><path class="cls-4" d="M739.91,372c-5.64-4.6-8.32-11.24-11.83-17.28a2.47,2.47,0,0,1,1.35-3.38c3.45-1.55,6.43-4.23,10.48-4.33Z"/><path class="cls-4" d="M497,813.88c.18-3.06,3.09-3.67,4.82-5.33,4.07-3.92,8.18-7.79,12.28-11.68,2.63.62,1.84,2,.89,3.58-2,3.44-5.15,5.87-7.79,8.74-1.29,1.4-3.19,2.41-3.2,4.69Z"/><path class="cls-4" d="M436.1,407.88c.61,4.33-1.35,5.61-5.55,6.27-8.65,1.35-17.21,3.39-25.71,5.49-3.53.88-5.56-.41-5.52-3.5.1-8.95-5.73-11.93-12.85-14.57-13.48-5-13.41-5.21-16.31-19.82-1.07-5.35-2-10.72-3-16.09-.7-3.84.16-6.34,4.74-6.89s9.07-1.82,13.59-2.84c1.72-.38,3.39-1.29,3.06-3.26s-2.23-1.77-3.71-1.63a90.76,90.76,0,0,0-14.14,2.55c-4.9,1.27-6.5.05-6.63-4.94-.19-7.54-3.2-14.53-4.08-21.93-.23-2-1.44-2.76-3.52-2.41q-13.67,2.32-27.36,4.51c-2.77.44-5.57.29-8.38,1-3.22.78-3.09-2.44-3.55-4.28-2.79-11.41-5.18-22.92-8.19-34.27-1.58-5.92-2.06-12.05-4.2-17.86-1.94-5.27,3.35-3.73,5.12-4.11,12.43-2.71,25-4.9,37.47-7.28,1.14-.22,2.23-.68,3.37-.89,10.57-2,10.55-2,13.64,8.5,1.57,5.34,6.16,8.9,8.36,13.94.69,1.6,3.1,1.7,5,1.37,12.54-2.16,24.95-5,37.65-6.28,2.19-.22,3.36-.54,3.77,2.11,1.08,7,2.37,14,3.58,21,.26,1.49-.47,2.11-1.89,2.26l-27.1,3a30.79,30.79,0,0,0-4.43.47c-1.58.42-2.6,1.53-2.12,3.37s1.84,2.23,3.48,2c9.66-1.2,19.34-2.3,29-3.7,2.94-.42,4.52.43,5,3.22,1.51,9.46,3.09,18.92,4.34,28.42,1.45,11,2.63,22,3.8,33,.86,8.06,1.49,16.15,2.25,24.22C435.33,401.32,435.74,404.6,436.1,407.88Z"/><path class="cls-4" d="M580.6,401c11.3.18,9.69-1.3,12.64,7.52,1.68,5,2.79,10.37,5.16,15.06,5.59,11.08,5.16,21.67-.87,32.32-1.46,2.59-2.33,5.51-3.63,8.19-3.52,7.21-.45,14.31.45,21.37,1.57,12.28,3.06,24.58,5.52,36.73.52,2.56.24,4.52-3.5,5-14.72,2-29.38,4.46-44.06,6.77q-11.49,1.81-23,3.75c-2.33.38-3.93.54-4.47-2.76-2.21-13.53-4.71-27-7.27-40.5-1.38-7.3-2.1-14.73-4.3-21.88-.68-2.24,0-3.36,2.43-3.74,4.56-.7,9-1.94,13.63-2.43s7.4-3.26,10-6.5c1.15-1.41,2.2-2.91,3.4-4.27a20.56,20.56,0,0,0,5.34-14.4c.06-11.74,1.19-23.48,1.79-35.22.11-2.06.88-2.77,2.95-3.06C562.76,401.56,572.77,402.48,580.6,401Z"/><path class="cls-4" d="M360.37,189.4c8.6-1.63,17.22-3.16,25.79-5,3.71-.78,5.37-.53,6.19,4.08,1.12,6.33,1.83,12.76,3.35,19,.65,2.64.42,4.13-3.06,4.62-9.32,1.33-18.55,3.24-27.82,4.92-1.76.31-3.48,1.14-3.32,3,.19,2.27,2.41,2.11,4,1.86,8.48-1.37,17-2.76,25.38-4.44,6.12-1.21,6.35-1,7.27,5.16.88,5.88,2.13,11.72,3.53,17.5.87,3.59-.17,5.16-3.81,5.85C380,249.42,362.14,253,344.3,256.42c-1.62.32-3.28.45-4.91.73-9.28,1.61-9.47,1.67-11.78-7.07-3-11.35-5.6-22.82-8.54-34.2-.58-2.23.25-2.94,2.1-3.38,3.7-.88,7.42-1.72,11.1-2.7,2.12-.56,3.52-1.33,3.9-4.21,1.82-14.08,4.07-28.12,6.23-42.16,1.83-11.91,3.8-23.81,5.58-35.73.29-1.94.2-3.47,2.85-3.67,17-1.24,34-2.61,51-4,3.89-.32,6,.14,6.72,5.16,1.11,7.35,1.41,14.82,3.11,22.07.49,2.1-.39,2.74-2.26,2.77a20.65,20.65,0,0,0-2.49.06c-9.48,1.29-10.3,2-12.05,11.12-1,5-1.91,10.07-2.75,15.12-.25,1.44-.53,2.41-2.26,2.69-9.94,1.61-19.86,3.4-29.82,5-2.48.39-5.8.07-5.39,3.45S358.08,189.52,360.37,189.4Z"/><path class="cls-4" d="M266.63,520.16c-3.08,1.49-3.54-.58-3.77-3.82A107.23,107.23,0,0,0,261,504.61c-.3-1.64-.71-3.51-2.87-3.48-2.61,0-2.2,2.26-2,3.73,1,7,2.23,14,3.43,21,2.8,16.29,5.65,32.57,8.45,48.86.43,2.52-.7,4-2.7,5.81-6.4,5.74-14.4,5.24-21.94,6.29-14.57,2-29.21,3.52-43.78,5.5-2.35.32-3.08.27-3.61-2.26-1.82-8.74-3.88-17.44-6.11-26.08-.67-2.62-.68-3.43,2.44-4.27,10.24-2.79,20.77-4.14,31.07-6.61,2.85-.68,4.09-2.09,5.06-4.69a56,56,0,0,0,1.93-33c-3.57-15.6-5.52-31.57-8.4-47.33-.53-2.91.93-3.5,2.92-3.94,20-4.37,40.09-8.67,60.12-13.08,3.15-.69,4.32,1,4.77,3.51Q293,472.71,296,490.8c1,5.7,2,11.39,2.81,17.11.5,3.43,1.26,7-4,7.7C285.64,516.9,276.53,518.54,266.63,520.16Z"/><path class="cls-4" d="M535,589.58c-.42-2.54.81-3.42,3.23-3.91,17.51-3.49,35-7.16,52.5-10.71,13.93-2.83,28-5,41.78-8.55a35.79,35.79,0,0,1,26.71,3.14,14,14,0,0,0,5.09,1.94c7,.49,9.53,5,10.6,11,.15.81.36,1.62.55,2.42,3.63,14.87-1.66,22.95-16.69,27.3-12.55,3.62-24.8,8.27-37.21,12.39-15.39,5.12-30.81,10.14-46.21,15.25-8.48,2.81-17,5.58-25.38,8.61-3.55,1.28-4.49.25-5.06-3.28-1.91-11.75-4.22-23.42-6.34-35.13C537.31,603.27,536.16,596.42,535,589.58Z"/><path class="cls-4" d="M106.93,585.93c-3.48.13-4.24-2.27-4.77-4.81-2-9.38-4-18.75-5.81-28.17a8.45,8.45,0,0,0-3.64-5.64c-2.43-1.74-5-3.31-7.28-5.23-5.51-4.65-11.09-5.43-18.36-3.54-14.7,3.82-29.78,6.21-44.7,9.2-2.9.58-4.65.28-5.73-3.34-3-10-3.24-20.61-6.31-30.62-.64-2.08.45-3.37,2.75-3.81,19.65-3.82,39-9,58.8-12.22,6.84-1.13,13.54-3.12,20.29-4.81,2.34-.59,3.61-.89,4.17,2.48,1.18,7.17,3.19,14.2,4.9,21.28a6.43,6.43,0,0,0,2.56,3.4c7.87,6.64,16.31,4.91,25.08,2.5,12.94-3.55,26-6.65,39-10.11,2.65-.7,4.11-.54,4.48,2.54a53.15,53.15,0,0,0,1.42,6.28c2,8.07,2,8.08-6.23,10.36-4,1.11-8,2.37-12,3.17-3.13.62-3.67,2.13-3,4.95,1.74,7.25,2.9,14.66,5.1,21.76,1.67,5.38-.19,9.63-2.36,14.09a4.17,4.17,0,0,1-3.5,2.34c-14.5,2.52-29,5.15-43.45,7.75C107.8,585.82,107.3,585.88,106.93,585.93Z"/><path class="cls-4" d="M415.1,451.76c4,.88,7.43,2.84,10.95,4.64,1.46.74,2.75,1.77,4.63,1.23,10.68-3,21.84-3.33,32.66-5.61,9.69-2,19.44-3.81,29.16-5.74,3.08-.6,5.05-.71,5.76,3.57,3.69,22.31,7.84,44.54,11.68,66.82.46,2.63,2.91,5.78.81,7.8-1.6,1.53-5,1.13-7.6,1.64-11.82,2.36-23.67,4.59-35.43,7.22-2.7.61-3.67,0-4.24-2.33a2.08,2.08,0,0,0-.22-.45c-2.42-4.68-3.42-10.48-10.39-11.2-5.2-.54-10.08-2.29-15.53.13-4.47,2-9.47,2.93-14.08,4.83-3.05,1.25-5.36.37-8.17-1.54-7.88-5.37-8.34-13.41-8.8-21.53-.68-12-5-23.25-7.66-34.83-2.22-9.54-2.4-9.51,6.84-12.1C408.65,453.41,411.86,452.62,415.1,451.76Z"/><path class="cls-4" d="M587.82,59.16c1.44,1.61,2.59,2.8,3.63,4.08,6.78,8.31,12.36,17.54,19.61,25.48,2,2.22,1.51,4.53.56,6.92-5.79,14.62-11,29.48-17.56,43.78-5.73,12.59-5.65,25.14-3.5,38.29,1.37,8.3,1.62,16.78,2.4,25.18.55,5.92,1.09,11.84,1.75,17.75.22,1.92.11,3.63-2.27,3.34-10-1.22-16.27,6.4-24.13,10.21-1.18.57-2.19,1.51-3.33,2.18-3,1.8-5.15,1.83-7-2-3.73-7.79-8.06-15.28-12.06-22.93-1.88-3.59-1.17-7.55-.64-11.23a69.92,69.92,0,0,0,.68-8.4c.33-16.11.72-32.21,1-48.32.13-7.47,4.46-13.43,6.89-20.07,6-16.43,16-30.85,23.78-46.37,2.45-4.88,5.06-9.69,7.68-14.49A30.68,30.68,0,0,1,587.82,59.16Z"/><path class="cls-4" d="M548,323.86c1.56.59,3.59,1,5.21,2C560.82,330.84,568.33,336,576,341a7.2,7.2,0,0,1,2.49,3q9.57,19.09,19.14,38.18c1.42,2.81,3,5.51,4.55,8.28,1.15,2.1.89,3.27-1.87,3.65a57.13,57.13,0,0,1-8.87.93c-16.76-.32-33.44,1.54-50.15,2.3-12.85.59-25.79.78-38.58,2.55-2.46.34-2.52-1.35-2.75-3.12-1.62-11.94-5-23.56-6.12-35.63-.47-5.19-2.14-10.33-3.26-15.49-1-4.7-.41-6.76,4.74-8,16.7-4.06,33.26-8.73,49.87-13.16C545.94,324.24,546.75,324.11,548,323.86Z"/><path class="cls-4" d="M236.06,663.3c0-1.3,0-2.13,0-3-.07-4.92,1.82-7.54,7.17-8.53,17.88-3.31,35.66-7.12,53.45-10.87,6.68-1.41,6.61-1.57,5.52-8.14-.68-4.09-.27-6.67,5.24-7.11,14.65-1.16,29.23-3.16,43.85-4.76,8-.88,15.94-2.94,24.1-3,2.81,0,4.06.44,4.95,3.77,3,11.21,5,22.66,8.1,33.81,1.27,4.51.29,6.74-4.34,8-23.66,6.37-47.27,12.95-70.91,19.44C307,684.61,300.63,686,294.53,688c-3.28,1.12-4.21.08-5.39-2.69-2.15-5.09-3.05-10.51-4.6-15.75-1.42-4.82-3.85-5.26-8.16-4-11.1,3.31-22.35,6.08-33.44,9.4-3.63,1.09-5.2.22-5.79-3.33C236.67,668.75,235.6,665.89,236.06,663.3Z"/><path class="cls-4" d="M689,618.06c-5.42,6.13-10.58,11-15.28,16.39-12.5,14.25-26.2,27.37-39.6,40.77-5.6,5.6-9.88,12.41-16.22,17.38-2,1.54-3.76,2.46-6.25,2.33-15.29-.77-30.52,1.32-45.8,1h-.5c-3.58,0-7.76,2.81-10.52.18-2.48-2.36-1.73-6.84-2.41-10.38-1.82-9.4-3.42-18.84-5.18-28.25-.4-2.12.52-3,2.38-3.62,12-3.93,23.93-7.92,35.89-11.89q18.38-6.09,36.77-12.19c15.72-5.2,31.29-10.89,47.23-15.27C675.6,612.84,682,616.41,689,618.06Z"/><path class="cls-4" d="M121,647c-2.88.41-4.29-.92-4.9-3.68q-5.31-24-10.75-47.92c-.75-3.33,1.35-4,3.86-4.42,12.84-2.36,25.72-4.5,38.48-7.26,4-.87,9.68.08,11.67-4.12,3-6.4,6.22-13.37,3.06-20.79-2.25-5.27-1.89-11.1-4-16.36-.94-2.3.38-3.33,2.46-3.88,3-.8,6-1.79,9.09-2.55,6.85-1.72,7.06-1.74,8.7,5.25q9.85,42,19.46,84.1c1.66,7.31,1.44,7.15-7.41,8.71-14.81,2.61-29.56,5.52-44.34,8.28C137.92,643.9,129.47,645.42,121,647Z"/><path class="cls-4" d="M358,73.71c0-4.67.12-9.33,0-14-.1-2.91,1.15-3.94,3.86-3.63,15.81,1.82,31.78.89,47.59,2.81a60.19,60.19,0,0,0,11.47.13c6.35-.45,12.54,1.35,18.86,1,3.77-.19,3.42,2.43,3.21,4.7-.59,6.26-1,12.57-2.14,18.71-1.37,7.06-.61,14.19-1.68,21.27-1,6.82-.92,7.19-7.57,7.34-15.72.37-31.3,2.59-46.95,3.86-5.12.41-10.3.78-15.36.88-15.27.29-30.3,3.14-45.56,3.41-4.08.08-8.22.82-12.37.85-2.29,0-3.45-.81-3.28-3.2.05-.66,0-1.33,0-2-.08-8.77.34-9.7,9-11.59,10.42-2.29,20.09-6.73,30.14-10C358.22,90.64,358,90.06,358,78.2,358,76.7,358,75.2,358,73.71Z"/><path class="cls-4" d="M608,541.1c-2.28-7.81-2.7-15.93-4-23.9-2.16-13.38-4-26.81-6-40.21-.79-5.27.58-10.29,2.23-15.14,2-5.81,4.57-11.4,6.82-17.12a13.09,13.09,0,0,1,6.83-7c5.56-2.69,10.46-6.38,15.66-9.61,7.38-4.59,18.81-1.75,22.93,5.85,5.86,10.81,11.79,21.58,17.64,32.4a44.82,44.82,0,0,1,1.84,4.59c-2,.92-2.66,2.93-3.7,4.55-7.47,11.73-13.29,24.34-19,37C641.18,530.28,626.18,537.93,608,541.1Z"/><path class="cls-4" d="M164,395c-3,0-4.83,0-6.66,0s-2.88-.7-3.19-2.5q-1.45-8.29-2.91-16.59c-.26-1.51.2-3.09,1.89-2.74,11,2.25,17.83-5.15,24.68-11.24,8.42-7.49,18.75-8.47,28.8-10.8,5.48-1.27,11-2.28,16.47-3.66,2.9-.74,3.64.08,4.07,3,1.37,9.31,3.21,18.55,4.73,27.84,1,5.95-1.32,11.45-2.79,17-1.63,6.24-3.73,12.34-5.25,18.63-1.76,7.21,2,13.25,2.64,19.89.6,6.14,3.1,11.82,4.35,17.81.78,3.73-.4,5.53-4.11,6.29-8.59,1.75-17.17,3.57-25.68,5.65-3.12.77-4.46-.36-4.89-3.12-2.82-18.13-6.52-36.09-10-54.09-.83-4.28-2.52-7-6.94-7.8C173.72,397.59,168.89,393.56,164,395Z"/><path class="cls-4" d="M594.05,164c-.37-4,1.09-4,3.44-2.68,8.76,5.06,17.52,10.15,26.35,15.09a5.59,5.59,0,0,1,3.3,4.52c1.16,8.5,2.68,17,3.71,25.48a26,26,0,0,0,3.85,11.11q13.15,20.72,26.23,41.48,22.86,36.18,45.71,72.37c3.54,5.59,7.06,11.21,10.88,16.62,1.46,2.06,1,2.87-1,3.63a18.16,18.16,0,0,0-1.89.61c-3.9,2.1-7.83,6.45-11.92,5.08-3.89-1.32-5.32-6.85-7.88-10.49-21.21-30.06-42.68-59.94-63.4-90.33-6.53-9.57-13.75-18.69-19.65-28.7-1.55-2.63-3.71-4.18-7-3.78-3,.38-4.55-.21-5.08-4-1.84-13.45-2.32-27-3.91-40.47C595.19,174.13,595.48,168.6,594.05,164Z"/><path class="cls-4" d="M319.92,361.44c-.2,1.67-1.23,2.26-2.69,2.54-17.37,3.34-34.82,6.34-52.07,10.23-7.58,1.7-15.47,2.13-22.76,4.92-3.93,1.51-5.42.37-6-3.48-1.33-9-2.82-17.95-4.21-26.93-.35-2.22.68-3.37,2.93-3.76,2.76-.48,5.46-1.48,8.23-1.78,3.48-.39,4-2.48,3.63-5.25-1.11-7.69-2.09-15.4-3.59-23-.6-3,.63-4,3-4.51,18.54-4.31,37.09-8.57,55.62-12.91,1.87-.44,2.68-.19,3.06,1.87,2.74,14.82,6.69,29.37,10.25,44C316.78,349.44,317.08,355.8,319.92,361.44Z"/><path class="cls-4" d="M214,702.48c.2,2-.27,3-2.21,3.51-14.6,3.57-29.18,7.19-43.71,11-3.12.82-3.86-.22-4.5-3-2.61-11.29-5.69-22.47-8.1-33.8-.8-3.75-2.54-4.69-5.8-4.31-7.22.84-14.53,1.24-21.63,2.69-5.45,1.12-9.12-2.41-13.66-3.59-5.34-1.38-6.7-5.36-7.42-10.36-1.32-9.2-1.57-9.12,7.33-10.73C132.17,650.7,150,647,168,644.28c10.15-1.55,20.14-3.78,30.25-5.44,3-.49,3.49.41,4,3.13,3.72,19.82,7.67,39.6,11.54,59.39C213.84,701.85,214,702.34,214,702.48Z"/><path class="cls-4" d="M478,591.09c-14.06,3.66-28.37,6.15-42.61,8.95-8.27,1.62-16.42,3.8-24.75,5.23-7.16,1.23-14.23,3-21.37,4.42-3.44.69-5.78.47-6.51-4.23-1.07-6.84-3.22-13.52-5.16-20.2-1.09-3.76-.66-5.75,3.77-6.66,16.36-3.36,32.65-7.09,49-10.72q15.74-3.5,31.46-7.08c2.7-.62,4.36-2,4.23-5.22-.19-4.32.08-8.66-.09-13-.11-3,1.27-4.12,4-4.64,12.66-2.43,25.32-4.84,37.92-7.53,3.61-.78,4.78-.35,5.32,3.73,1.1,8.34,3.15,16.56,4.81,24.82-7.12-.48-13.41,2.44-19.45,5.42C487.45,569.87,479.19,577.86,478,591.09Z"/><path class="cls-4" d="M335.46,125.06c1.9,0,3.23,0,4.56,0,2.47-.09,3.15,1,2.77,3.41-3.59,22.33-7.73,44.61-10.3,67.06-.86,7.55-3.69,10.29-10.2,11.63q-14.1,2.91-28.05,6.4c-2.56.64-3.52-.45-4-2.37-2.16-9-4.34-18-6.19-27.06-.93-4.54-2.94-8.73-3.46-13.42-.3-2.69-.11-3.41,2.64-3.74,6.06-.74,12.06-2,18.1-2.87,1.81-.26,2.74-.86,2.65-2.78-.11-2.14-1.55-2.25-3.14-2.26-5.85,0-11.48,1.37-17.11,2.67-3.29.76-5-.1-5.73-3.48a180.88,180.88,0,0,0-5.6-21.61c-2.07-5.93,2.27-5.34,5.9-5.87C297.48,128,316.78,126.84,335.46,125.06Z"/><path class="cls-4" d="M297.13,632.56c1.45,2.5-.15,3.12-2.69,3.78-12.5,3.25-25.26,5.19-37.93,7.58-7,1.32-13.71,3.89-20.92,4.13a3.61,3.61,0,0,0-3.26,2.74c-3,9.65-1.94,19.2,1.18,28.58.79,2.41,2.79,2.56,5.34,1.84,12-3.4,24-6.38,36-9.8,3.63-1,5.08.05,6.08,3.43,5.28,17.79,10.69,35.53,16.06,53.29.34,1.12.61,2.26,1,3.34,1.56,3.95.48,5.47-3.9,6.77-15.24,4.54-30.26,9.82-45.36,14.79q-7.08,2.33-14.19,4.53c-2.56.78-4,0-4.52-2.91q-4.86-25.57-10-51.11-5.7-28.47-11.63-56.89c-1.83-8.76-1.94-8.41,6.67-9.83,22.52-3.71,45.38-4.74,67.85-8.81,2.43-.44,4.92,0,7.42-.62C295.84,626,296.54,626.65,297.13,632.56ZM244.24,749.9a11.43,11.43,0,0,0,3-.24c12.08-3.27,24.22-6.22,35.88-11,6.2-2.56,9.81-9.71,8.91-16.09-1-7-9.15-16-14.71-16.66a76.11,76.11,0,0,0-28.93,2.34c-7.6,2.06-15.49,4.68-17.54,14.17a31.07,31.07,0,0,0,.08,15.21C233.57,747,236.67,750,244.24,749.9Z"/><path class="cls-4" d="M419.11,701.92h-6c-8.13,0-8.11,0-9.95-8q-4.17-18.13-8.39-36.26c-1.58-6.69-1.65-7,4.78-8,12.08-1.8,24.23-3.14,36.34-4.76,5.89-.79,11.77-1.73,17.63-2.69,3.07-.51,6-.82,7.79,2.5a1.09,1.09,0,0,0,.35.36c12.3,8,14.28,21,16.31,34,.79,5.06,1.59,10.13,2.66,15.13.83,3.83.46,5.81-4.33,5.82-13.28,0-26.58.23-39.83,1.08C430.69,701.46,424.91,701.87,419.11,701.92Z"/><path class="cls-4" d="M219.94,281.33c.2,1.59-.37,2.45-2.09,2.68-11.84,1.55-23.23,5.22-34.89,7.6q-20.4,4.18-40.66,9c-3.27.78-4.33-.44-4.85-3-3.16-15.88-5.83-31.88-9.54-47.63-2.84-12.08-5.25-24.24-8.2-36.28-.76-3.09.43-4.08,2.83-4.45A170.07,170.07,0,0,0,140,205.26c2.47-.65,3.7,0,4.24,3.05,1.83,10.25,4.13,20.42,6.36,30.59,1.7,7.75,3.79,15.41,5.28,23.19.78,4.05,2.91,5.24,6.6,4.94,7.75-.62,15.5-1.4,23.19-2.34s15.14-1,22.22,2.69a17.14,17.14,0,0,0,2.35.81C217.27,270.62,219.65,273.83,219.94,281.33Z"/><path class="cls-4" d="M243.31,161c2.76-.62,5.71.63,7.77,3.65,4.43,6.47,10.37,7.64,17.36,5.13,4.27-1.53,5.8-.47,7,4.3,3.13,12.54,5.62,25.21,8.82,37.72.76,3,.44,4-2.69,4.67-5.81,1.16-11.21,2.55-14.65,8.74-2.05,3.69-7.85,2.71-11.85,3.61-13.06,2.92-26.35,4.77-39.38,7.91-2.21.53-3.25.13-3.7-2.42-1.24-7-2.77-14-4.32-20.9-.54-2.44.23-3.77,2.55-4.51,2.53-.82,4.95-2,7.52-2.63,5.64-1.34,8.54-6,12.2-9.73,2.11-2.13,1.53-5.2.81-7.62-2.27-7.66-1.57-15.84-4.35-23.39-.67-1.83-.27-3.55,2.14-3.37C233.23,162.48,237.76,161.07,243.31,161Z"/><path class="cls-4" d="M227.14,530.41c.17,5.43-2.09,10.37-3.07,15.56-.47,2.46-2.61,2.43-4.22,2.79-9,2-18.08,3.79-27.08,5.86-3.33.77-5-.21-5.79-3.47-2.26-9.83-4.25-19.74-7-29.44-3-10.52-4.2-21.42-7.76-31.79-4.3-12.53-3.93-13.1,8.65-16.05,10-2.34,20-4.49,30-6.69,3.46-.76,5.53.07,6.24,4.15,3.09,17.9,6.49,35.74,9.72,53.61A41.41,41.41,0,0,1,227.14,530.41Z"/><path class="cls-4" d="M420.26,242.43c-4.25-2.54-7.49-18.41-11.38-17.33s-5.34.47-5.94-3.66q-2.2-15.19-5.14-30.28c-2.17-11.07.49-21.71,2.33-32.44.39-2.23,2.47-2.34,4.27-2.72,11.48-2.43,23.05-4.44,34.35-7.69,3.41-1,4.74.78,5.28,4,2.22,13.18,4.08,26.45,7.08,39.45s3.72,26.5,7.46,39.37c.59,2-.38,2.53-2,3.18-2.44,1-4.93.53-7.39.74"/><path class="cls-4" d="M513.05,226.92c-.58-3.06.83-4.55,3.74-5.36,5.26-1.45,10.49-3.06,15.64-4.89,2.29-.81,3.29-.11,4.3,1.82q12.9,24.45,25.92,48.83a9.23,9.23,0,0,1,.55,7.64c-3.51,11.22-5.46,22.89-10,33.81a22.74,22.74,0,0,1-22.57,14.09c-2.21-.16-2.24-1.81-2.7-3.5-5.21-19.22-8.2-38.79-10.11-58.6-1-10.51-3.14-20.9-4.73-31.36A17.1,17.1,0,0,1,513.05,226.92Z"/><path class="cls-4" d="M213.06,242.36c9.85-2.09,19.7-4.23,29.58-6.24,3.71-.76,7.48-1.26,11.23-1.83,2.18-.34,2.85,1,3.19,2.86,2,11.23,4.05,22.45,6.11,33.66.26,1.41,1.23,2.72-1.33,3.24-11,2.22-22,4.49-32.87,7.1-3.15.76-4.15-.35-4.74-2.94a8.86,8.86,0,0,1-.52-1.92c.15-8.28-5.94-10.19-12.05-13.15-11-5.34-22.21-4.2-33.58-2.91-4.6.52-9.16,1.28-13.76,1.74-1.9.2-3.67.41-4.31-2.62-3.31-15.53-7-31-10.48-46.49-2.51-11.1-5-22.2-7.49-33.32-.71-3.19-2.51-3.91-5.49-3.19-6.27,1.52-12.58,2.87-18.85,4.35-3.43.81-5.17.6-5.86-3.9-1.2-7.82-3.65-15.44-4.93-23.3-.46-2.83.12-3.21,2.74-3.51,18.7-2.17,37.34-5,56.08-6.69,13.84-1.23,27.57-3.34,41.44-4.26a22.68,22.68,0,0,0,2.93-.49c6.67-1.42,6.72-.91,8.12,5.4,2.27,10.19,3.21,20.58,5.21,30.79,1,5,1.11,10.16,2.48,15.16,1,3.68-4.4,10-9.67,11.93-3.41,1.25-6.94,2.21-10.41,3.33-3.27,1.05-4.32,3.36-3.63,6.6,1.78,8.41,3.5,16.84,5.4,25.22C208.22,239.72,208.89,242.82,213.06,242.36Zm8-57.75c-1.78-12.19-3.94-26.72-6-41.27-.35-2.48-2-2.52-3.63-2.13-13.27,3.11-26.92,2.76-40.35,4.59-18.66,2.53-37.51,3.59-56.28,5.26-2.88.25-4.83,1.26-4.36,4.61.85,6.08,2.79,11.9,4.28,17.83.8,3.19,2.76,4.11,5.51,3.46,5.74-1.35,11.82-1.12,17.2-4.33,3.22-1.92,6,0,6.69,3.7,1.23,6.32,2.6,12.61,4,18.9,4.27,19.37,8.64,38.71,12.8,58.1.8,3.72,2.59,4.93,6.26,4.55,7.39-.76,14.81-1.49,22.23-1.78,7.73-.31,15.8-10.68,14.1-18.33-2.19-9.84-5.07-19.52-6.65-29.51-.37-2.35,0-3.53,2.1-4,3.25-.76,6-2.65,9.28-3.51C216.16,198.65,221.09,193,221.07,184.61Z"/><path class="cls-4" d="M535.64,155.4c-.47,14.4-1.12,33-1.63,51.52-.08,2.87-1.81,3.46-3.94,4.26-18.57,7-37.72,12.27-56.64,18.23-2.88.91-4.1.67-4.58-2.75-2-14-4.74-28-7.19-42q-3.71-21.23-8.05-42.37c-1.53-7.44-2.07-15.07-4.4-22.37-.57-1.77-.5-3.7,2.31-3.87,18.49-1.11,36.89-3.51,55.42-4,8.56-.23,15.19,5.23,22.76,7.93,1.29.46,1.54,1.84,1.65,2.91C532.3,132.47,536.74,141.43,535.64,155.4Zm-12.3-10.32c-5.92,1.57-13.76,1-21.51,1.78-13.35,1.27-26.79,1.59-40.2,2.17-2.84.12-3.64.66-3,3.82,2,9.87,3.59,19.85,5.35,29.78,2.28,12.86,4.64,25.7,6.79,38.57.61,3.66,2.26,4.17,5.56,3.29,3.81-1,7.41-2.59,11.26-3.58,13.32-3.4,26.51-7.35,39.73-11.13,2.52-.72,3.65-2.33,3.69-5.15.21-14.11.63-28.22,1-42.33.08-3.17-.1-6.34.06-9.49C532.45,145.05,532.5,145.05,523.34,145.08Z"/><path class="cls-4" d="M70.84,491.91c-3,.22-3.58-.55-3.17-3.46,1.43-10,2.62-20,3.28-30,.23-3.51,1.62-4.59,4.5-5.09q21-3.66,41.93-7.35c11.69-2.07,23.41-4,35-6.39,3.51-.73,4.29.22,4.78,3.4,1.33,8.48,2.84,16.93,4.62,25.32.68,3.21-1.16,3.81-3.3,4.32q-9.17,2.19-18.38,4.14c-15.32,3.25-30.67,6.39-46,9.69C86.24,488.19,78.38,490.15,70.84,491.91Z"/><path class="cls-4" d="M42.12,641.42c0-1.83.33-3.74-.06-5.48-2.36-10.61,3.6-18.46,8.9-26.35,2.71-4,7.89-3,11.94-3.48q15.76-1.75,31.45-4.06c6.62-1,7.44-.41,8.85,6.31,2.58,12.29,5.21,24.57,8,36.81.64,2.83.15,3.39-2.81,3.9q-31,5.34-61.92,11.34c-3.59.69-4.49-.16-4.4-3.51C42.22,651.74,42.12,646.58,42.12,641.42Z"/><path class="cls-4" d="M411.28,791.89c-8,0-7.89,0-10.65-7.61-3.14-8.57-6.57-17-9.77-25.56-.85-2.26-2.32-2.78-4.58-2.88-11.6-.53-21.63,3.83-31,10-3.28,2.17-4.19,1.26-5.21-2-2.94-9.33-6-18.63-9.23-27.86-1.2-3.38-.77-5.08,2.9-6.27C361.57,724,379.29,718,397,712.06c3-1,4.51-.94,5.42,3.2,5.22,23.75,10.87,47.4,16.63,71,1.16,4.8-.17,6.32-4.82,5.63A19.89,19.89,0,0,0,411.28,791.89Z"/><path class="cls-4" d="M457.37,707.9c5.1-1.29,9.32,1.52,13,5.84a40,40,0,0,0,6.73,6.66c4.91,3.49,5.28,7.88,3.55,13-.58,1.72-1.19,3.45-1.63,5.22-3.14,12.49-3.16,12.32-15.85,14.26-13.21,2-26.38,4.3-39.53,6.71-3.36.61-5-.31-5.76-3.55-3.34-14.49-6.67-29-10.18-43.44-.67-2.79.79-2.66,2.58-2.72,9.27-.31,18.55-1,27.82-.88C444.3,709.08,450.33,707.73,457.37,707.9Z"/><path class="cls-4" d="M508,780.89c-5.15-4-5.19-4.34-.89-8.64a44.5,44.5,0,0,1,7.08-6.27c1.9-1.23,2.6-3.52,1.24-5.22-1.5-1.9-2.75.34-4.07,1.13-3.19,1.92-5.61,4.68-8.16,7.3-1.91,2-3.55,2.09-5.45,0-5.08-5.49-10.18-11-15.36-16.35-1.28-1.33-1-2.52-.6-4.06,1.82-6.72,3.23-13.56,5.3-20.19,1-3.31.09-5.24-2.2-7.35-3.67-3.39-7.11-7-10.62-10.58-.8-.8-2.19-1.57-1.79-2.77.55-1.65,2.28-1,3.51-1,15.63.09,31.21-1.69,46.85-1.09,2.94,6.47,6.13,12.83,8.75,19.41,4,10.16,5.26,20.53-.59,30.43S516.41,773.13,508,780.89Z"/><path class="cls-4" d="M241,333c.77,3.76-.56,5.66-4.61,6.46-15.25,3-30.44,6.26-45.6,9.65-3,.66-3.44,0-3.82-2.89q-3-22.33-6.62-44.59c-.52-3.21,1.19-3.82,3.32-4.33,7.39-1.76,14.8-3.43,22.22-5.09,7.74-1.72,15.56-3.13,23.22-5.17,3.89-1,5.26.15,5.79,3.76,1.67,11.44,3.51,22.86,5.15,34.3C240.4,327.75,241.61,330.26,241,333Z"/><path class="cls-4" d="M473.52,343.12c3.48-.73,5.19.2,5.88,4.26,2.88,16.91,6.24,33.74,9.4,50.6.41,2.17.22,3.55-2.69,4.11q-20,3.86-39.76,8.36c-3.75.85-5.05.08-5.42-3.83-1.46-15.44-3.29-30.85-4.8-46.29-.36-3.61-.26-7.25-1.05-10.85-.36-1.65-.08-3.29,2.36-3.47C449.47,345.1,461.48,344.09,473.52,343.12Z"/><path class="cls-4" d="M516.08,697.85c-7.9,1.3-15.86.89-23.81,1.13-4.16.13-6-.72-6.58-5.54-1.05-8.82-4.65-17.48-4.79-26.24-.23-14.33-10.68-20.81-19.22-29-2.47-2.37-5.69-1.15-8.59-1.06-1.63,0-3.24.64-4.87.78-7.78.63-7.84.62-9.81-7.28-1.67-6.73-3.07-13.54-4.8-20.26-.61-2.36-.55-3.86,2.18-4.4l40.29-8a4.69,4.69,0,0,1,1,0c-.59,5,.23,10.07,1.27,14.8,4.53,20.54,12.85,39.61,22.84,58.1C506.05,680,511.92,688.43,516.08,697.85Z"/><path class="cls-4" d="M344.82,432.45c-3.76,1-3.25-2.38-3.64-4-2.86-11.55-5.44-23.18-8.19-34.75-1.73-7.24-3.46-14.47-5.47-21.63-.9-3.24-.44-4.89,3.18-5.53,9.42-1.65,18.8-3.55,28.19-5.37,2.14-.41,2.82.45,3.19,2.57,1.87,10.72,4,21.4,5.91,32.12.44,2.53,2,3.68,4,4.6,5.56,2.54,11.12,5.1,16.73,7.54,3.17,1.38,7,9.32,5.81,12.4-.6,1.54-2.07,1.41-3.35,1.69-10.15,2.27-20.3,4.58-30.46,6.85C355.45,430.15,350.13,431.29,344.82,432.45Z"/><path class="cls-4" d="M442.48,274.13c4.15-.92,7.41,1.3,10.79,3.06,2.64,1.38,5.06,3.44,7.85,4.28,6.33,1.9,8.2,6.57,8.83,12.35,1.36,12.5,4.35,24.73,6.55,37.09,1.16,6.54,1,6.5-5.77,7.19q-16.83,1.71-33.71,2.21c-2.19.06-2.77,0-3.11-2.23-2.55-16.65-5.25-33.28-7.91-49.91-.32-2-.39-4.05-1.17-5.82-1.87-4.27.13-6.09,3.95-6.2C433.47,276,437.7,273.28,442.48,274.13Z"/><path class="cls-5" d="M608,541.1c18.14-3.17,33.14-10.82,41.19-28.59,5.72-12.63,11.54-25.24,19-37,1-1.62,1.74-3.63,3.7-4.55,6.17,9,10.76,18.91,15.83,28.53.48.93.15,2.29.2,3.45q-6.9,10.26-13.79,20.54c-15.34,22.81-38,32-64.24,34.5C608.9,552.42,607.5,546.87,608,541.1Z"/><path class="cls-4" d="M516,288.52c.53,2.56-.89,4.18-4,5.06-7.83,2.21-15.55,4.76-23.35,7-5.1,1.49-6.82.7-7.36-4.5-1.33-12.7-4.43-25.08-6.36-37.66-.95-6.21-2.13-12.39-3.55-18.5-.66-2.8.24-4,2.72-4.8,9.82-3,19.66-6,29.43-9.19,3.1-1,4.13-.89,4.59,2.9,2,16.07,4.43,32.08,6.66,48.12C515.29,280.59,515.57,284.23,516,288.52Z"/><path class="cls-4" d="M568.31,277.19c5.92,11,11.59,21.45,17.19,31.94q21,39.36,42,78.75c2.07,3.87,1.57,4.89-2.85,5.1-4.13.2-8.29-.36-12.39.87-1.84.56-3.3-.17-4.34-2.27-6.78-13.68-14.8-26.87-20.29-41-4.25-11-12.62-16.24-21.41-21.92-3.76-2.43-7.34-5.13-11.14-7.48-1.79-1.1-1.78-2.25-.84-3.67C562,305.8,562.8,291.81,567.14,279A12.06,12.06,0,0,1,568.31,277.19Z"/><path class="cls-4" d="M499,593.89c6.62-2.63,13.82-2.85,20.61-4.81,2.33-.67,3.95.29,4.46,3.2q6.36,36.81,13,73.58c1.57,8.77,3,17.59,5.12,26.23,1.1,4.5-.42,5.27-4.19,4.85a16.68,16.68,0,0,0-2,0c-1.62-3.25-3.26-6.48-4.85-9.74-10.23-20.93-22.05-41.12-30.06-63.1A54.74,54.74,0,0,1,499,593.89Z"/><path class="cls-4" d="M453.88,240.25c4.12-1.05,6.45.25,7.16,4.82,1.7,11.07,3.74,22.08,5.79,33.92-5-2.54-9.86-4.31-13.89-7.18-5.06-3.6-10.32-3.18-15.72-2.31q-29.07,4.69-58.1,9.73c-1.66.28-2.56.28-3.74-1.16a34.17,34.17,0,0,1-7.63-16.84c-.49-3.24.84-3.72,3.16-4.17,10.37-2,20.76-4,31.12-6.09,6-1.21,11.9-2.69,17.87-3.93"/><path class="cls-4" d="M432.83,452a11.87,11.87,0,0,1-2.45-.17c-2.78-.95-6.75-1.05-7.68-3.81-.85-2.53,2.67-4.16,4.6-5.86,3.8-3.33,6-7,3.91-12.26-.41-1,0-2.32-.23-3.46-.84-5.06.81-7.3,6.33-8.3,16.73-3.05,33.33-6.81,49.93-10.51,2.6-.58,3.37-.39,3.87,2.41,1.58,8.76,2.3,17.68,4.71,26.3.68,2.42.27,4.33-3.07,4.89-12.36,2.07-24.66,4.45-37,6.7-6.65,1.21-13.3,2.39-20,3.58C434.66,451.76,433.52,451.93,432.83,452Z"/><path class="cls-5" d="M499,593.89a54.74,54.74,0,0,0,2.09,30.21c8,22,19.83,42.17,30.06,63.1,1.59,3.26,3.23,6.49,4.85,9.74-6.55,2-13.26.58-19.88.91-4.16-9.42-10-17.9-14.9-26.94-10-18.49-18.31-37.56-22.84-58.1-1-4.73-1.86-9.79-1.27-14.8A87.29,87.29,0,0,1,499,593.89Z"/><path class="cls-4" d="M156.73,367.91c-5.59,1.55-6.91-1.56-7.69-6.14-2.77-16.26-5.82-32.47-8.76-48.7-.71-3.92-.13-6.51,4.75-7.33,8.78-1.47,17.43-3.68,26.14-5.56,2.3-.5,3.54.09,4.15,2.75,2,8.39,2.42,17,3.72,25.44,1.05,6.84,1.84,13.72,2.9,20.56a4.78,4.78,0,0,1-2,4.74q-8.24,6.78-16.54,13.46C161.31,368.77,158.83,367.61,156.73,367.91Z"/><path class="cls-4" d="M544.52,406.71c-.52,12.92-.94,25.84-1.61,38.74-.29,5.5-11.48,15.91-17.29,16.5a39.64,39.64,0,0,0-4,.32c-8.9,1.84-9.21,1.92-11-7.09-3.09-15.22-5.78-30.53-8.53-45.82-.32-1.82-.79-4.19,2.44-4.36,12.24-.64,24.48-1.41,36.72-1.95C544.74,402.9,544.94,403.38,544.52,406.71Z"/><path class="cls-4" d="M260.13,620.68c1,4-1.05,5.21-6.16,5.46-9.05.45-18,2.19-27.05,3.34-6.22.79-12.47,1.46-18.7,2.22-2.09.26-2.6-1.33-2.94-2.71-2.4-9.64-4.71-19.31-7-29-.4-1.71.07-3,2.15-3,12.11-.31,23.89-3.46,36-4.1,5.77-.3,11.49-1.32,17.25-1.91,2.41-.25,4.21.4,4.41,3.38C258.65,602.76,259.38,611.17,260.13,620.68Z"/><path class="cls-4" d="M117.48,520c-4.75,0-11.37-4.7-12.24-8.27-1.41-5.78-2.57-11.61-3.91-17.41-.86-3.66,2.09-3.7,4.13-4.18,9-2.12,18.06-4.1,27.11-6,9.52-2.05,19.07-3.93,28.58-6,2.06-.45,2.64-.28,3.09,2.07,1.45,7.46,3.14,14.9,5.23,22.21.93,3.25.16,4.6-2.87,5.37-9.45,2.37-18.88,4.83-28.33,7.22-5.93,1.5-11.87,3-17.8,4.4C119.19,519.63,117.9,519.88,117.48,520Z"/><path class="cls-4" d="M697.26,553.43c32-11,21.5,20.07,20.12,30.61-.61,4.64-3,8.16-6.34,11.42-5.33,5.17-10.27,10.75-15.32,16.21-1.62,1.74-3.12,2.41-5.66,1.55A118.21,118.21,0,0,0,677.15,610c-1.83-.4-2.55-1.21-1.14-2.59,9.84-9.65,5.55-20.25,2.28-30.86-1.45-4.73-2.35-9.64-3.84-14.37-1-3.16.07-3.74,3-4.46,6.57-1.61,13.38-2.18,19.78-4.59"/><path class="cls-4" d="M268.09,777.55a41.25,41.25,0,0,0-2,4.32c-3,8.84-9.78,12.9-18.15,15.75s-16.64,6.62-24.86,10.19c-3.37,1.46-4.7.14-5.91-2.85-3.58-8.91-7.24-17.79-11.18-26.54-1.11-2.46-.47-3,1.66-3.9,11.46-4.85,23.48-8,35.36-11.5,5.11-1.5,9.75-4.19,15-5.27,1.29-.26,2.65-1.08,3.32.77C263.56,764.76,265.76,771,268.09,777.55Z"/><path class="cls-4" d="M351.08,504.14c2.23-.15,2.19,1.85,2.49,3.09,3.88,16.07,7.84,32.13,11.39,48.28,2,9,1.62,9-7.52,11.42-4.8,1.25-9.61,2.55-14.28,4.2-2.65.93-3.94.62-4.66-2.21Q333.31,548.73,328,528.6q-1.45-5.52-3.19-11c-.45-1.41-.74-2.69.89-3.36,8.13-3.31,16.29-6.57,24.43-9.84C350.4,504.32,350.73,504.25,351.08,504.14Z"/><path class="cls-4" d="M163.26,400c5.71-.52,10.58,2.4,15.81,3.87,1.61.45,1.78,1.51,2.05,2.93q5.19,27.21,10.59,54.4c.58,2.94.49,4.49-3.18,5-5.87.8-11.62,2.4-17.44,3.6-2.18.45-3.63.23-4.1-2.68-2.84-17.41-5.92-34.78-8.89-52.17-.44-2.6-.73-5.23-1-7.85C156.21,400,156.22,400,163.26,400Z"/><path class="cls-4" d="M596.51,229.31c7.79-2.46,11.8,2,16.25,8.56,13.83,20.45,28.22,40.53,42.15,60.92C668.09,318.08,681.79,337,695.39,356c2.45,3.42,2.6,5.13-1.74,7.28-16.44,8.18-32.66,16.8-48.91,25.36-2.52,1.33-3.44.84-4.8-1.72-9.68-18.32-19.44-36.61-29.56-54.7-4-7.09-7.47-14.41-11.4-21.52-11.58-20.91-22.55-42.16-33.88-63.21-1.58-2.94-1.74-4.68,1.46-6.73,6.11-3.89,12.74-6.84,18.66-11.17C587.6,227.86,592.31,229.31,596.51,229.31Zm-2.14,3.75a17.81,17.81,0,0,0-11.63,2.76c-3.26,2-6.2,4.56-9.67,6-4.32,1.84-4.2,4.12-2.18,7.67q7.71,13.64,15,27.5c7.68,14.65,14.72,29.65,22.9,44,6.15,10.81,11.92,21.82,18,32.68,5.08,9.13,10,18.37,14.81,27.63,1.25,2.39,2.64,3.1,5.15,1.78,5.3-2.76,10.68-5.36,16-8,8.58-4.28,17.16-8.51,25.57-13.13,3.41-1.88,4.1-3,1.93-6.1-4.69-6.63-9.24-13.36-13.85-20.05-8-11.57-16-23.12-23.9-34.71s-15.76-22.94-23.44-34.55c-6.3-9.53-14.43-17.84-19.39-28.23-2-4.21-5.38-4.81-9.12-5.24C598.74,232.89,596.89,233.06,594.37,233.06Z"/><path class="cls-4" d="M688.26,502.43c32,43,7.15,46,5.36,46.31-17.86,2.66-35.42,6.66-53,10.73-8.2,1.9-16.61,2.9-24.88,4.51-3.27.64-5.54.71-5-3.67.09-.71-.56-1.53-.86-2.3,26.27-2.46,48.9-11.69,64.24-34.5Q681.08,513.25,688,503"/><path class="cls-4" d="M335,601.12c.26-7-1.27-14.31,3.21-20.76,1.17-1.68,2.06-3.16,4.26-3.75,7.34-2,14.62-4.2,21.93-6.32,2.52-.73,4.05-.1,4.66,2.77,2.55,12,5.19,23.88,8.68,35.6.58,2-.08,3-2.37,3.3q-18.9,2.2-37.78,4.65c-2.73.36-2.56-1.36-2.57-3C335,609.42,335,605.27,335,601.12Z"/><path class="cls-4" d="M317.79,369c3.1-.63,4,1,4.67,3.69q6.54,28.51,13.35,57c1,4.1-1.3,5.42-4.54,6.1-14.24,3-28.53,5.71-42.69,9.08s-28.89,5.66-43.11,9.5c-.64.17-1.26.45-1.9.56-6.72,1.13-5.95.91-7.74-5.68-2.07-7.65-3.54-15.46-5.88-23-1.49-4.84-1.95-9.51-.34-14.51,2.32-7.25,4.23-14.63,6-22a6.74,6.74,0,0,1,6-5.6c9.6-1.65,19.21-3.24,28.76-5.15,11.64-2.33,23.17-5.21,34.84-7.33C309.51,370.79,313.6,369.5,317.79,369Zm8.27,47.53c.8-5.93-.52-11.77-2.25-17.18-5.23-16.44-10.85-24.78-30.29-20.55-12.92,2.81-26,4.67-39,7.41-4.89,1-10.34,1.67-13.58,6.47a50.79,50.79,0,0,0-6.79,16.49c-2.9,11.83.2,23,4.74,33.85,1.87,4.46,7.44,7.55,12,6.55,19.73-4.29,39.77-7.31,59-13.63,5.95-2,13.37-2.35,15.49-10.53C326.23,422.38,325.79,419.45,326.06,416.51Z"/><path class="cls-4" d="M393.56,452c-1.68.24-2.81-.84-4-1.68a21.33,21.33,0,0,0-18.88-3.1c-6.68,1.89-13.55,3.07-20.33,4.58-2.46.54-3.77.11-4.57-2.82-2.74-10.05-2.89-9.92,7.36-12.16,22.63-4.93,45.27-9.83,67.84-15.06,3.3-.76,4.11.28,4.78,2.88,2.54,10-3.39,19.64-13.49,22.42C406,448.72,400,451,393.56,452Z"/><path class="cls-4" d="M395.36,645c-2.53.16-3.9-.68-4.47-3.46-1.48-7.27-3.12-14.54-5.15-21.67-.86-3,0-3.69,2.67-4.22,12.13-2.39,24.23-5,36.34-7.47,2-.42,2.88.28,3.4,2.38,2.05,8.35,4.35,16.64,6.55,25,.71,2.69.31,4.2-3.09,4.61C419.5,641.52,407.44,643.31,395.36,645Z"/><path class="cls-4" d="M711,644.18c-1.69,19.05-.63,38.18-1.22,57.28-.16,5.09-.82,10.22-.8,15.36,0,2.46-1.17,3.24-3.39,3.08-16.38-1.17-32.81-.73-49.21-1.75-12.77-.79-25.63-.18-38.44-.3-1.87,0-4.48,1.13-5.48-1s1.59-3.36,2.87-4.71c13.59-14.34,27.51-28.37,40.74-43,7-7.79,14.61-15,21.82-22.59,7.79-8.18,15.76-16.2,23.4-24.52,3.31-3.61,4.24-2.31,5.78,1.42C709.78,630.12,712.06,636.78,711,644.18Zm-26.07,71.75c5,0,10-.12,15,0,2.93.1,4.21-.78,4.13-3.93-.3-11.79,1.55-23.53,1-35.34a42.29,42.29,0,0,1,.37-6.45c1.23-11.44.46-22.92.46-34.37a7.29,7.29,0,0,0-4.26-6.34c-2.41-1-3.6,1.85-5,3.29-9.69,10.18-19,20.69-28.9,30.69-14.34,14.53-28.68,29.06-42.21,44.36-1.46,1.65-4.85,3-3.7,5.16.78,1.43,4.43,1.3,6.8,1.84a4.76,4.76,0,0,0,1,0C648,714.88,666.46,714.77,684.88,715.93Z"/><path class="cls-5" d="M508,780.89c8.38-7.76,17.12-15.24,23-25.2s4.63-20.27.59-30.43c-2.62-6.58-5.81-12.94-8.75-19.41,5.6-1.69,11.35-.64,17-.9,1.67,4.83,4,9.37,5.41,14.35,2.68,9.56,4.08,19.25,1.92,28.91-4.07,18.27-16.33,31.35-29.3,43.81C514.3,788.6,510.25,785.56,508,780.89Z"/><path class="cls-4" d="M244.58,305.3c-1.61.6-2.26.12-2.49-1.12-1-5.51-2.12-11-2.94-16.55-.4-2.64,1.8-3.16,3.83-3.61,15.16-3.32,30.28-6.8,45.48-9.88,3.26-.66,7-4,9.75-1.26,2,2,1.91,6.13,2.7,9.32,2.23,8.9,2.31,9.26-6.68,11.56-15.63,4-31.39,7.52-47.1,11.21A19.59,19.59,0,0,1,244.58,305.3Z"/><path class="cls-4" d="M399.36,701.41c.71,2.65-1.16,2.52-2.23,2.91-5.45,2-10.85,4.18-16.45,5.64-10.29,2.7-20.11,6.76-30.23,9.94q-20.64,6.48-41.12,13.43c-3.7,1.25-5.64,1.83-6.87-3.18-2.61-10.59-6-21-9.43-31.38-1.34-4,0-5.26,3.54-6.2,11.69-3.08,23.32-6.36,35-9.6,18.35-5.1,36.71-10.12,55-15.44,3.92-1.14,5.41-.13,6.1,3.63,1.35,7.32,2.94,14.58,4.38,21.88C397.6,696.08,399.94,698.61,399.36,701.41Zm-97.49,4.53a41.52,41.52,0,0,0,.5,6.43c2.83,12,7,14.34,20,11.7a320.84,320.84,0,0,0,58.74-18c9.38-3.87,11.31-7.3,9.85-17.32-1.38-9.43-8.79-15-17.93-12.94-21,4.84-41.59,11.05-62.07,17.66C302.82,696.06,302,697.34,301.87,705.94Z"/><path class="cls-4" d="M296.44,263.1c.59,2.28-.69,3-2.52,3.48-7.4,1.77-14.78,3.6-22.19,5.31-2,.45-3.32,0-3.77-2.56-1.79-10.41-4-20.75-5.79-31.15-.52-3-1-6.5,4.11-6.45a5.59,5.59,0,0,0,5-3.55c2.4-5.45,7.61-5.87,12.38-7,1.46-.36,2.89-.19,3.37,1.9C290.13,236.41,293.3,249.76,296.44,263.1Z"/><path class="cls-4" d="M461,545.42c0,10.24,0,10.38-10.06,12.68-20.81,4.73-41.66,9.29-62.49,13.95-3.22.72-6.45,1.52-9.6,2.51-2.83.88-4.19-.37-4.67-2.86-3.85-20-9-39.66-13.81-59.42-4.15-17-7.56-34.26-11.6-51.33-.69-2.89-.11-4,2.47-4.54,8.25-1.8,16.46-3.84,24.76-5.31,6.81-1.21,14.88,4.45,16.59,11.07,2.6,10.1,5.49,20.14,7.63,30.35a186.15,186.15,0,0,1,2.71,21.62c.26,2.87.79,5.22,3.41,6.71a1,1,0,0,1,.36.34c7.39,11.94,17.2,9.42,27.5,4.74a33.22,33.22,0,0,1,9-2.86c9.08-1.24,17.45,6.13,17.8,15.36C461.06,540.76,461,543.09,461,545.42Zm-3-.66c0-2,.11-4,0-6-.34-5.59-6.07-12.79-10.94-12.66a48.88,48.88,0,0,0-16.33,3.32c-11,4.27-13.87,6.54-22.9-3.18A27.7,27.7,0,0,0,403,522c-2.78-1.86-3.75-4.33-4-7.56-.39-5.77-1.09-11.52-1.74-17.26-1.32-11.56-5.46-22.51-7.4-33.94-.78-4.62-9.82-9.87-14.61-8.83-6.14,1.33-12.22,3.1-18.42,4-4.86.71-5.28,2.75-4.26,7,3.31,14,7,27.93,9.88,42.06,2,9.86,4.08,19.75,6.46,29.5s4.94,19.25,6.74,28.95c1,5.56,2.81,5.57,7.06,4.35,8.91-2.56,18.13-3.74,27.12-6.11,13.56-3.58,27.42-6.06,41.06-9.36C458.11,553.05,458,552.7,458,544.76Z"/><path class="cls-5" d="M531.9,571.08a41.68,41.68,0,0,1-2.85-15c11.25-1.52,22.55-2.68,33.72-4.65,13.43-2.36,26.47-6.71,40.07-8.28q1.14,7.92,2.28,15.85a25.86,25.86,0,0,1-9.37,3c-11,1.58-21.9,3.35-32.87,4.92C552.57,568.38,542.23,569.69,531.9,571.08Z"/><path class="cls-4" d="M272.32,160.31c0,2.5-1,3.28-3.46,3.93-6.17,1.61-11.46,1.8-15.48-4.29-4.57-6.94-11.48-3.73-17.63-3.6a21.64,21.64,0,0,0-2.39.63c-6.52.91-7.46.32-8.79-6-.71-3.39-1-6.88-1.82-10.23-.61-2.41,0-3.42,2.4-3.72q19.13-2.42,38.26-4.87c1.27-.16,2.25.15,2.6,1.63Q269.13,147.07,272.32,160.31Z"/><path class="cls-4" d="M645.84,421.79c-11.07-3.81-18.79,1.95-26.71,7.1-1.8,1.18-3.71,2.19-5.56,3.3-6,3.6-5.92,3.58-8-2.95-2.66-8.19-5.25-16.42-8.28-24.47-1.67-4.43,0-4.69,3.81-4.89,9.42-.48,18.88-.38,28.24-1.79,2.18-.33,4.08.17,5.15,2.17C638.23,407.25,641.89,414.29,645.84,421.79Z"/><path class="cls-4" d="M306.3,263.9c-2.81.28-3.82-.29-4.4-2.42-3.53-13.12-6.09-26.46-9.15-39.69-.48-2.12.15-2.49,2-2.9,5.65-1.27,11.29-2.63,16.87-4.2,2.54-.72,2.28.94,2.61,2.34q4.35,18.1,8.74,36.22c1.79,7.34,1.82,7.35-6.32,8.84C312.88,262.78,309.13,263.4,306.3,263.9Z"/><path class="cls-4" d="M517.93,792c13-12.46,25.23-25.54,29.3-43.81,2.16-9.66.76-19.35-1.92-28.91-1.39-5-3.74-9.52-5.41-14.35,5.9-1.06,9.62,1,12.62,6.55,4.88,9,10.75,17.51,16.34,26.13,2,3.14,1.87,5.33-1.05,8C552,760.36,538.16,777,523,792.31,521.28,794.07,519.35,796.74,517.93,792Z"/><path class="cls-4" d="M262.91,594c-1.19-4.29,1.46-7.71,6.31-10.2,3.33-1.71,3.86-4.34,3.37-8.31-1.93-15.79-5.62-31.25-7.91-47-.39-2.61.48-3.26,2.62-3.61q14.93-2.43,29.84-4.95c6.51-1.09,13.06-2.07,19.52-3.45,2.54-.55,2.9.13,3.49,2.43,4.58,17.81,9.36,35.57,14.14,53.33.39,1.46,1.21,2.93.28,4.3-4.79,7-4.83,15-4.57,23,.15,4.66-.08,9.33.06,14,.08,2.77-1.31,4-3.78,4.28-12.32,1.38-24.65,2.68-37,4.09-6.89.79-13.78,1.66-20.64,2.67-2.25.33-3.45.09-3.63-2.52C264.44,613.19,263.7,604.29,262.91,594Zm13,27c14.14-1.39,28.77-3,43.43-4.17,5.76-.46,7.14-2.91,6.85-8.47-.6-11.25-1.12-22.62,4.52-33.15,1-1.82.43-4.2-.2-6.35q-2.88-9.75-5.56-19.55-3.46-12.71-6.79-25.43c-.69-2.64-1.6-3.58-4.82-3.05-12.55,2.05-25.19,3.49-37.77,5.3-5.08.73-7.24,3.48-6.43,8.15,2.1,12,4.65,24,6.45,36.09,2.16,14.39,4.21,11.4-6.92,19.18-2.12,1.48-2.5,3.08-2.68,5.37-.47,6,1.24,11.87,1.11,17.86C266.92,620.94,267.06,621,275.91,620.94Z"/><path class="cls-4" d="M523.32,321.34c-.3,2.16-.36,4-3.05,4.65-8.86,2.12-17.69,4.38-26.52,6.61-3.28.83-5.58.95-6.08-3.66-.67-6.22-2.17-12.36-3.46-18.5-.47-2.29.4-3.53,2.43-4.16,8.87-2.73,17.73-5.52,26.65-8.07,1.74-.5,4.13-1,4.84,1.92Q520.71,310.74,523.32,321.34Z"/><path class="cls-4" d="M351.84,329.9c3.77-.7,4.83,1.86,5,4.64a97.71,97.71,0,0,0,2.93,16c.92,3.79-.39,5.43-4.12,6.09-8.92,1.59-17.79,3.45-26.7,5.14-1.83.34-3.43.49-4-2.24-1.48-7.12-3.34-14.15-5-21.23-.3-1.27-1.57-2.9,1.13-3.33C331.36,333.36,341.59,331.61,351.84,329.9Z"/><path class="cls-4" d="M602.84,543.14c-13.6,1.57-26.64,5.92-40.07,8.28-11.17,2-22.47,3.13-33.72,4.65-.38-2.11-.8-4.21-1.12-6.33-1-6.63-1-6.7,5.88-7.8q31.31-5,62.65-9.87c3.17-.5,5.65,0,5.55,4.21A44.9,44.9,0,0,0,602.84,543.14Z"/><path class="cls-4" d="M607.94,703l-33.25,34.86c-3.44-5.46-6.7-10.52-9.84-15.65-3-4.81-5.66-9.76-8.7-14.51-1.92-3-.89-4,2.15-3.78,10.48.63,20.86-1.44,31.34-1.08C595.54,703.05,601.47,703.34,607.94,703Z"/><path class="cls-4" d="M225.2,758.83c.2,1.39-1,2.61-3.54,3.37q-22.59,6.88-45.08,14c-7.74,2.46-15.08,6-23,8.09-3,.76-4.26.22-5.08-2.63-3.25-11.3-7.12-22.45-9.72-33.89-1.56-6.9,2.36-13.27,5.87-19,1.09-1.77,5.09-1.82,7.79-2.52,19.23-5,38.51-9.84,57.7-15,4.41-1.18,6,.41,6.76,4.39,2.61,13.48,5.35,26.94,8,40.4C225,756.59,225,757.09,225.2,758.83Zm-83.15-13.11c2,10.89,6.4,20.59,9.14,30.78,1,3.63,3.28,3.57,6.52,2.77,5.82-1.42,11.4-3.46,17.07-5.29q22.4-7.23,44.94-14c2.23-.68,2.8-2,2.2-3.59-1.39-3.78-1.63-7.75-2.42-11.63-1.76-8.73-3.76-17.43-5.42-26.18-.69-3.66-2.66-3.4-5.36-2.68-18.19,4.85-36.38,9.7-54.61,14.4-3.56.92-7.24,1.08-8.53,5.52C144.56,739.32,143.15,742.67,142.05,745.72Z"/><path class="cls-5" d="M478,591.09c1.19-13.23,9.45-21.22,20.52-26.69,6-3,12.33-5.9,19.45-5.42a50,50,0,0,1,2.08,15c-1.66.71-3.36,1.35-5,2.13-4.63,2.22-9,4.72-11.17,9.8A93.14,93.14,0,0,1,478,591.09Z"/><path class="cls-4" d="M433.85,117.12c2.4-.05,3.8,0,4.17,2,1.24,7.16,2.61,14.3,3.87,21.45.24,1.34-.42,2.13-1.84,2.44-6.94,1.55-13.84,3.26-20.79,4.72-2.84.59-2.74-2.25-3-3.67-1-5.7-1.67-11.45-2.25-17.2-.71-7-.62-7,6.34-8.48C425.1,117.42,430.06,119.08,433.85,117.12Z"/><path class="cls-4" d="M310,513.14c-4,.54-5.61-.61-6.3-5.14-2.81-18.44-6.26-36.78-9.51-55.15-.47-2.64.49-4.18,3.07-4.73,12.45-2.63,24.91-5.22,37.35-7.89,3.36-.72,3.89,1.43,4.45,3.87q5.42,23.16,10.9,46.31c1.87,7.91,1.92,7.95-5.83,11-9.68,3.83-18.9,8.92-29.22,11.06C313.3,512.81,311.64,512.92,310,513.14Zm.85-3.07,2.94-.48c11-1.59,20.73-6.46,30.65-11,3.39-1.56,4.16-3.49,3.44-6.55-3.54-15.13-7.25-30.22-10.64-45.38-.72-3.19-1.89-3.6-4.76-2.83-9.56,2.58-19.35,4.17-29,6.48-6,1.45-6,3.72-4.84,8.41.9,3.5.84,7.23,1.41,10.82,1.94,12.25,4,24.48,6,36.72C306.48,509,307.94,510.39,310.85,510.07Z"/><path class="cls-4" d="M531.9,571.08c10.33-1.39,20.67-2.7,31-4.18,11-1.57,21.91-3.34,32.87-4.92a25.86,25.86,0,0,0,9.37-3c1.81,6.35,1.56,6.79-5.73,8.29-19.23,3.94-38.46,7.88-57.71,11.69C532.51,580.79,532.36,580.57,531.9,571.08Z"/><path class="cls-4" d="M141,197.86c.26,2.21-.65,2.92-2.44,3.29-5.66,1.16-11.27,2.54-16.91,3.79-2.41.53-3.88-.61-4.36-2.91-.86-4-1.33-8.17-2.48-12.12-.81-2.76.47-3.9,2.53-4.37,5.79-1.3,11.63-2.39,17.47-3.44,1.26-.23,2.78-.22,3.17,1.57C139,188.51,140.05,193.36,141,197.86Z"/><path class="cls-4" d="M419.24,228.15c-1.08,4.84.28,9.38,1.76,13.89-3.36-.36-6.54.76-9.71,1.48-2.57.59-4,.59-4.49-2.49-2.11-12-4.68-10.27,8.09-12C416.35,228.8,417.79,228.44,419.24,228.15Z"/><path class="cls-4" d="M523.61,110.18c8.51.45,15.85-1.86,24-.86-3.33,6.31-4.47,13.22-8.75,18.71Z"/><path class="cls-4" d="M503.89,585.89c2.13-5.08,6.54-7.58,11.17-9.8,1.63-.78,3.33-1.42,5-2.13,1.64,1.52.71,3.75,1.57,5.55,1,2.14-.24,3.32-2.35,3.82C514.2,584.52,509.26,586.52,503.89,585.89Z"/><path class="cls-4" d="M656.66,561.51a86.35,86.35,0,0,1,8.52-1.5,5.16,5.16,0,0,1,5.55,6.26c-.39,2.29-2.06,1.74-3.45,1.26-2-.7-4-1.54-5.93-2.42-1.62-.74-3.18-1.63-4.76-2.45Z"/><path class="cls-2" d="M194.08,89.22c0-11.81.14-23.63-.08-35.45C193.92,50,195.18,49,198.85,49c30.29.13,60.58.05,90.88.1,8.63,0,9.31.79,9.31,9.31,0,18.31-.12,36.62.08,54.92.06,4.79-1.91,6.33-6.37,6.8-14.61,1.57-29.25,2.75-43.84,4.57-11.29,1.41-22.58,3.28-34,3.46-5.25.08-10.48,1.21-15.72,1.9-3.79.5-5.26-.77-5.17-4.9C194.25,113.2,194.08,101.21,194.08,89.22Z"/><path class="cls-5" d="M244.24,749.9c-7.57.07-10.67-2.89-13.35-12.31a31.07,31.07,0,0,1-.08-15.21c2.05-9.49,9.94-12.11,17.54-14.17a76.11,76.11,0,0,1,28.93-2.34c5.56.65,13.72,9.64,14.71,16.66.9,6.38-2.71,13.53-8.91,16.09-11.66,4.82-23.8,7.77-35.88,11A11.43,11.43,0,0,1,244.24,749.9Z"/><path class="cls-2" d="M221.07,184.61c0,8.38-4.91,14-12.83,16.11-3.27.86-6,2.75-9.28,3.51-2.13.5-2.47,1.68-2.1,4,1.58,10,4.46,19.67,6.65,29.51,1.7,7.65-6.37,18-14.1,18.33-7.42.29-14.84,1-22.23,1.78-3.67.38-5.46-.83-6.26-4.55-4.16-19.39-8.53-38.73-12.8-58.1-1.39-6.29-2.76-12.58-4-18.9-.72-3.68-3.47-5.62-6.69-3.7-5.38,3.21-11.46,3-17.2,4.33-2.75.65-4.71-.27-5.51-3.46-1.49-5.93-3.43-11.75-4.28-17.83-.47-3.35,1.48-4.36,4.36-4.61,18.77-1.67,37.62-2.73,56.28-5.26,13.43-1.83,27.08-1.48,40.35-4.59,1.65-.39,3.28-.35,3.63,2.13C217.13,157.89,219.29,172.42,221.07,184.61Z"/><path class="cls-3" d="M523.34,145.08c9.16,0,9.11,0,8.7,7.73-.16,3.15,0,6.32-.06,9.49-.32,14.11-.74,28.22-1,42.33,0,2.82-1.17,4.43-3.69,5.15-13.22,3.78-26.41,7.73-39.73,11.13-3.85,1-7.45,2.55-11.26,3.58-3.3.88-5,.37-5.56-3.29-2.15-12.87-4.51-25.71-6.79-38.57-1.76-9.93-3.31-19.91-5.35-29.78-.66-3.16.14-3.7,3-3.82,13.41-.58,26.85-.9,40.2-2.17C509.58,146.13,517.42,146.65,523.34,145.08Z"/><path class="cls-2" d="M594.37,233.06c2.52,0,4.37-.17,6.18,0,3.74.43,7.11,1,9.12,5.24,5,10.39,13.09,18.7,19.39,28.23,7.68,11.61,15.58,23.07,23.44,34.55s15.93,23.14,23.9,34.71c4.61,6.69,9.16,13.42,13.85,20.05,2.17,3.08,1.48,4.22-1.93,6.1-8.41,4.62-17,8.85-25.57,13.13-5.34,2.66-10.72,5.26-16,8-2.51,1.32-3.9.61-5.15-1.78-4.86-9.26-9.73-18.5-14.81-27.63-6-10.86-11.81-21.87-18-32.68-8.18-14.36-15.22-29.36-22.9-44q-7.27-13.87-15-27.5c-2-3.55-2.14-5.83,2.18-7.67,3.47-1.47,6.41-4,9.67-6A17.81,17.81,0,0,1,594.37,233.06Z"/><path class="cls-5" d="M326.06,416.51c-.27,2.94.17,5.87-.62,8.88-2.12,8.18-9.54,8.57-15.49,10.53-19.23,6.32-39.27,9.34-59,13.63-4.61,1-10.18-2.09-12-6.55-4.54-10.87-7.64-22-4.74-33.85A50.79,50.79,0,0,1,241,392.66c3.24-4.8,8.69-5.43,13.58-6.47,12.94-2.74,26.07-4.6,39-7.41,19.44-4.23,25.06,4.11,30.29,20.55C325.54,404.74,326.86,410.58,326.06,416.51Z"/><path class="cls-3" d="M684.88,715.93c-18.42-1.16-36.87-1-55.31-1a4.76,4.76,0,0,1-1,0c-2.37-.54-6-.41-6.8-1.84-1.15-2.11,2.24-3.51,3.7-5.16,13.53-15.3,27.87-29.83,42.21-44.36,9.86-10,19.21-20.51,28.9-30.69,1.37-1.44,2.56-4.33,5-3.29a7.29,7.29,0,0,1,4.26,6.34c0,11.45.77,22.93-.46,34.37a42.29,42.29,0,0,0-.37,6.45c.55,11.81-1.3,23.55-1,35.34.08,3.15-1.2,4-4.13,3.93C694.87,715.81,689.87,715.93,684.88,715.93Z"/><path class="cls-5" d="M301.87,705.94c.14-8.6.95-9.88,9.11-12.51,20.48-6.61,41.09-12.82,62.07-17.66,9.14-2.1,16.55,3.51,17.93,12.94,1.46,10-.47,13.45-9.85,17.32a320.84,320.84,0,0,1-58.74,18c-13.05,2.64-17.19.33-20-11.7A41.52,41.52,0,0,1,301.87,705.94Z"/><path class="cls-3" d="M458,544.76c0,7.94.12,8.29-7.1,10-13.64,3.3-27.5,5.78-41.06,9.36-9,2.37-18.21,3.55-27.12,6.11-4.25,1.22-6,1.21-7.06-4.35-1.8-9.7-4.4-19.34-6.74-28.95s-4.47-19.64-6.46-29.5c-2.85-14.13-6.57-28.05-9.88-42.06-1-4.27-.6-6.31,4.26-7,6.2-.91,12.28-2.68,18.42-4,4.79-1,13.83,4.21,14.61,8.83,1.94,11.43,6.08,22.38,7.4,33.94.65,5.74,1.35,11.49,1.74,17.26.21,3.23,1.18,5.7,4,7.56a27.7,27.7,0,0,1,4.84,4.28c9,9.72,11.87,7.45,22.9,3.18A48.88,48.88,0,0,1,447,526.11c4.87-.13,10.6,7.07,10.94,12.66C458.1,540.76,458,542.76,458,544.76Z"/><path class="cls-2" d="M275.91,620.94c-8.85,0-9,0-8.81-8.22.13-6-1.58-11.84-1.11-17.86.18-2.29.56-3.89,2.68-5.37,11.13-7.78,9.08-4.79,6.92-19.18-1.8-12.08-4.35-24-6.45-36.09-.81-4.67,1.35-7.42,6.43-8.15,12.58-1.81,25.22-3.25,37.77-5.3,3.22-.53,4.13.41,4.82,3.05q3.31,12.73,6.79,25.43,2.69,9.79,5.56,19.55c.63,2.15,1.18,4.53.2,6.35-5.64,10.53-5.12,21.9-4.52,33.15.29,5.56-1.09,8-6.85,8.47C304.68,617.94,290.05,619.55,275.91,620.94Z"/><path class="cls-2" d="M142.05,745.72c1.1-3.05,2.51-6.4,3.53-9.87,1.29-4.44,5-4.6,8.53-5.52,18.23-4.7,36.42-9.55,54.61-14.4,2.7-.72,4.67-1,5.36,2.68,1.66,8.75,3.66,17.45,5.42,26.18.79,3.88,1,7.85,2.42,11.63.6,1.63,0,2.91-2.2,3.59q-22.53,6.76-44.94,14c-5.67,1.83-11.25,3.87-17.07,5.29-3.24.8-5.55.86-6.52-2.77C148.45,766.31,144,756.61,142.05,745.72Z"/><path class="cls-3" d="M310.85,510.07c-2.91.32-4.37-1.05-4.82-3.83-2-12.24-4-24.47-6-36.72-.57-3.59-.51-7.32-1.41-10.82-1.2-4.69-1.2-7,4.84-8.41,9.63-2.31,19.42-3.9,29-6.48,2.87-.77,4-.36,4.76,2.83,3.39,15.16,7.1,30.25,10.64,45.38.72,3.06-.05,5-3.44,6.55-9.92,4.56-19.68,9.43-30.65,11Z"/></g></g></svg>