<svg xmlns="http://www.w3.org/2000/svg" xmlns:xlink="http://www.w3.org/1999/xlink" viewBox="0 0 2000 2000"><defs><style>.cls-1{fill:none;}.cls-2{fill:#c12771;}.cls-3{fill:url(#Planazo);}</style><pattern id="Planazo" data-name="Planazo" width="2000" height="2000" patternUnits="userSpaceOnUse" viewBox="0 0 2000 2000"><rect class="cls-1" width="2000" height="2000"/><path class="cls-2" d="M1186.9,2045.15a9.38,9.38,0,0,0,7.38,3.79,7.7,7.7,0,0,0,4.34-1.31,14.1,14.1,0,0,1,8.21-2.45,33.21,33.21,0,0,1,4.63.41l2.43.37a95.34,95.34,0,0,0,13.88,1.41c.72,0,1.43,0,2.11-.06,6-.31,10.35-5,10.74-11.58a50.93,50.93,0,0,0-.48-9.06c-.24-1.89-.58-3.76-.94-5.73-.41-2.25-.84-4.57-1.09-6.92-.21-2-.23-4.16,1.2-5.75a5.51,5.51,0,0,1,4.21-1.61,15.52,15.52,0,0,1,2.18.18c2.68.38,5.36.88,8,1.37,2.18.4,4.43.83,6.64,1.17a27.44,27.44,0,0,0,4,.32c4.93,0,8.89-1.57,11.44-4.53,2.86-3.33,3.9-8.26,3-14.26-.34-2.28-.78-4.61-1.2-6.87-.38-2-.76-4-1.09-6.08-.49-3.07-.77-5.76.82-7.62a5.8,5.8,0,0,1,4.63-1.73,26.94,26.94,0,0,1,3.5.28c2.16.28,4.31.66,6.38,1a77,77,0,0,0,10.35,1.36l.89,0c4.66,0,8.44-1.46,10.93-4.22s3.7-7.08,3.17-12.1c-.36-3.52-1-7.11-1.7-10.58-.24-1.27-.48-2.53-.71-3.8-.67-3.77-.76-6.48.83-8.39a6.29,6.29,0,0,1,5-1.91,25.25,25.25,0,0,1,4,.4c1.58.25,3.17.55,4.7.84a83.94,83.94,0,0,0,10.78,1.53l1.33,0c4.51,0,8.15-1.31,10.52-3.8s3.67-6.58,3.42-11.48a63.6,63.6,0,0,0-1.14-8.29c-.39-2.13-.78-4.32-1-6.54l0-.36c-.32-2.74-.71-6.14.67-8.87,2.31-4.61,3-7.88,2.2-10.27-.74-2.18-2.91-4.13-6.8-6.09h-4.4a16.87,16.87,0,0,0-8,7.95v0l0,0c-2.48,4.94-3.22,10.65-2.34,18,.18,1.5.38,3,.59,4.62.1.71.2,1.44.3,2.2l.46,3.55-3.54-.58a79.57,79.57,0,0,0-12.57-1.31c-7.38,0-12.69,2-17.24,6.53-7.9,7.85-7.13,17.74-5.31,29.85l.53,3.51-3.52-.48a96.54,96.54,0,0,0-12.62-1.16c-7.43,0-12.74,2-17.21,6.39-8.3,8.2-6.89,18.81-5.39,30l.47,3.51-3.51-.53a85.76,85.76,0,0,0-12.6-1.25c-7.47,0-12.82,2-17.35,6.58-8,8.08-6.73,18.33-5.36,29.17l.07.59.43,3.36-3.36-.38c-1.23-.14-2.41-.28-3.55-.43-2.45-.31-4.76-.6-7-.7-.64,0-1.28,0-1.89,0-7.34,0-13,2.12-17.38,6.49A9.37,9.37,0,0,0,1186.9,2045.15Z"/><path class="cls-2" d="M1080.82,1996.73l-.67-.68a24.59,24.59,0,0,0-2.83-2.58,9.79,9.79,0,0,0-5.7-2.12,7,7,0,0,0-4.19,1.43,17.44,17.44,0,0,0-5.43,7.57c-29.84,79.37-60.07,159.88-89.84,239.28-3.64,9.67-7.3,19.48-10.91,29.17-1.47,4-.82,7.28,2,10.12a8.75,8.75,0,0,0,6.38,2.88,11.38,11.38,0,0,0,3.74-.7c.73-.26,1.45-.53,2.21-.82l1.11-.42,209-78.39,16.57-6.22c13.56-5.1,27.58-10.37,41.4-15.49,4.42-1.64,6.76-4.45,7.14-8.57,0-3.83-1.66-6.22-4.72-9.27Zm-60,246.59-29.49,11.11-5.48,2.06,2-5.49,13-34.58,1.77-4.72,2.9,4.12,16.53,23.48,2,2.81Zm73.19-27.41-5.93,2.22-21.74,8.15-5.32,2c-4.24,1.59-8.63,3.23-12.89,4.95a8.21,8.21,0,0,1-3.1.69,6.46,6.46,0,0,1-5-2.67,191.77,191.77,0,0,1-26.47-40.61,9.06,9.06,0,0,1-.52-6.52c9-24.08,18.09-48.48,27.13-72.53a6.54,6.54,0,0,1,.87-1.53c.14-.22.32-.47.52-.79l3.58-5.62,1.28,6.54c7.49,38.4,23.56,71.55,49.13,101.34l3.76,4.38Zm75.74-28.41-36.56,13.76c-1.25.47-2.53.93-3.76,1.37-2.44.87-5,1.77-7.32,2.79a8.27,8.27,0,0,1-3.36.79,6.93,6.93,0,0,1-5.18-2.6,196.32,196.32,0,0,1-48.9-98.37,174.59,174.59,0,0,1-2.51-48.89,31.8,31.8,0,0,1,1.66-7.58c2.32-6.43,4.69-12.74,7.21-19.42l2.92-7.79,1.45-3.87,2.92,2.93,21.06,21.09,7.19,7.2c5.76,5.8,11.73,11.8,17.71,17.58a14.56,14.56,0,0,1,4.68,9.62,210.71,210.71,0,0,0,28.93,87.23c2.74,4.62,5.69,9,8.82,13.69,1.42,2.12,2.88,4.31,4.33,6.52l1.81,2.78Zm50-18.78-5.3,2c-6.17,2.36-12.56,4.8-19,7a3.94,3.94,0,0,1-1.25.2c-2.23,0-4.67-1.8-5.69-3.08a194.19,194.19,0,0,1-34.1-65.64c-.53-1.78-1-3.6-1.48-5.36l0-.1a3.13,3.13,0,0,1,.48-2.67l.8-1h2.5l.8.9a2,2,0,0,1,.26.35l63,63,2.91,2.92Z"/><path class="cls-2" d="M1151.55,2006.43a11.17,11.17,0,0,0,7.75-3.64c1.17-1.2,2.39-2.44,3.53-3.68,22.82-24.8,34.58-51.67,35.93-82.15-.41-2.45-.79-4.93-1.16-7.33-.89-5.84-1.81-11.89-3.21-17.64-1-4.2-5-6.08-8.48-6.08a10,10,0,0,0-2.88.42,9.39,9.39,0,0,0-6.23,11.12c.13.62.26,1.24.4,1.87a81,81,0,0,1,1.52,8.59c2.15,21.6-3.42,42.4-16.56,61.82a184.39,184.39,0,0,1-14.21,17.66l-2.1,2.41c-4,4.63-4.27,10.22-.55,13.91A8.81,8.81,0,0,0,1151.55,2006.43Z"/><path class="cls-2" d="M1126.27,1947h.19a9.5,9.5,0,0,0,9.28-9.19v-.18a9.15,9.15,0,0,0-9.14-9.17h-.15a9.17,9.17,0,0,0-9.33,9A9.35,9.35,0,0,0,1126.27,1947Z"/><path class="cls-2" d="M1245.19,1929.92h.15a9,9,0,0,0,9.12-9.36h0v0a9.3,9.3,0,0,0-9.26-9.1h-.15a9.26,9.26,0,0,0,.14,18.52Z"/><path class="cls-2" d="M1330.09,1996.26h-.15a9.29,9.29,0,0,0-9.14,9.4,9.32,9.32,0,0,0,9.28,9.16h.1a9.29,9.29,0,0,0-.09-18.57Z"/><path class="cls-2" d="M575.48,1988.89c-3.66-18.13-2.4-37.05,7.82-54.65,13.76-23.68,39.26-26.91,58.67-7.62,23.15,23,27.35,67.17,9,94.11-14.07,20.61-38,23-55.8,5.56C585,2016.32,579.11,2004,575.48,1988.89Zm70.06-24.33c-2-10.06-8.31-21.66-15.36-28.34-9.63-9.11-21.09-9.64-28.87-.75a44.72,44.72,0,0,0-8,13c-7.38,19.14-5.63,37.94,4,55.85a46.79,46.79,0,0,0,10.06,12.49c11,9.88,23.87,7.52,31.64-5.38C647.82,1996.75,648.81,1981,645.54,1964.56Z"/><path class="cls-2" d="M457.12,2010.14c-3.62-17-3.73-31.86,2.79-46.19,9.13-20.07,29.36-27.12,48.92-16.92,15,7.82,24.93,20.35,31.53,35.6,7,16.2,9.4,33,4.86,50.32-2.66,10.18-7.48,19.24-16.66,25.11-10.54,6.74-21.71,6.33-32.75,1.51-17.2-7.51-27.75-21.35-34.78-38.2C459.25,2017.1,458,2012.63,457.12,2010.14Zm14.56-5.77c.51,2.2.84,4.46,1.55,6.59,4.55,13.59,12.1,25,24.4,32.8,8.93,5.66,18.12,5.71,24.53.27,4.68-4,7.17-9.34,8.55-15.15,3.82-16.15.8-31.4-6.92-45.77-5.57-10.35-13.17-18.88-24.26-23.75-9.17-4-18.3-1.44-23.63,6.91C468.26,1978.25,468.92,1991.25,471.68,2004.37Z"/><path class="cls-2" d="M768.25,2036.24c3.43,25.32-2.8,50-25.85,67.89-22.63,17.63-51.46,8.79-61.64-18-10-26.32-1.79-59.1,19.36-77.34,13.94-12,31.68-14.71,45.66-6.75C758.07,2009,764.26,2020.3,768.25,2036.24Zm-15.58-.6c-.64-1.75-1.32-4-2.28-6.21-7.7-17.35-22.63-21.69-38.19-10.86-9.81,6.82-15.27,16.84-18.31,28.08-3.65,13.45-3.58,26.74,3.68,39.28,6,10.31,17.47,15.17,27.51,10.53,5.43-2.51,10.95-6,14.82-10.45C752.34,2071.72,756.05,2054.76,752.67,2035.64Z"/><path class="cls-2" d="M1934.2,2134.23c-.36-6.69-1-13.37-1-20.06-.14-59.41,37.82-113.68,93.76-134.22,72.82-26.74,153.67,9.37,182.19,81.36a143.14,143.14,0,0,1-37.45,159.55,4.45,4.45,0,0,0-1.38,2c1.35-.28,2.7-.54,4-.83a181.69,181.69,0,0,1,80.7,1c3.77.9,7.1,2.22,9.45,5.42l1,4.65-5.1,7.72-4.67.95c-.06-.07-.12-.19-.2-.21a159.11,159.11,0,0,0-72.66-3c-25.61,5-51.12,10.36-76.67,15.63-12,2.47-24.14,3.85-36.34,2.87-58.53-4.72-100.41-33.59-125.16-86.83-2.77-6-4.58-12.37-6.84-18.57Zm264.68-45.07c-13.8-67.64-80-111.52-147.51-97.74-67.7,13.83-111.62,80.08-97.93,147.75s80.27,111.61,148.1,97.78C2169,2223.19,2212.69,2156.82,2198.88,2089.16Z"/><path class="cls-2" d="M-65.8,2134.23c-.36-6.69-1-13.37-1-20.06C-67,2054.76-29,2000.49,26.91,1980c72.82-26.74,153.67,9.37,182.19,81.36a143.14,143.14,0,0,1-37.45,159.55,4.45,4.45,0,0,0-1.38,2c1.35-.28,2.7-.54,4-.83a181.69,181.69,0,0,1,80.7,1c3.77.9,7.1,2.22,9.45,5.42l1,4.65-5.1,7.72-4.67.95c-.06-.07-.12-.19-.2-.21a159.11,159.11,0,0,0-72.66-3c-25.61,5-51.12,10.36-76.67,15.63-12,2.47-24.14,3.85-36.34,2.87-58.53-4.72-100.41-33.59-125.16-86.83-2.77-6-4.58-12.37-6.84-18.57Zm264.68-45.07c-13.8-67.64-80-111.52-147.51-97.74-67.7,13.83-111.62,80.08-97.93,147.75s80.27,111.61,148.1,97.78C169,2223.19,212.69,2156.82,198.88,2089.16Z"/><path class="cls-2" d="M900.64,1369.58c-5.52,5.32-5.46,8.07-1.7,15,3.92,7.24,7.78,14.68,10.29,22.47,3.94,12.24,1.67,24.28-5.34,34.89-10,15.09-21.83,29-28,47.24-2.59-4.13-4.57-7.37-6.6-10.59-10.77-17.09-24.92-30.81-41.74-41.9-3.81-2.48-7.61-4.16-11.87-1.27s-3.94,6.78-3.1,11.12c5,26,6.83,52.1.73,78.26-2.27,9.73-4.68,19.48-6,29.36-4.19,31.06,4.11,59.44,19.4,86.15.75,1.31,1.56,2.58,2.85,4.71-17-2.19-31.93.39-44.55,11.32a49.71,49.71,0,0,0-16,26.3c-4.36,17.56,1,43.34,28.28,57.1a13.72,13.72,0,0,1-1.41,1.34c-22.6,16.25-28.84,44.46-14.88,67.41,13.66,22.45,41.62,30,66.09,17.92q69.78-34.74,139.72-69.19a19.31,19.31,0,0,1,9.31-1.87c52.16,3.18,104.3,6.63,156.46,9.86,30.43,1.9,54.12-21,53.69-51.46a11.84,11.84,0,0,1,.33-2l-2.54-12.63c-3.53-5.62-6.51-11.71-10.72-16.78-7.42-9-17.51-13.84-29.16-16,16.29-20.84,19.53-43,3.41-64.13-18.63-24.44-43.15-25.39-68.26-12.17,0-13.41.26-26.92,0-40.42-.11-6.24-4.49-10-9.8-9.42-4.89.58-7.8,4.84-7.24,10.77,1.49,15.8.61,31.41-3.68,46.72a8.51,8.51,0,0,1-3.7,4.62c-6.65,3.61-13.48,6.87-20.27,10.21-5,2.47-10.11,4.86-15.73,7.56-.9-14.94-5.39-27.81-14.25-39.07a78.75,78.75,0,0,1-15-32.85c-1-4.95-1.91-10.28-8.22-11.16-6.15-.85-9,3.69-11.24,8.23-3.45,7-6.46,14.21-9.21,20.31-4-2.31-8.57-4.93-13.12-7.62-6.44-3.82-9-9.7-8.78-17a65.22,65.22,0,0,1,.84-6.79c.57-4-.82-7.09-4.26-9.07s-6.62-1.41-9.65.82c-10.38,7.61-18.39,17.09-22.93,29.28-.47,1.24-1,2.47-1.66,4.1-1.79-6.07-4.34-8.68-8.59-8.85-4.92-.19-7.5,2.84-9.17,7-.43,1-.94,2.08-1.4,3.12-8.79,19.86-14.69,40.37-12.4,62.33.9,8.6,3.29,17,5.05,25.8a14.93,14.93,0,0,1-2.11.21c-13-.81-25.94-1.58-38.9-2.51a5.51,5.51,0,0,1-3.5-1.88,128.17,128.17,0,0,1-26.86-68c-1.4-14.6,1.83-28.7,5.24-42.74,4.25-17.46,6.36-35.12,5.34-53.07-.33-5.88-.91-11.75-1.44-18.45,1.84,1.66,3,2.67,4.13,3.74,14.76,14.1,25,31.06,31.69,50.26,1.67,4.72,4.79,6.87,8.93,6.48,4.39-.43,6.92-3.07,7.89-7.28,5-21.56,15-40.55,28.8-57.84,8.55-10.74,14-23.24,13.72-37.13-.16-9.25-2.36-18.46-3.62-27.47,1.18.51,3.29,1.35,5.31,2.35,36.68,18.08,53.42,49.22,57.33,88.47.81,8.2.25,16.54.21,24.81,0,3.59,1,6.93,4.42,8.06a13.94,13.94,0,0,0,8.5-.19c1.8-.64,3.21-3.13,4.26-5.09a137.48,137.48,0,0,0,16.57-61.51c.25-7.57-.38-15.16-.62-23.5,4.54,5.11,8.89,9.47,12.63,14.29,6.74,8.68,13.23,17.56,19.56,26.53,2.88,4.07,5,8.64,7.75,12.83a8.33,8.33,0,0,0,10.53,3.2,8.42,8.42,0,0,0,4.84-9.54,21.89,21.89,0,0,0-2.24-5.06c-16.6-30.06-39.78-54.61-65-77.48-3.45-3.14-7.59-3.26-11-.75s-4.45,6.57-2.5,11.14a106.41,106.41,0,0,1,8.87,41.67c0,7-.71,14-1.13,21.61-1.08-.78-1.25-.83-1.26-.92-.3-1.1-.59-2.21-.85-3.32-9.89-40.67-33.92-69.22-72.93-84.79-7.11-2.84-14.58-4.81-21.88-7.17Zm-57.52,366.88c4.48-2.26,8.62-4.38,12.8-6.44l180.33-89.3c25.19-12.48,50.34-25,75.55-37.5,22.51-11.13,46.77,2,48.52,26.45,1,13.29-4.69,24-16.45,30.2-18.15,9.63-36.75,18.41-55.16,27.54L875.82,1793c-1.1.55-2.26,1-3.81,1.69C876.34,1768.26,866.73,1749.13,843.12,1736.46Zm82-128a31,31,0,0,0,5.44,4.82c3.57,2.64,7.54,2.59,10.7.08a8.42,8.42,0,0,0,2.16-10.8c-4.85-9.79-7.84-20.1-6.34-31,.83-6.08,3.18-12,4.85-17.91l1.5.1a7.76,7.76,0,0,1,.71,1.17c3.31,8.51,9.26,14.67,17.16,19,10.45,5.74,16.92,14.66,20.81,25.69.14.4.27.81.41,1.22,2.3,6.68,6.33,9.27,11.67,7.49,5-1.67,6.53-6.09,4.68-12.79a49.94,49.94,0,0,1-.67-24.08c5.7,8.71,11.67,17.4,17.19,26.38,5.34,8.68,6.86,18.4,6.18,28.44a5.42,5.42,0,0,1-2.59,3.77q-22.77,11.43-45.68,22.6a10.17,10.17,0,0,1-4.85,1c-16.68-1-33.34-2.15-50-3-3.26-.17-4.71-1.58-5.89-4.33-6.77-15.81-7.8-40.14-2.39-56.39C915.07,1596.14,920,1602.39,925.07,1608.51ZM831,1723.2a31.52,31.52,0,0,1-36.49-6,32.67,32.67,0,0,1-7.07-36c5.29-12.28,17.6-20.42,31-19.64,36.44,2.12,72.91,4.53,109.37,6.84a49.31,49.31,0,0,1,10.7,1.53c-10.63,5.28-21.42,10.25-31.82,15.95a34.13,34.13,0,0,1-20.39,4.09c-17.19-1.49-34.45-2.31-51.69-3.37-6.64-.4-10.52,2.53-10.86,8.06-.31,5.16,3.38,8.56,9.72,9q13.68.84,27.34,1.76c1.2.06,2.4.3,4.88.64C853.39,1712.14,842.22,1717.69,831,1723.2Zm319.08-39.55h0a32.6,32.6,0,1,1-25.51,38.19,32.6,32.6,0,0,1,25.51-38.19ZM817,1750.57a32.6,32.6,0,0,1,12.79,63.93h0A32.6,32.6,0,0,1,817,1750.57Zm206.61-10.79a7.91,7.91,0,0,1-.19-.81l87.34-43.27c-6.63,17.86-4.85,34.15,6,50Z"/><path class="cls-2" d="M1080.6,1502.54a8.65,8.65,0,0,0-6.86,9.85l.09.48a8.42,8.42,0,0,0,10,6.44,8.59,8.59,0,0,0,6.71-10A8.81,8.81,0,0,0,1080.6,1502.54Z"/><path class="cls-2" d="M1026.36,1691.55l66.35-32.9c8.44-4.19,16.93-8.26,25.31-12.55,4.73-2.42,6.36-7.3,4.24-11.54-2.28-4.56-7-6-12-3.73-.91.41-1.81.85-2.7,1.3l-61,30.26c-10,4.95-20,9.82-29.9,14.86a8.49,8.49,0,0,0-4.51,10.43,8.87,8.87,0,0,0,10.34,5.63C1023.51,1692.85,1024.94,1692.25,1026.36,1691.55Z"/><path class="cls-2" d="M908.43,1749.9q18.83-9.23,37.61-18.53c10.35-5.13,20.72-10.21,31-15.52a8.3,8.3,0,0,0,4.05-11.25c-1.84-4.17-6.44-5.89-11.22-4.11a26.66,26.66,0,0,0-2.71,1.26l-41.41,20.52c-8.94,4.44-17.92,8.78-26.79,13.37-4.45,2.3-5.86,6.46-4.17,10.83,1.53,3.92,5.45,6,10.42,4.92C905.85,1751.09,907.16,1750.54,908.43,1749.9Z"/><path class="cls-2" d="M672.49,453.09c-13.24,5.75-26.44,11.59-39.76,17.16-4.94,2.07-7.32,5.26-7.53,10.64-.3,7.77-1.11,15.53-1.63,23.29-.43,6.52,2.53,10,9,10.63,2.3.23,4.62.34,7.34.54-.58,7.94-1.17,15.54-1.7,23.15a26.42,26.42,0,0,0-.07,4.79c.5,4.42,2.83,6.93,7.21,7.65,2.29.38,4.64.38,7.24.57l-8,109.25c-3.17-.23-6.21-.5-9.26-.68-6.6-.39-10,2.49-10.53,9-.74,9.24-1.37,18.48-2,27.72l-.34,4.6c-4.62-.34-9-.68-13.39-1-7.67-.53-10.93,2.25-11.52,9.95q-1.44,18.86-2.77,37.71c-.55,7.7,2.31,11,9.91,11.6L961.34,786c6.54.48,8.57-.84,11.53-7.33L976.08,735c-1.38-5.91-5.19-8.44-11.19-8.44-4,0-8.07-.53-12.6-.86l.64-8.72c.57-7.76,1.18-15.52,1.71-23.28.48-7-2.4-10.29-9.46-10.87l-8.81-.64,8-109.07c1.63.12,3.32.28,5,.37,7,.37,10.37-2.49,10.93-9.46.65-8.12,1.2-16.23,1.84-24.95l6.27.46c7.68.53,11-2.3,11.6-9.89s.91-15.06,1.73-22.54c.59-5.36-1.37-8.83-5.91-11.62Q913.43,456.79,851,418l-38-23.65L808.6,394Q740.55,423.58,672.49,453.09ZM641.15,677.6l296.27,21.8-.68,9.23c-.53,7.15-1.08,14.3-1.58,21.44-.55,8.12,2,11.15,10,11.78,4.29.33,8.56.63,13,.95l-1.89,25.65L612.09,743.11,614,717.48l4.79.35,252.12,18.55a38.84,38.84,0,0,0,5.17.17,8.19,8.19,0,0,0,1.41-16.13,33.56,33.56,0,0,0-5.14-.59q-114-8.42-228.09-16.81l-4.94-.37ZM642,486.08c.46-1.61,3.61-2.6,5.71-3.5,1-.42,2.43.07,3.66.16q109.23,8.06,218.47,16.06a26.59,26.59,0,0,0,6.24-.17,8.11,8.11,0,0,0,1.23-15.49,25.15,25.15,0,0,0-6.15-1.11q-92.6-6.86-185.2-13.66l-3.92-.29-.14-.63c1.16-.56,2.3-1.14,3.47-1.65q60.48-26.15,120.88-52.48a6.07,6.07,0,0,1,6.4.54q74.31,46.29,148.76,92.34c2.58,1.59,3.62,3.2,3.15,6.19s-.52,6.32-.77,9.68L640.82,498.3C641.13,494.08,640.89,489.89,642,486.08Zm81,70.74c6.17.18,9.46-2.59,10.11-8.77.53-5.16.8-10.35,1.18-15.52l.72-9.87L753.56,524,752,545.73c-.81,11.09.73,13,11.71,14.11.83.09,1.65.32,2.64.52l-8,108.48-49.07-3.61,8-108.82C719.37,556.56,721.2,556.76,723,556.82Zm107.56,7.9c2.16.16,4.22.42,6.27.46,6,.13,9.2-2.7,9.72-8.71.63-7.25,1.11-14.52,1.64-21.79.09-1.2.28-2.39.45-3.76L867,532.28l-1,13.22c-.27,3.69-.57,7.39-.81,11.08-.5,7.5,2.29,10.78,9.67,11.44,1.57.13,3.14.23,4.88.35l-8,108.83-49.2-3.62Zm-17.06-1-8,108.56-30.12-2.22,8-108.56Zm-113.65-8.4-8,108.7-29.9-2.2,8-108.7ZM889,678.52l8-108.57,30,2.2-8,108.59ZM770.34,525.21l61.22,4.51-1.33,18L769,543.22ZM716.7,539.42l-61-4.48,1.33-18.06,61,4.49Zm167.3-5.9L945,538l-1.33,18-61-4.49Z"/><path class="cls-2" d="M902.41,738.63a8.41,8.41,0,0,0,9-7.76,8.37,8.37,0,0,0-16.68-1.19,8.34,8.34,0,0,0,7.54,8.94Z"/><path class="cls-2" d="M910,493.12a8.29,8.29,0,0,0-16.55-.94,8.35,8.35,0,0,0,7.5,8.91h0a8.41,8.41,0,0,0,9-7.82S910,493.17,910,493.12Z"/><path class="cls-2" d="M1124.83,752.21c-3.47,0-5.95-1.13-7.79-3.56l-.13-.17-.37-4.32.08-.17c2.25-5,6.81-5.36,10.9-5.36h.14c2.83,0,4.22-1,5.36-3.87,2.73-6.78,5.6-13.63,8.39-20.25,3.12-7.44,6.35-15.13,9.38-22.75,4.44-11.19,10.81-19.39,19.47-25,4.53-3,7.6-7,10-13.17,11.46-29.92,23.23-60.29,34.62-89.65q9-23.22,18-46.43c1.73-4.45,4.9-10.37,12.47-10.37h.17a19.77,19.77,0,0,1,8.48,2.53,61.22,61.22,0,0,1,6.75,4.19c.78.53,1.56,1.06,2.38,1.6.06-.15.12-.31.17-.46.32-.82.61-1.6.86-2.37l3.13-9.59c3.66-11.22,7.44-22.82,11.08-34.26,1.78-5.56,4.56-9.54,8.74-12.51.78-.55,1.42-2.52,1.3-4-1.77-20.32-3.67-41-5.51-60.93l-1.22-13.21c-.16-1.78-.33-3.56-.5-5.34-.34-3.64-.68-7.28-1-10.92-.47-5.53,1-8.45,4.84-9.46a6.43,6.43,0,0,1,1.65-.23c2.62,0,4.81,1.81,6.85,5.69l19.91-1.83,7.7-.74c7-.68,14.17-1.38,21.27-1.77h.39c2.37,0,5.62,1.13,7,3s.72,5.68-.16,7.63c-1.73,3.82-3.73,7.41-5.85,11.2q-1.12,2-2.24,4.05c1,1.18,1.92,2.34,2.88,3.51,2.63,3.16,5.35,6.43,7.71,9.88,1.28,1.87,2.64,5.53,1.64,7.78s-4.34,3.86-6.82,4.13C1335.57,406,1324.09,407,1313,408l-11,1-3.85.36c0,.27,0,.53,0,.78a20.91,20.91,0,0,0,0,2.28q.58,6.53,1.19,13c.77,8.32,1.57,16.94,2.29,25.41.2,2.14.66,3.21,2.85,3.94,5.39,1.76,8.49,6.11,11,10.54,20.46,35.69,41.18,71.75,61.58,107.17.53.92,1.06,1.82,1.46,2.5l.1.17c1.18-.38,2.34-.79,3.46-1.19a35.92,35.92,0,0,1,8.67-2.33,16.19,16.19,0,0,1,1.69-.08c5.85,0,10.89,2.86,15.85,9q17,21.12,34.07,42.19c20,24.72,40.62,50.27,60.82,75.5,2.5,3.11,4.84,5.18,8.2,5.18a10.49,10.49,0,0,0,2.9-.44,9.28,9.28,0,0,1,2.51-.36,8.75,8.75,0,0,1,7,3.8l.13.17.4,4.38-.09.19c-2,4-5.7,4.89-9,5.2-128.83,11.79-259.52,23.81-388.43,35.72C1126.12,752.18,1125.45,752.21,1124.83,752.21Zm22-15.49h.79l15.1-1.38c16.73-1.53,34-3.11,51-4.79a7.57,7.57,0,0,0,4.12-2.42c6-6.08,12.06-12.32,17.91-18.35l7.64-7.87c8.11-8.35,16.41-14.46,25.38-18.68l.42-.19c18.59-8.76,37.82-17.82,56.85-26.5,10.33-4.71,17.58-11.78,22.14-21.63,2.42-5.23,5.07-10.45,7.64-15.5l.47-.93c1.65-3.25,4-5,6.71-5a6.59,6.59,0,0,1,2.9.71c3.77,1.85,4.65,5.57,2.42,10.2-1.3,2.69-2.66,5.4-4,8-1.49,3-3,6-4.48,9.1a55.12,55.12,0,0,1-27.67,27c-5.8,2.64-11.69,5.39-17.38,8l-6.41,3c-3.14,1.46-6.27,2.95-9.39,4.44-6.7,3.18-13.62,6.47-20.56,9.41-14.14,6-24.56,16.86-34.64,27.36-2,2.12-4.13,4.3-6.23,6.42a18.22,18.22,0,0,1-1.46,1.2l255.32-23.48a4.05,4.05,0,0,0-.36-.53q-47-58.18-94-116.33c-1.69-2.08-3.58-3.18-5.47-3.18-2.29,0-4.39,1.63-5.92,4.59-.6,1.17-1.17,2.4-1.73,3.58a49.78,49.78,0,0,1-3.78,7.09,8.3,8.3,0,0,1-5.87,3.34h-.2a7.39,7.39,0,0,1-5.62-4.1c-.57-1.64,0-3.55.47-5.4.16-.6.32-1.17.44-1.72a10,10,0,0,1,.7-1.93c.27-.61.72-1.62.58-1.89-3.23-6-6.58-11.77-10.13-17.89l-3-5.16-.12.12c-.39.38-.67.66-.93,1-5.06,5.65-10.12,8.4-15.46,8.4-4.42,0-9-1.86-14-5.69a7.35,7.35,0,0,0-4.35-1.67c-2.38,0-4.29,1.62-5.25,4.45s-1.86,5.84-2.72,8.7c-1.32,4.39-2.68,8.92-4.36,13.27-1.9,4.93-4.2,8.56-6.85,10.79a17.74,17.74,0,0,1-11.59,4.55c-5.57,0-11.16-2.87-15.74-8.06-4-4.55-8-9.11-12.05-13.75l-7.32-8.37-.15.42c-.34.94-.63,1.73-.89,2.54l-2.49,7.66c-2.49,7.64-5.06,15.55-7.53,23.35a56.52,56.52,0,0,1-20.4,28.72c-8.15,6.11-16.39,12.37-24.35,18.44s-16.09,12.23-24.17,18.29a38,38,0,0,0-12.74,16.42c-3.55,8.69-7.23,17.49-10.8,26q-2.77,6.64-5.54,13.28c-.26.66-.49,1.36-.73,2.1C1146.93,736.38,1146.88,736.55,1146.82,736.72Zm50.94-91.63c4.72-3.13,9.2-6.45,13.55-9.68,1.81-1.35,3.63-2.7,5.45-4A43.13,43.13,0,0,0,1233,608.57c4.35-13.9,9-28,13.44-41.58l3.11-9.46c1.27-3.93,3.63-6.09,6.64-6.09a7.15,7.15,0,0,1,2.18.36,6.15,6.15,0,0,1,3.77,3.07,8.58,8.58,0,0,1,.08,6.67,4,4,0,0,0,1,4.55c4.23,4.77,8.48,9.65,12.6,14.37q5.22,6,10.48,12c1.86,2.12,3.82,3.24,5.64,3.24,2.39,0,4.42-2,5.56-5.53.79-2.46,1.55-5,2.29-7.41,1.42-4.68,2.88-9.53,4.66-14.17a26.64,26.64,0,0,1,6.48-10.12,17,17,0,0,1,11.52-4.5,20.74,20.74,0,0,1,12.71,4.69c2.39,1.86,4.1,2.69,5.55,2.69,1.67,0,3.33-1.12,5.55-3.73.21-.25.4-.51.6-.77a11.43,11.43,0,0,1,1.54-1.74c1.73-1.49,1.81-2.72.32-5.28-14.86-25.67-29.87-51.74-44.61-77.5a18.83,18.83,0,0,0-2.61-3.78,5.73,5.73,0,0,0-8.08-.16,5.27,5.27,0,0,0-1,1.23,20.27,20.27,0,0,0-1.74,4.22q-9.7,29.91-19.35,59.77a26.33,26.33,0,0,1-1.39,3.8c-1.28,2.55-3.31,3.94-5.71,3.94h0a7.35,7.35,0,0,1-2.5-.47c-3.54-1.28-5-4.14-4.15-7.85.27-1.13.55-2.27.84-3.41l.25-1-12.66-8.15ZM1297,395.6l37.45-3.44-.8-1c-1.74-2.16-3.32-4.13-4.9-6.07a7.46,7.46,0,0,1-.79-8.94c1.06-1.94,2.1-3.91,3.19-6l1.16-2.2-37.53,3.43Z"/><path class="cls-2" d="M1286.6,352.9c2.41,0,4.44,1.8,6.43,5.73l20.39-1.87c9.65-.89,19.29-2,28.95-2.51h.35c2.24,0,5.22,1.11,6.36,2.72s.68,4.88-.23,6.9c-2.39,5.3-5.42,10.32-8.3,15.64,3.69,4.57,7.59,8.93,10.86,13.71,1.32,1.93,2.39,5.25,1.58,7.08s-4,3.45-6.23,3.69c-14.9,1.64-29.85,2.89-44.78,4.26l-4.53.42c0,1.52,0,2.67,0,3.8,1.16,12.81,2.39,25.62,3.48,38.45.22,2.35.81,3.72,3.34,4.57,5.07,1.65,8.06,5.72,10.64,10.2q30.74,53.63,61.59,107.18c.72,1.26,1.47,2.5,1.86,3.17,4.36-1.33,8.37-3.27,12.53-3.66.55,0,1.09-.08,1.62-.08,6.38,0,11.2,3.68,15.28,8.75,31.62,39.24,63.39,78.35,94.89,117.69,2.65,3.3,5.15,5.45,8.77,5.45a11.63,11.63,0,0,0,3.09-.46,8.46,8.46,0,0,1,2.32-.34,8,8,0,0,1,6.41,3.52l.36,4c-1.74,3.49-4.75,4.46-8.44,4.8Q1321,733.44,1126.81,751.38c-.68.06-1.34.1-2,.1-2.84,0-5.28-.74-7.2-3.28l-.34-3.91c2-4.51,6.12-4.93,10.24-4.93h.16c3.19,0,4.8-1.3,6-4.33,5.78-14.39,12-28.58,17.77-43,4-10.18,10-18.72,19.19-24.71,5.14-3.35,8.06-7.83,10.24-13.52,17.39-45.41,35.06-90.72,52.59-136.08,2.17-5.58,5.41-9.9,11.79-9.9h.16a19.57,19.57,0,0,1,8.16,2.45c3.29,1.67,6.27,4,9.83,6.26.5-1.38,1-2.54,1.36-3.72,4.75-14.61,9.55-29.21,14.21-43.86a22.41,22.41,0,0,1,8.47-12.13c1.1-.79,1.73-3.11,1.6-4.63-2.15-24.73-4.46-49.43-6.73-74.14-.5-5.42-1-10.84-1.5-16.26-.44-5.16.89-7.79,4.29-8.69a5.49,5.49,0,0,1,1.47-.21m9.77,43.5,39.54-3.64c-2.42-3-4.49-5.59-6.56-8.14a6.72,6.72,0,0,1-.72-8.12c1.63-3,3.18-6,5-9.4L1294,370.73l2.36,25.67M1264.3,540.59a6.48,6.48,0,0,1-2.25-.43c-3.12-1.13-4.51-3.58-3.69-7,.39-1.63.8-3.24,1.21-4.9l-13.85-8.93L1196.26,647c7.41-4.76,14.08-10,20.93-15a44,44,0,0,0,16.54-23.18c5.35-17.07,11-34,16.54-51,1.2-3.68,3.31-5.57,6-5.57a6.32,6.32,0,0,1,2,.32c3.44,1.07,4.87,4.39,3.37,8.81a4.71,4.71,0,0,0,1.16,5.27c7.75,8.73,15.36,17.59,23.08,26.34,2.06,2.34,4.22,3.49,6.19,3.49,2.65,0,5-2.07,6.25-6,2.33-7.19,4.25-14.52,7-21.55a26,26,0,0,1,6.28-9.84,16.31,16.31,0,0,1,11-4.31,20.12,20.12,0,0,1,12.27,4.54c2.41,1.88,4.28,2.85,6,2.85,2,0,3.84-1.32,6.11-4a21.13,21.13,0,0,1,2.06-2.43c2.27-2,1.89-3.76.48-6.2q-22.41-38.68-44.61-77.5a19.72,19.72,0,0,0-2.71-3.9,6.44,6.44,0,0,0-9.13-.2,6.81,6.81,0,0,0-1.1,1.39,21.59,21.59,0,0,0-1.81,4.39q-9.68,29.86-19.34,59.74a24.72,24.72,0,0,1-1.36,3.72c-1.15,2.29-2.91,3.52-5,3.52M1341.05,574c-4.27,0-8.75-1.85-13.59-5.54a8.06,8.06,0,0,0-4.8-1.82c-2.6,0-4.84,1.7-5.94,5-2.45,7.28-4.32,14.77-7.07,21.93-1.47,3.82-3.6,7.94-6.64,10.5a16.93,16.93,0,0,1-11.12,4.37c-5.31,0-10.68-2.7-15.19-7.81-6.64-7.53-13.24-15.13-20.19-23-.6,1.7-1.07,2.92-1.46,4.16-3.36,10.33-6.75,20.65-10,31a55.43,55.43,0,0,1-20.15,28.35c-16.23,12.17-32.29,24.56-48.52,36.74a38.77,38.77,0,0,0-13,16.72c-5.36,13.13-10.9,26.19-16.34,39.28-.43,1.1-.75,2.22-1.22,3.55a13.58,13.58,0,0,0,1.56.08h.24c22.07-2,44.14-4,66.2-6.17a8.5,8.5,0,0,0,4.56-2.63c8.59-8.68,17-17.48,25.55-26.23a86.81,86.81,0,0,1,25.17-18.52c19.06-9,38.1-17.95,57.27-26.7,10.23-4.66,17.77-11.78,22.49-22,2.57-5.54,5.34-11,8.1-16.41,1.55-3,3.72-4.64,6.06-4.64a5.74,5.74,0,0,1,2.57.64c3.35,1.63,4.16,4.94,2.09,9.22-2.77,5.74-5.71,11.38-8.46,17.13a54.09,54.09,0,0,1-27.3,26.62c-8,3.61-15.87,7.34-23.8,11-10,4.63-19.81,9.55-29.93,13.84-17.13,7.25-28.52,21.25-41.1,33.93a22.18,22.18,0,0,1-2.36,1.83l.85.68,257.13-23.65c-.48-.75-.71-1.22-1-1.61q-47-58.19-94-116.33c-1.88-2.32-4-3.45-6-3.45-2.49,0-4.88,1.7-6.57,5-1.83,3.53-3.25,7.33-5.47,10.58a7.55,7.55,0,0,1-5.26,3h-.16a6.73,6.73,0,0,1-5-3.61c-.66-1.91.45-4.47.93-6.72.32-1.5,1.72-3.39,1.21-4.33-4.3-8-8.93-15.77-13.6-23.89-.86.87-1.34,1.3-1.76,1.78-4.87,5.44-9.74,8.16-14.91,8.16m-54.45-222.6h0a7,7,0,0,0-1.84.25c-5.48,1.46-5.69,6.54-5.38,10.23s.66,7.3,1,10.85c.16,1.81.33,3.61.5,5.42l1.2,13.05c1.85,20,3.76,40.72,5.53,61.08a4.8,4.8,0,0,1-1,3.31c-4.32,3.07-7.19,7.16-9,12.89-3.65,11.48-7.45,23.12-11.13,34.39q-1.53,4.72-3.08,9.45c-.2.63-.44,1.27-.69,1.94-.55-.36-1.08-.73-1.61-1.09a62.21,62.21,0,0,0-6.83-4.23c-3.48-1.76-6.28-2.59-8.81-2.61h-.17c-8,0-11.35,6.18-13.15,10.83-6,15.47-12.07,31.18-18,46.38-11.4,29.38-23.18,59.77-34.64,89.71-2.3,6-5.28,9.94-9.67,12.81-8.79,5.75-15.25,14-19.75,25.39-3,7.62-6.26,15.3-9.38,22.74-2.78,6.62-5.66,13.47-8.39,20.25-1,2.58-2.16,3.41-4.65,3.41h-.16c-4.33,0-9.15.45-11.58,5.8l-.16.35,0,.38.34,3.91,0,.42.26.34a9.76,9.76,0,0,0,8.37,3.86c.65,0,1.34,0,2.11-.11,128.89-11.91,259.58-23.93,388.43-35.72,3.54-.32,7.44-1.24,9.62-5.6l.19-.37,0-.42-.36-4,0-.42-.26-.33a9.42,9.42,0,0,0-7.57-4.09,10.35,10.35,0,0,0-2.71.38,9.8,9.8,0,0,1-2.7.41c-2.69,0-4.76-1.32-7.62-4.9C1483.65,672.55,1463,647,1443,622.22c-11.15-13.79-22.67-28.06-34-42.1-5.11-6.34-10.33-9.3-16.42-9.3a17.44,17.44,0,0,0-1.76.09,36.69,36.69,0,0,0-8.84,2.37c-1,.33-1.91.68-2.88,1-.37-.63-.82-1.38-1.26-2.15-20.48-35.54-41.2-71.6-61.59-107.17-2.61-4.56-5.81-9-11.45-10.88-1.81-.6-2.16-1.32-2.34-3.31-.72-8.46-1.52-17.07-2.28-25.4q-.62-6.53-1.2-13.05c-.06-.67,0-1.38,0-2.21V410l3.19-.3,11-1c11.1-1,22.58-2,33.85-3.27,2.73-.3,6.36-2.2,7.41-4.56,1.17-2.65-.42-6.62-1.7-8.5-2.39-3.47-5.12-6.76-7.76-9.94-.84-1-1.71-2.06-2.56-3.11.66-1.22,1.34-2.43,2-3.62,2.13-3.8,4.14-7.4,5.88-11.24,1-2.18,1.65-6.22.08-8.38s-5-3.32-7.55-3.32h-.43c-7.12.4-14.33,1.1-21.3,1.78l-7.7.74-19.42,1.78c-1.45-2.64-3.7-5.64-7.27-5.64Zm9,20.61,35.45-3.24c-.18.34-.35.68-.53,1-1.09,2.08-2.12,4-3.18,6a8.13,8.13,0,0,0,.86,9.75c1.55,1.9,3.09,3.82,4.78,5.93l.06.07-35.35,3.25-2.09-22.75Zm-2.48,97.89a4.73,4.73,0,0,1,.84-1.05,5,5,0,0,1,7,.13,18.15,18.15,0,0,1,2.48,3.6v0l0,0c14.73,25.76,29.74,51.83,44.61,77.51,1.39,2.4,1.18,3.19-.17,4.35a11.76,11.76,0,0,0-1.64,1.86c-.19.25-.38.5-.59.74-2,2.43-3.54,3.47-5,3.47-1.28,0-2.85-.78-5.09-2.53a21.49,21.49,0,0,0-13.18-4.86,17.8,17.8,0,0,0-12,4.69,27.47,27.47,0,0,0-6.67,10.41c-1.79,4.66-3.26,9.52-4.68,14.22-.74,2.43-1.5,5-2.29,7.39-1,3.2-2.81,5-4.86,5-1.58,0-3.39-1.06-5.09-3-3.5-4-7-8-10.46-12-4.12-4.73-8.39-9.62-12.62-14.39a3.28,3.28,0,0,1-.87-3.83,9.3,9.3,0,0,0-.12-7.25,6.89,6.89,0,0,0-4.2-3.43,8,8,0,0,0-2.4-.39c-1.94,0-5.48.86-7.34,6.59q-1.55,4.73-3.1,9.45c-4.47,13.62-9.09,27.69-13.45,41.6a42.51,42.51,0,0,1-16,22.44c-1.83,1.33-3.67,2.7-5.45,4-3.75,2.78-7.59,5.63-11.59,8.37l47.15-121.63,11.46,7.38-.12.49c-.29,1.14-.57,2.28-.84,3.41-1,4,.74,7.31,4.61,8.71a8.07,8.07,0,0,0,2.75.51c2.69,0,5-1.53,6.35-4.32l0,0v0a28.1,28.1,0,0,0,1.43-3.91c6.41-19.85,12.92-39.94,19.33-59.71V474a20.06,20.06,0,0,1,1.68-4.07Zm47.92,105.56c5.57,0,10.8-2.82,16-8.65l.35-.37q1.27,2.19,2.52,4.36c3.52,6.06,6.84,11.79,10,17.71a7.66,7.66,0,0,1-.53,1.38,11.25,11.25,0,0,0-.75,2.08c-.12.53-.27,1.09-.43,1.68-.54,1.95-1.09,4-.46,5.82a8.14,8.14,0,0,0,6.28,4.6h.24a9,9,0,0,0,6.47-3.67,50.35,50.35,0,0,0,3.85-7.19c.55-1.18,1.12-2.39,1.71-3.55,1.4-2.71,3.27-4.2,5.27-4.2,1.66,0,3.36,1,4.9,2.91,31.14,38.5,62.62,77.45,93.6,115.79l-251.72,23.15c2-2,4-4.14,6-6.17,10-10.45,20.39-21.26,34.39-27.19,7-3,13.89-6.24,20.59-9.43,3.07-1.46,6.25-3,9.39-4.43l6.48-3c5.67-2.64,11.53-5.37,17.31-8a55.82,55.82,0,0,0,28-27.32c1.45-3,3-6.11,4.47-9.08,1.32-2.63,2.68-5.35,4-8,2.4-5,1.37-9.16-2.76-11.18a7.26,7.26,0,0,0-3.22-.78c-3,0-5.58,1.93-7.37,5.44l-.45.9c-2.57,5.06-5.23,10.3-7.67,15.55-4.48,9.68-11.61,16.64-21.77,21.27-19.08,8.71-38.37,17.79-57,26.57l-.27.13c-9,4.26-17.42,10.42-25.6,18.83l-7.61,7.84c-5.86,6-11.91,12.29-17.93,18.37a7,7,0,0,1-3.66,2.21c-17,1.68-34.32,3.26-51.06,4.79L1147.84,736c.18-.56.36-1.09.56-1.6q2.76-6.63,5.55-13.28c3.56-8.51,7.24-17.3,10.79-26a37.22,37.22,0,0,1,12.49-16.1c8.1-6.08,16.28-12.3,24.19-18.32s16.2-12.32,24.34-18.43a57.26,57.26,0,0,0,20.66-29.08c2.47-7.79,5-15.69,7.52-23.33.84-2.56,1.67-5.11,2.5-7.67.18-.57.39-1.15.61-1.77l6.48,7.41c4.15,4.74,8.06,9.22,12.07,13.77,4.72,5.36,10.51,8.31,16.29,8.31a18.5,18.5,0,0,0,12.08-4.73c2.73-2.3,5.1-6,7-11.08,1.68-4.37,3-8.92,4.37-13.31.86-2.86,1.75-5.82,2.72-8.69.85-2.5,2.5-3.94,4.55-3.94a6.58,6.58,0,0,1,3.91,1.52c5.16,3.92,9.9,5.83,14.48,5.83Z"/><path class="cls-2" d="M1602.66,1038.78c8.36-6.23,16.18-13.27,26.12-17.17,10.27-4,20.41-4.25,30.51.42,9.19,4.24,18.42,8.3,28.59,9.63,9.46,1.23,18.71.57,27.53-3.26,7.43-3.22,14.66-6.91,22.15-10q17.89-7.36,35.46,1.26c7.82,3.85,15.66,7.85,23.88,10.67,15.12,5.19,30,3.36,44.22-3.83,4.79-2.41,9.57-4.85,14.37-7.23,14.13-7,27.94-4.63,41.44,1.74,9.22,4.35,18.55,7.88,28.93,8a55.66,55.66,0,0,0,34.93-11.32c3.91-2.89,7.72-6,11.34-9.19,1.79-1.61,3-3.82,4.56-5.75v-3.75c-4.82-6.51-8.4-6.72-14.77-1.42-4.88,4.06-9.77,8.29-15.23,11.43-13.84,8-27.67,5.92-41.42-1,.3-1.14.49-2,.74-2.8q18.69-62.91,37.39-125.84c2-6.61,1.11-8.9-4.72-12.43-10.23-6.22-20.43-12.52-30.77-18.55-2.55-1.47-3.27-3.11-3.25-5.92.13-19.24.06-38.47.06-57.71,0-7.14-2.62-9.76-9.69-9.8h-12.79V761.38c0-16.24-.15-16.39-16.22-16.39h-14.88c0-6.89,0-13.36,0-19.83-.05-7.61-2.57-10.15-10.1-10.15h-33.76V665.07c0-7.41-2.54-10-9.85-10q-12.56,0-25.11,0c-7.4,0-10,2.55-10,9.86V715h-4c-10.25,0-20.49,0-30.73,0-6.17,0-8.89,2.72-9.1,8.87-.08,2,0,4,0,6V745h-21.09c-7.4,0-10,2.56-10,9.87V775h-11.88c-8.32,0-10.61,2.33-10.61,10.77,0,19.11,0,38.22.06,57.33a5,5,0,0,1-2.79,5.05c-10.32,6.07-20.53,12.34-30.77,18.55-6.34,3.84-7.17,5.94-5.08,12.93q18.39,61.85,36.76,123.69c.33,1.11.53,2.26.82,3.52-11.09-3-21.84-4.5-32.89-1.84-13.15,3.17-23.71,10.79-33.78,19.3-6.23,5.28-5.54,10.89,1.75,14.53Zm325.47-160.71q-18.36,61.81-36.66,123.31c-11.18-1.47-22.16-3.07-32.77.87a202.77,202.77,0,0,0-23.17,10.39c-13.7,7.16-27.3,6.71-41,.52a4.31,4.31,0,0,1-2.12-3.2q-.08-106.37-.06-212.74a7.39,7.39,0,0,1,.35-1.22l135.46,82.06ZM1777,796v208.16c-4.69-1.17-9.45-2.65-14.33-3.51-13.26-2.33-25.7.23-37.7,6.27-7.31,3.68-14.81,7.32-22.63,9.51-5.17,1.45-11.07.33-16.64.28-2.46,0-3.52-1.51-4.21-3.85q-10.89-37-21.86-73.88c-6-20.18-12-40.38-18.11-60.92Zm-74.43-35.82h164.55v14.53H1702.52Zm-22.43,77V790.22h77.45Zm209.54.05-76.7-46.47.24-.59h76.46ZM1836,744.69H1733.71V730.3H1836Zm-44-74.57v44.61h-14.46V670.12Z"/><path class="cls-2" d="M1892.38,875.3q-22.47-13.86-45-27.69a17.29,17.29,0,0,0-3.34-1.65,7.12,7.12,0,0,0-9.29,4.53c-1.34,3.8.13,7,4.71,9.82q22.42,13.89,44.92,27.71a16.45,16.45,0,0,0,3.7,1.74c4.73,1.44,9.25-1.91,9.33-7.28C1897.6,879.17,1895.27,877.08,1892.38,875.3Z"/><path class="cls-2" d="M1816,829.66a7.46,7.46,0,0,0,.43,14.92,7.5,7.5,0,0,0,7.18-7.24A7.77,7.77,0,0,0,1816,829.66Z"/><path class="cls-2" d="M1688.69,888.79q23.49-14.64,46.85-29.53c4.17-2.66,5.23-7,3-10.64s-6.79-4.52-10.9-2c-15.67,9.75-31.32,19.58-46.82,29.6-2,1.33-3.24,4-4.82,6C1676.78,889.06,1683.06,892.29,1688.69,888.79Z"/><path class="cls-2" d="M1750.23,836.54a7.58,7.58,0,0,0,7.42,7.41,7.7,7.7,0,0,0,7.44-7.44c-.06-3.8-3.84-7.55-7.52-7.46A7.53,7.53,0,0,0,1750.23,836.54Z"/><path class="cls-2" d="M1459.12,1812.07c1.07,2.07,1.73,4.56,3.29,6.17,29.8,30.74,62.55,57.59,101.67,75.85,38.54,18,78.69,25.18,121,18.14,2.17-.36,5,.58,6.93,1.78a190.23,190.23,0,0,0,63.09,24.63c7.12,1.39,12.46-1.32,13.66-6.86s-2.64-10.26-9.59-11.94c-5.86-1.42-11.82-2.59-17.52-4.52-8.75-3-17.31-6.47-27.14-10.2,2.1-1.15,2.71-1.57,3.4-1.85,12.92-5.28,25.77-10.8,38.83-15.75a140.85,140.85,0,0,0,56.78-39.77c3.42-3.91,6.61-8,10-12.17,33.5,15.49,62.14,37.29,88.66,63.2-4.35,1.66-7.89,3-11.45,4.37a343.43,343.43,0,0,1-61.41,16.87c-6.71,1.18-9.94,4.73-9.55,10.23.49,6.74,5.35,10.1,12.88,8.8,31-5.35,60.63-15.07,89.36-27.69,7.64-3.37,9.11-10.85,3.25-16.93-22.13-22.93-46.23-43.5-73.46-60.18-9-5.52-18.42-10.39-27.87-15.72.66-1.44,1.29-2.86,2-4.26,16.82-34.65,22.18-71.28,18.79-109.38-.78-8.77-6.26-12.35-14.57-9.54-9.61,3.26-19.18,6.69-28.63,10.43-7.73,3.08-15.27,6.7-23.16,10.2-.23-1.24-.46-2.14-.55-3.07-3.8-38.13-15.07-74.2-30.28-109.18-3.28-7.54-10.82-9.28-16.58-3.71-27.05,26.19-51,54.81-68.92,88.15-.78,1.44-1.67,2.81-2.7,4.53-1.44-1.57-2.35-2.68-3.37-3.65-12.32-11.9-24.5-24-37.06-35.6-6-5.53-12.72-4.07-16.51,3.19-16.09,30.78-24.79,63.46-24.74,98.31,0,5.16.36,10.33.55,15.41a10.85,10.85,0,0,1-1.85.51c-40.94,2.38-79.59,13.76-117,29.88-3.24,1.39-6.06,3.78-9.07,5.7Zm305.43-31.28c-9.55,41-30.1,75.19-65,99.89-1.56,1.1-3.17,2.12-4.77,3.16a14.12,14.12,0,0,1-1.64.73,132.18,132.18,0,0,1-16.86-30.09c-14.33-35.41-15.62-71.77-6.42-108.46,12.13-48.35,40.69-86.87,75-122.84C1764.71,1674.71,1777.23,1726.27,1764.55,1780.79Zm-156.1,51c11.09,18.83,25.5,34.72,42.4,48.5,5.36,4.37,10.17,9.43,16,14.86a156.65,156.65,0,0,1-41-1.67c-35.81-6.06-67.55-21.61-96.56-42.84-13.66-10-26.23-21.49-39.27-32.32-1.19-1-2.2-2.18-3.76-3.75,34.07-13.63,68.52-23.07,105.41-24.64A154,154,0,0,0,1608.45,1831.83Zm128.66,43c7.42-10.29,16.12-21,23.33-32.61,18.65-30.09,27.3-63.28,28.28-98.52.11-4.3,1.37-6.92,5.44-8.69,13.77-6,27.41-12.28,41.85-18.8C1839.21,1795.57,1795.33,1858.11,1737.11,1874.82ZM1625,1675.63c1.82,1.65,3.63,3.13,5.23,4.8,9.14,9.48,18.18,19,27.31,28.52,2.19,2.27,2.67,4.28,1.43,7.53-14.37,37.68-18.48,76.3-9.53,115.88,2.08,9.2,5.13,18.17,8,28.17-21.86-19.14-36.48-41.93-44.19-69.15-11.33-40-3.76-84.68,11.75-115.76Z"/><path class="cls-2" d="M1798.81,1944.26a9.48,9.48,0,0,0,11-7.68,9.57,9.57,0,0,0-18.77-3.71l-.06.34a9.43,9.43,0,0,0,7.56,11Z"/><path class="cls-2" d="M1186.9,45.15a9.38,9.38,0,0,0,7.38,3.79,7.7,7.7,0,0,0,4.34-1.31,14.1,14.1,0,0,1,8.21-2.45,33.21,33.21,0,0,1,4.63.41l2.43.37a95.34,95.34,0,0,0,13.88,1.41c.72,0,1.43,0,2.11-.06,6-.31,10.35-5,10.74-11.58a50.93,50.93,0,0,0-.48-9.06c-.24-1.89-.58-3.76-.94-5.73-.41-2.25-.84-4.57-1.09-6.92-.21-1.95-.23-4.16,1.2-5.75a5.51,5.51,0,0,1,4.21-1.61,15.52,15.52,0,0,1,2.18.18c2.68.38,5.36.88,8,1.37,2.18.4,4.43.83,6.64,1.17a27.44,27.44,0,0,0,4,.32c4.93,0,8.89-1.57,11.44-4.53,2.86-3.33,3.9-8.26,3-14.26-.34-2.28-.78-4.61-1.2-6.87-.38-2-.76-4-1.09-6.08-.49-3.07-.77-5.76.82-7.62a5.8,5.8,0,0,1,4.63-1.73,26.94,26.94,0,0,1,3.5.28c2.16.28,4.31.66,6.38,1a77,77,0,0,0,10.35,1.36l.89,0c4.66,0,8.44-1.46,10.93-4.22s3.7-7.08,3.17-12.1c-.36-3.52-1-7.11-1.7-10.58-.24-1.27-.48-2.53-.71-3.8-.67-3.77-.76-6.48.83-8.39a6.29,6.29,0,0,1,5-1.91,25.25,25.25,0,0,1,4,.4c1.58.25,3.17.55,4.7.84A83.94,83.94,0,0,0,1340-66.93l1.33,0c4.51,0,8.15-1.31,10.52-3.8s3.67-6.58,3.42-11.48a63.6,63.6,0,0,0-1.14-8.29c-.39-2.13-.78-4.32-1-6.54l0-.36c-.32-2.74-.71-6.14.67-8.87,2.31-4.61,3-7.88,2.2-10.27-.74-2.18-2.91-4.13-6.8-6.09h-4.4a16.87,16.87,0,0,0-8,7.95v0l0,0c-2.48,4.94-3.22,10.65-2.34,18,.18,1.5.38,3,.59,4.62.1.71.2,1.44.3,2.2l.46,3.55-3.54-.58a79.57,79.57,0,0,0-12.57-1.31c-7.38,0-12.69,2-17.24,6.53-7.9,7.85-7.13,17.74-5.31,29.85l.53,3.51-3.52-.48a96.54,96.54,0,0,0-12.62-1.16c-7.43,0-12.74,2-17.21,6.39-8.3,8.2-6.89,18.81-5.39,30.05l.47,3.51-3.51-.53a85.76,85.76,0,0,0-12.6-1.25c-7.47,0-12.82,2-17.35,6.58-8,8.08-6.73,18.33-5.36,29.17l.07.59L1221,28l-3.36-.38c-1.23-.14-2.41-.28-3.55-.43-2.45-.31-4.76-.6-7-.7-.64,0-1.28-.05-1.89-.05-7.34,0-13,2.12-17.38,6.49A9.37,9.37,0,0,0,1186.9,45.15Z"/><path class="cls-2" d="M1080.82-3.27l-.67-.68a24.59,24.59,0,0,0-2.83-2.58,9.79,9.79,0,0,0-5.7-2.12,7,7,0,0,0-4.19,1.43A17.44,17.44,0,0,0,1062,.35c-29.84,79.37-60.07,159.88-89.84,239.28-3.64,9.67-7.3,19.48-10.91,29.17-1.47,4-.82,7.28,2,10.12a8.75,8.75,0,0,0,6.38,2.88,11.38,11.38,0,0,0,3.74-.7c.73-.26,1.45-.53,2.21-.82l1.11-.42,209-78.39,16.57-6.22c13.56-5.1,27.58-10.37,41.4-15.49,4.42-1.64,6.76-4.45,7.14-8.57,0-3.83-1.66-6.22-4.72-9.27Zm-60,246.59-29.49,11.11-5.48,2.06,2-5.49,13-34.58,1.77-4.72,2.9,4.12,16.53,23.48,2,2.81ZM1094,215.91l-5.93,2.22-21.74,8.15-5.32,2c-4.24,1.59-8.63,3.23-12.89,4.95a8.21,8.21,0,0,1-3.1.69,6.46,6.46,0,0,1-5-2.67,191.77,191.77,0,0,1-26.47-40.61,9.06,9.06,0,0,1-.52-6.52c9-24.08,18.09-48.48,27.13-72.53a6.54,6.54,0,0,1,.87-1.53c.14-.22.32-.47.52-.79l3.58-5.62,1.28,6.54c7.49,38.4,23.56,71.55,49.13,101.34l3.76,4.38Zm75.74-28.41-36.56,13.76c-1.25.47-2.53.93-3.76,1.37-2.44.87-5,1.77-7.32,2.79a8.27,8.27,0,0,1-3.36.79,6.93,6.93,0,0,1-5.18-2.6,196.32,196.32,0,0,1-48.9-98.37,174.59,174.59,0,0,1-2.51-48.89,31.8,31.8,0,0,1,1.66-7.58c2.32-6.43,4.69-12.74,7.21-19.42l2.92-7.79,1.45-3.87,2.92,2.93,21.06,21.09,7.19,7.2c5.76,5.8,11.73,11.8,17.71,17.58a14.56,14.56,0,0,1,4.68,9.62,210.71,210.71,0,0,0,28.93,87.23c2.74,4.62,5.69,9,8.82,13.69,1.42,2.12,2.88,4.31,4.33,6.52l1.81,2.78Zm50-18.78-5.3,2c-6.17,2.36-12.56,4.8-19,7a3.94,3.94,0,0,1-1.25.2c-2.23,0-4.67-1.8-5.69-3.08a194.19,194.19,0,0,1-34.1-65.64c-.53-1.78-1-3.6-1.48-5.36l0-.1a3.13,3.13,0,0,1,.48-2.67l.8-1h2.5l.8.9a2,2,0,0,1,.26.35l63,63,2.91,2.92Z"/><path class="cls-2" d="M1348.16,47.18c-5.12-1.07-10.47-1.79-15.64-2.47L1328,44.1v.07l-2,.13c-1.26.08-2.54.15-3.78.21-2.65.14-5.4.28-8,.58C1286.59,48.26,1262,60.83,1239,83.53a9,9,0,0,0-2.93,7.6c.34,3.91,2.19,6.48,5.65,7.84a9.7,9.7,0,0,0,3.58.73c2.3,0,4.61-1,7.07-3,1.88-1.54,3.77-3.14,5.6-4.7,5.84-4.94,11.88-10.06,18.49-14.2,15.64-9.77,31.89-14.72,48.31-14.72a86.22,86.22,0,0,1,18.64,2.07,16.35,16.35,0,0,0,3.46.4c4.74,0,8.1-2.4,9.21-6.59a9.08,9.08,0,0,0-.89-7.29A10.33,10.33,0,0,0,1348.16,47.18Z"/><path class="cls-2" d="M1151.55,6.43a11.17,11.17,0,0,0,7.75-3.64c1.17-1.2,2.39-2.44,3.53-3.68,22.82-24.8,34.58-51.67,35.93-82.15-.41-2.45-.79-4.93-1.16-7.33-.89-5.84-1.81-11.89-3.21-17.64-1-4.2-5-6.08-8.48-6.08a10,10,0,0,0-2.88.42,9.39,9.39,0,0,0-6.23,11.12c.13.62.26,1.24.4,1.87a81,81,0,0,1,1.52,8.59c2.15,21.6-3.42,42.4-16.56,61.82A184.39,184.39,0,0,1,1148-12.61l-2.1,2.41c-4,4.63-4.27,10.22-.55,13.91A8.81,8.81,0,0,0,1151.55,6.43Z"/><path class="cls-2" d="M1322.36,124.21a9.18,9.18,0,0,0-9.16-9.13h0a9.46,9.46,0,0,0-9.38,9.23,9.12,9.12,0,0,0,2.72,6.58,9.36,9.36,0,0,0,6.61,2.83h.23a9.19,9.19,0,0,0,9-9.35v-.15Z"/><path class="cls-2" d="M1126.27-53h.19a9.5,9.5,0,0,0,9.28-9.19v-.18a9.11,9.11,0,0,0-2.67-6.48,9.1,9.1,0,0,0-6.47-2.69h-.15a9.17,9.17,0,0,0-9.33,9A9.35,9.35,0,0,0,1126.27-53Z"/><path class="cls-2" d="M1245.19-70.08h.15a9,9,0,0,0,9.12-9.36h0v0a9.3,9.3,0,0,0-9.26-9.1h-.15a9.27,9.27,0,0,0-9.11,9.41A9.3,9.3,0,0,0,1245.19-70.08Z"/><path class="cls-2" d="M1330.09-3.74h-.15a9.16,9.16,0,0,0-6.51,2.81,9.2,9.2,0,0,0-2.63,6.59,9.32,9.32,0,0,0,9.28,9.16h.1a9.29,9.29,0,0,0-.09-18.57Z"/><path class="cls-2" d="M1221.65,984.88c-8.59-35.22-32.84-62.63-66.54-75.19a108.67,108.67,0,0,0-101,13.36c-6.52,4.64-12.43,10.41-18.68,16.52-3,3-6.17,6-9.51,9.11l-1.24,1.14-1.37,1.25-1.35-1.26-1.24-1.16c-1-.91-2-1.92-3-2.9-2.32-2.27-4.72-4.62-7.33-6.72a105.63,105.63,0,0,0-66.84-23.45,112.66,112.66,0,0,0-14.75,1c-29.66,3.92-55.53,19.14-72.85,42.84-33.68,46.1-26,109.37,17.79,147.17q82.39,71,164.81,142c3.25,2.81,6,4.18,8.4,4.18,2.7,0,5.44-1.72,8.62-5.39l49.3-57.06q13.67-15.83,27.36-31.62c21.5-24.84,43.75-50.53,65.48-76C1222.37,1053.84,1230.43,1020.93,1221.65,984.88Zm-180.16,241.28c-.58-.46-1.17-.94-1.75-1.43-50.85-43.73-102.6-88.35-153.82-132.61a91.56,91.56,0,0,1-31.55-58.61,89.32,89.32,0,0,1,17.28-63.66c14.06-19,36-31.62,60.25-34.65a91.58,91.58,0,0,1,11.34-.71,88,88,0,0,1,55.53,19.39c4.34,3.53,8.6,7.24,12.72,10.82,2.44,2.13,5,4.32,7.5,6.47a11.27,11.27,0,0,0,7.26,3.06c2.8,0,5.53-1.43,7.9-4.12,2-2.33,4.09-4.75,6.07-7.09,3.48-4.12,7.09-8.38,10.91-12.39,12.38-13,26.3-21.73,41.37-26a82.07,82.07,0,0,1,22.43-3.07,99,99,0,0,1,26.12,3.68c33.68,9.25,55.48,32.56,63,67.39,6,27.72-.25,53.44-18.07,74.39-32.27,38-65.43,76.27-97.49,113.32l-.12.13,0,0c-12.87,14.87-26.17,30.24-39.23,45.37l0,0,0,0-.13.13,0,0,0,0a13.12,13.12,0,0,1-1.33,1.12l-2.72,2.06"/><path class="cls-2" d="M1162.67,960a11.31,11.31,0,0,0-7.5-3.16,8.8,8.8,0,0,0-6.65,3c-3.64,4-3.14,9.59,1.27,13.89,19.94,19.51,22,46.43,5.21,68.58-4,5.25-3.66,11.05.8,14.44a9,9,0,0,0,5.5,2c3.06,0,6.07-1.65,8.48-4.66,11-13.66,15.88-29.46,15-48.29C1182.92,986.86,1175.69,971.88,1162.67,960Z"/><path class="cls-2" d="M232.42,1454.05q14.36-44.44,28.7-88.91c.71-.5,1.37-1.37,2.13-1.45,2.29-.25,5.1-1,6.79,0s2.55,3.79,3.24,6c.34,1.09-.43,2.57-.83,3.83q-11.31,35.1-22.64,70.17l-1.13,3.53,12.7,4.1,1.17-3.62q11.37-35.25,22.75-70.48c1.67-5.15,5-7.44,9-6.17s5.35,5.1,3.72,10.25c-.2.64-.41,1.27-.62,1.9l-22.23,68.9-1.09,3.36,12.71,4.1,1.14-3.55q11.43-35.4,22.86-70.79c1.59-4.93,4.92-7.17,8.81-6s5.47,5.08,3.86,10.18l-.61,1.9q-8.91,27.63-17.83,55.24l-1.23,3.81c39.36-20.2,79.33-23.31,120-7.8s68.15,44.62,84,85.5a207.18,207.18,0,0,1,42.14-50.41c6-5.23,12.54-9.93,18.92-14.75,2.51-1.89,5.36-2.27,8.05-.28s3.36,4.82,2.37,8c-.3,1-.61,1.9-.92,2.86q-31.81,98.57-63.53,197.18c-3.64,11.4-6,23.21-8.89,34.85-4.86,19.64-9.56,39.32-14.56,58.92a25.59,25.59,0,0,1-11.52,15.38c-5.91,3.79-12.4,4.41-19.16,3.9l-6.35-2.05c-3.4-2.95-7.42-5.42-10.08-8.93-6.68-8.82-6.31-18.48-2.2-28.41,7.52-18.17,14.85-36.42,22.25-54.64.38-1,.64-2,1.14-3.5-39.43,30.87-82.93,41.65-130.81,28.48-47.71-13.12-79.75-44.35-97.71-90.75-4.27,17.08-8.46,33.43-12.42,49.85-2,8.46-5.86,15.51-13.58,20.06-5.71,3.37-11.92,3.85-18.31,3.37l-6.36-2.05a3.81,3.81,0,0,0-.7-.69c-12.9-7.46-17.8-20.22-12.47-34.13,6.28-16.39,13-32.6,19.59-48.88,4.91-12.15,10.51-24.06,14.69-36.45,9.95-29.48,19.17-59.21,28.88-88.78,1.45-4.42,2.45-8.38-.75-12.37a6.3,6.3,0,0,1-1.24-3.06C233.53,1465.18,233,1459.61,232.42,1454.05ZM260,1542.54c-5.19,16.08-10.43,32.16-15.52,48.28a13.16,13.16,0,0,0-.4,5.82,126.64,126.64,0,0,0,27.09,61.19c24.18,29.68,55.62,46.12,93.75,48.34,38.67,2.25,72-11,99.77-38,8.24-8,15.71-16.66,17.91-28.56a33,33,0,0,1,1.21-3.81c1.41-4.45,4.17-9,3.85-13.33s-3.64-8.45-5.84-12.56a11,11,0,0,1-.74-9.27c4.18-12.56,8.2-25.17,12.25-37.77,1.87-5.82,5.43-11.78,5-17.47-.48-7.06-3.68-14.16-6.69-20.8-18.58-41-50-66.68-94.05-75.76-35.17-7.25-68,.06-98,19.9a9.15,9.15,0,0,0-3.05,3.69c-3.66,8.15-9.33,14.29-17.55,17.86a5.69,5.69,0,0,0-3.52,4C270.4,1510.37,265.17,1526.45,260,1542.54Zm299.61-55a173.26,173.26,0,0,0-33.29,36.25c-8.37,12-15.11,24.74-19,39a335.87,335.87,0,0,1-10.52,32.33c-2.55,6.62-2.58,12.3,1.68,18,.79,1,1.21,2.81,2.19,3.18,5.17,1.92,10.45,3.49,15.74,5.2ZM235.24,1573l-11.74-3.79a8.89,8.89,0,0,0-.52,1.09c-7,23.61-17.86,45.71-26.87,68.54-3.55,9-7.43,17.85-10.87,26.88A13.28,13.28,0,0,0,197.89,1684c6.67-.12,11.39-4.64,13.21-12.33q5.79-24.5,11.75-48.94C226.88,1606.26,231.05,1589.8,235.24,1573Zm256.18,82.61c-.45,1.39-.81,2.64-1.25,3.87-3.05,8.46-5.84,17-9.21,25.36-9,22.35-18.38,44.57-27.47,66.9-3.13,7.69.55,15.69,8,18.14s15.13-1.88,17.18-9.89c2.39-9.37,4.47-18.81,6.86-28.18,6-23.46,10-47.42,18-70.35a10.58,10.58,0,0,0,.32-1.84ZM245.73,1460.56a18.94,18.94,0,0,0,4.47,11.92c2.31,2.75,2.59,5.61,1.48,9-5,15.2-9.88,30.45-14.8,45.69l-1.12,3.47,12.71,4.1,1.17-3.64c4.82-14.92,9.74-29.81,14.38-44.78,1.26-4,3.42-6.46,7.54-7.5a16.24,16.24,0,0,0,9.67-6.8Zm-1.65,87.26-12.31-4-4,12.32,12.31,4Zm268.09,86.55-12.42-4-4,12.28,12.43,4Z"/><path class="cls-2" d="M461.42,1605.13c-15.81,48.86-68.8,76-117.64,60.17s-76-68.79-60.2-117.62,68.8-76,117.64-60.17S477.21,1556.3,461.42,1605.13Zm-64.3-104.92c-41.85-13.53-87.18,9.62-100.81,51.49s9.52,87.12,51.41,100.84,87.54-9.63,101-51.59A80.35,80.35,0,0,0,397.12,1500.21Z"/><path class="cls-2" d="M435.35,1598.79c-9.45,23.88-26.67,38.47-52,43.39-4.1.8-7.48-1.1-8.39-4.63-1-3.8,1-7.28,5.29-8.2,8.57-1.86,16.65-4.67,23.79-9.95a53.6,53.6,0,0,0,18.29-24.06c.21-.52.4-1,.6-1.56,1.81-4.51,5.37-6.54,9-5.13C435.83,1590.13,437.13,1594.07,435.35,1598.79Z"/><path class="cls-2" d="M361.09,1636.11a6.54,6.54,0,1,1-3.84-8.47A6.6,6.6,0,0,1,361.09,1636.11Z"/><path class="cls-2" d="M1431,1139.64c7.59,1.28,15.31,2,22.74,3.93,45.63,11.62,78.88,38,96,82.62a106.43,106.43,0,0,1,5.21,58.16c-.11.62-.11,1.25-.18,2.06,1.85.77,3.63,1.45,5.36,2.23,17.29,7.83,27.92,21,31.77,39.63.45,2.15,1.2,3.24,3.42,3.88,15.61,4.52,24.92,18.73,22.77,34.47-2.1,15.39-15.36,26.67-31.6,26.71q-42.35.08-84.68,0a6.41,6.41,0,0,0-5.75,2.85A111.93,111.93,0,0,0,1482,1420c-5.91,13.56-12.3,26.9-18.79,41,1.87.1,3.31.17,4.76.26,6.5.4,11.46,4.44,12,10.87.4,4.39.41,9.22-1.06,13.24-1.07,2.91-4.61,5.24-7.54,7-1.78,1.08-2.92,1.85-3.45,4-2.1,8.37-4.35,16.69-6.67,25-2.53,9-9.4,14.31-18.7,14.34q-22.23.09-44.46,0c-8.92,0-15.86-5.21-18.32-13.81s-4.51-17.17-7-25.69a6.23,6.23,0,0,0-3.27-3.48c-5.58-2.26-8.72-6.33-8.9-12.3-.05-1.41,0-2.83,0-4.25,0-9.93,4.25-14.42,14.07-15,.72,0,1.44-.18,2.57-.32-.6-1.49-1-2.67-1.52-3.79q-10.65-23.35-21.36-46.69a35.83,35.83,0,0,0-3.15-5.29q-18.95-27.52-38-55a13.38,13.38,0,0,1-1.85-3.37,5.72,5.72,0,0,1,9.46-5.89,15.55,15.55,0,0,1,1.81,2.49c13.2,19,26.29,38.18,39.61,57.15,7,10,17.13,13.44,29.64,12.22-.58-1.56-1-2.93-1.59-4.27-10-24.55-20-49.06-29.85-73.68-3.36-8.42-3-8.54-12-8.54-30.16,0-60.32.07-90.48,0-19.78-.07-33.89-15.27-32.79-35,.73-13,10.48-24.87,23.6-28.45,2.17-.59,3.32-1.27,3.85-3.81,4.56-21.67,17.23-36.75,38.31-43.6s40.14-2.15,56.7,12.59q.72.63,1.47,1.23c.09.07.25,0,.73.11,5.14-26.56,13.8-51.63,33.54-72.77-3.27,1-5.59,1.72-7.86,2.52-2.43.85-4.85,1.74-7.21,2.76-18,7.78-33.66,18.83-46.38,33.87-.42.49-.84,1-1.28,1.45-3,3.21-6.06,3.68-8.78,1.36s-2.73-5.57,0-8.88a131.13,131.13,0,0,1,34.45-29.56,139.81,139.81,0,0,1,61.21-19.65,15.83,15.83,0,0,0,2.57-.64Zm-61.17,186.49c.54,1.7.81,2.82,1.24,3.88q16.38,40.42,32.89,80.79a4.14,4.14,0,0,0,3.1,2q13.34.24,26.68,0a4.11,4.11,0,0,0,3.13-1.91c11.65-28.73,23.65-57.33,34.54-86.36,6.84-18.24,11.1-37.38,10.69-57-.27-12.71-1.92-25.39-3.09-38.07-.42-4.64,1-7.41,4.56-8s6.16,1.58,7,6c5.3,29.24,4.33,58.16-3.72,86.87-7.25,25.87-17.83,50.44-28.31,75.07-3.26,7.67-6.46,15.36-9.79,23.3,12,1.26,21.92-1.77,29.16-11.27,5.55-7.28,10.92-14.69,16.25-22.12,15.55-21.7,30.33-43.86,40.79-68.59,9.16-21.64,13.2-43.88,7.79-67.15-8.52-36.61-30.92-62.12-64-78.82-6.42-3.25-13.33-5.53-20-8.25a3.69,3.69,0,0,0,1.09,2.59c10.25,11.21,17.26,24.31,22.51,38.43,1.38,3.72.14,6.77-3,8s-6.09-.13-7.72-3.78c-.58-1.29-1-2.64-1.57-4-4.73-11.66-10.7-22.59-19.49-31.74-8.29-8.64-18-14.82-30.41-14.68-13.09.14-23,7-31.2,16.38-18.08,20.86-25.11,46.17-29,73,10.23,2,19,6.26,25.33,14.21a19,19,0,0,0,12.3,7.59c16.33,3.26,26.57,18.26,24.91,34.92a32.21,32.21,0,0,1-31.67,28.71C1384,1326.22,1377.16,1326.13,1369.85,1326.13Zm-46-11.61c22.29,0,44.58.11,66.87,0,12-.08,20.8-9.83,20.31-22a20.44,20.44,0,0,0-21.85-19.25c-4.06.29-6.49-1.1-8.37-4.63-5.22-9.82-13.59-15.41-24.58-16.46-4.32-.41-6.56-2.31-8.67-5.8-8.37-13.94-20.87-21.61-37.09-22.24-25-1-44.21,16.48-47.08,42-.59,5.17-1.84,6.06-6.89,7.09-3.82.77-7.87,1.83-11.08,3.92-7.52,4.89-10.4,14.32-7.77,22.86a20.31,20.31,0,0,0,19.33,14.52C1279.25,1314.6,1301.54,1314.52,1323.83,1314.52Zm183,67c1,.1,1.5.19,2,.19,26.29,0,52.58.09,78.87,0a19.28,19.28,0,0,0,19-17.81c.69-10.78-6.2-19.43-16.76-21.06-7.72-1.19-8.19-1.67-8.81-9-1.36-16.09-14.18-31.89-29.3-35.75C1542.38,1328.69,1525.12,1355.15,1506.8,1381.54Zm-133.54,42.21c0-.55-.07-.28,0-.09,5.37,11.82,10.7,23.67,16.27,35.4.51,1.07,2.56,2,3.91,2,17.9.13,35.8,0,53.7.15,2.47,0,3.62-.89,4.59-3,4.9-10.9,9.94-21.74,14.92-32.62a26.61,26.61,0,0,0,.87-2.61c-3.9.51-7.44,1.39-11,1.38C1428.81,1424.27,1401.05,1425.21,1373.26,1423.75Zm83.49,69.61h-72.68c2.51,9.08,4.64,18,7.57,26.55.63,1.88,4.1,3.91,6.31,4,14.94.34,29.9.2,44.85.17,3.46,0,6-1.65,7-5C1452.19,1510.63,1454.38,1502.18,1456.75,1493.36Zm-83.63-11.78h64.38c9.15,0,18.3-.1,27.45.05,2.77,0,3.93-.61,3.86-3.62-.12-5.25,0-5.26-5.32-5.26h-84.28c-7.88,0-7.88,0-6.78,8C1372.45,1480.89,1372.59,1481,1373.12,1481.58Z"/><path class="cls-2" d="M390.16,113.62c.49-6.32.11-12.86,1.62-18.93C396.71,74.91,415.05,63.5,436,67.24c24.42,4.35,40.63,19.42,51.14,41.2a55.47,55.47,0,0,1,5.57,27.36c-1.35,25.44-21.44,41.68-46.48,37-23.62-4.4-39.4-19.09-50-40-1.12-2.22-2.1-4.5-3.15-6.76Zm16.54,4.63c5.61,18.19,18,33.43,39.53,39.19,18.14,4.85,31-5.5,31.28-24.3.15-11.92-4.65-22.18-12-31.25C456.86,91.23,446.2,83.74,432.21,82c-11.75-1.5-20.95,3.57-25.08,14C404.61,102.35,404.84,109,406.7,118.25Z"/><path class="cls-2" d="M580.27,64.3c21.86-3.89,43.26,2.58,60.41,22.08,10.09,11.47,19.8,23.37,30.83,33.87a146.15,146.15,0,0,0,27.25,19.92c30.75,17.89,41.37,60.71,21.73,90.29-14.16,21.34-34.17,32.77-59.76,32.56-26.2-.22-50.43,5.9-74,17.26-31.63,15.26-72.34,3.59-88.87-28.18-11.08-21.28-11.11-43.08,1.57-63.55,13.2-21.3,22.65-43.84,27.66-68.32,2.46-12.06,6.36-23.42,14.4-33.09C550.66,76.16,563,68.3,580.27,64.3Zm-10.06,206c2-.58,4.14-1.05,6.15-1.77a46.64,46.64,0,0,0,5.86-2.53,158.25,158.25,0,0,1,77.62-17.87c15.7.38,29.13-5.32,40.39-16.24,23.63-22.93,18.64-62.5-9.43-78.9-10.11-5.91-19.53-13.18-28.63-20.62C649.1,121.64,639,108.09,628.31,95.12c-16.73-20.28-49.78-22.19-69.3-4.54-8.94,8.07-14.16,18-16.47,29.69-5.42,27.36-15.22,52.87-30.46,76.42-8.45,13.07-9.23,27.77-3.6,42.31C518,263.54,543.61,276.3,570.21,270.26Z"/><path class="cls-2" d="M575.48-11.11c-3.66-18.13-2.4-37,7.82-54.65,13.76-23.68,39.26-26.91,58.67-7.62,23.15,23,27.35,67.17,9,94.11-14.07,20.61-38,23-55.8,5.56C585,16.32,579.11,4,575.48-11.11Zm70.06-24.33c-2-10.06-8.31-21.66-15.36-28.34-9.63-9.11-21.09-9.64-28.87-.75a44.72,44.72,0,0,0-8,13c-7.38,19.14-5.63,37.94,4,55.85A46.79,46.79,0,0,0,607.34,16.8c11,9.88,23.87,7.52,31.64-5.38C647.82-3.25,648.81-19,645.54-35.44Z"/><path class="cls-2" d="M457.12,10.14c-3.62-17-3.73-31.86,2.79-46.19C469-56.12,489.27-63.17,508.83-53c15,7.82,24.93,20.35,31.53,35.6,7,16.2,9.4,33,4.86,50.32-2.66,10.18-7.48,19.24-16.66,25.11-10.54,6.74-21.71,6.33-32.75,1.51-17.2-7.51-27.75-21.35-34.78-38.2C459.25,17.1,458,12.63,457.12,10.14Zm14.56-5.77c.51,2.2.84,4.46,1.55,6.59,4.55,13.59,12.1,25,24.4,32.8,8.93,5.66,18.12,5.71,24.53.27,4.68-4,7.17-9.34,8.55-15.15,3.82-16.15.8-31.4-6.92-45.77-5.57-10.35-13.17-18.88-24.26-23.75-9.17-4-18.3-1.44-23.63,6.91C468.26-21.75,468.92-8.75,471.68,4.37Z"/><path class="cls-2" d="M768.25,36.24c3.43,25.32-2.8,49.95-25.85,67.89-22.63,17.63-51.46,8.79-61.64-18C670.76,59.78,679,27,700.12,8.76,714.06-3.26,731.8-5.95,745.78,2,758.07,9,764.26,20.3,768.25,36.24Zm-15.58-.6c-.64-1.75-1.32-4-2.28-6.21-7.7-17.35-22.63-21.69-38.19-10.86-9.81,6.82-15.27,16.84-18.31,28.08-3.65,13.45-3.58,26.74,3.68,39.28,6,10.31,17.47,15.17,27.51,10.53C730.51,94,736,90.46,739.9,86,752.34,71.72,756.05,54.76,752.67,35.64Z"/><path class="cls-2" d="M681,167.07c.84,4.28-.17,6.84-2.72,8.71a7.05,7.05,0,0,1-8.46.11,139,139,0,0,1-12.37-8.52c-7.31-5.89-14.4-12-21.51-18.17-2.55-2.2-3.73-5-2.6-8.42,1-3,3.29-5,6.41-4.92a11.17,11.17,0,0,1,6.11,2.16c10.79,8.33,21.45,16.83,32.06,25.37A19.41,19.41,0,0,1,681,167.07Z"/><path class="cls-2" d="M622.11,127.6a7.49,7.49,0,0,1-8.87-5.62,7.49,7.49,0,1,1,8.87,5.62Z"/><path class="cls-2" d="M643.7,1201.36c-5,7.67-9.06,16.11-15.06,22.86-27.64,31.11-62.35,41.66-101.84,29.19-38-12-60.23-39.55-65.7-79.09-7.2-52.16,30.59-100,83-106.51,1.4-.18,2.8-.42,4.65-.7.43-7.52.85-15,1.32-23.4l-108.41,36c7.79,8.81,11.55,18.56,10.26,30a36.1,36.1,0,0,1-32.63,31.9c-16.81,1.59-32.91-8.84-37.74-24.93-1.15-3.82-2.8-5.93-6.66-6.84-3.66-.86-7.17-2.36-10.68-3.55-25.48,53.08-79.41,63-112.43,54-44.26-12.12-70.93-50.69-71.54-90.77-.65-42.94,25.91-79.91,66.34-93.2,38.68-12.71,88,.48,113.71,45,13.39-5.15,26.86-10.25,40.24-15.58,1.12-.45,2.11-2.3,2.4-3.65,3.54-16.9,6.94-33.82,10.52-51.49-4.94-1.69-9.93-3.12-14.7-5.08-7.26-3-9.49-10.08-5.19-15.68,2.73-3.56,6.91-4.57,12.5-2.71,12,4,24,8.16,36,12.25,6.16,2.1,12.34,4.12,18.45,6.33,6.5,2.34,9.33,7.21,7.64,12.73s-7.2,8.14-13.94,6c-7.08-2.2-14.06-4.74-21.65-7.33-1.18,5.52-2.34,10.54-3.26,15.6a3.31,3.31,0,0,0,1.38,2.5,14.17,14.17,0,0,0,3.54,1.34l111.65,38.06,5.5,1.88c.59-9.84,1.13-18.95,1.68-28.06.21-3.47.28-7,.69-10.42.73-6,4.24-9.59,10.31-9.73,16.61-.37,33.23-.63,49.84-.56,8.07,0,14.37,3.94,17.81,11.36s2.77,14.76-2.69,20.9q-16.56,18.62-33.76,36.67a9.56,9.56,0,0,1-14,.39c-4-3.83-4.06-9.71.26-14.49,9.56-10.56,19.33-20.93,29-31.39.82-.89,1.54-1.88,3-3.64l-40.37.53c-1.46,26.71-2.9,53-4.27,78.15,7.81,2.67,14.88,4.88,21.81,7.47,40.4,15.09,66.07,58.49,60,101.22-.48,3.41-.93,6.82-1.39,10.23Zm-96-113.55c-32.37,2-68.09,31.33-67.77,75.87.31,41.84,34.73,75.65,76.05,75.23,42.32-.42,75.91-34.18,75.9-75.89,0-40.8-32.15-71.43-64.18-74.58-.13,1.86-.27,3.71-.37,5.58-1.16,21.32-2.26,42.64-3.49,64-.43,7.45-4.65,11.87-10.56,11.47-6.14-.41-9.6-5-9.29-12.48.28-6.63.68-13.26,1-19.9Q546.31,1112.46,547.66,1087.81ZM341,1028.74c-16.35-29.81-54.26-44.09-88-33.57-34.18,10.66-56.22,44.47-52.5,80.5,3.67,35.43,32.76,64,68.06,67.41,37.95,3.61,67.23-21.24,75.69-43.55l-5.35-1.82q-33.31-11.36-66.64-22.69c-4.66-1.57-7.7-4.4-8.09-9.42-.35-4.47,2.47-8.13,7.68-10.27,4-1.62,8-3.1,12-4.63Zm68.4,41.12,119.15-39.68L424.77,994.8C419.66,1019.8,414.63,1044.38,409.43,1069.86Zm-26.07,21.54c7.13-20.31,8.95-41.58,14.43-63.11l-29.86,11.48a51.41,51.41,0,0,1,1.34,6.29c.83,10,2.37,20.11,2.07,30.12C371,1088.19,370.28,1088.17,383.36,1091.4Zm37.83-1.25a16.3,16.3,0,0,0-10.68,30.79,16.3,16.3,0,1,0,10.68-30.79ZM304,1064.35l46.6,15.88c2.51-10.36,1.49-25.9-2.14-33Z"/><path class="cls-2" d="M64.41,579.37c7-11.73,16.93-20.68,27.68-28.66A284.61,284.61,0,0,1,197.9,501.58c2.1-.49,2.78-1.3,2.72-3.4-.13-5.25,0-10.5-.06-15.75a10.16,10.16,0,0,1,5.64-9.7c11.06-6.17,23.05-9.75,35.35-12.22,32-6.46,64.27-6.81,96.58-2.56,14.89,2,29.48,5.34,43.3,11.47a73.08,73.08,0,0,1,7.4,3.85,9.39,9.39,0,0,1,4.84,8.52c0,32.69.71,65.4-.24,98.06-1.56,53.34-41.54,98.88-94.13,108.52-2.41.45-5.1-.11-7.58-.6-3.66-.73-7.25-1.81-11.07-2.79-.47.88-1,1.8-1.43,2.74-7,14.47-16.78,26.75-28.66,37.56-6.65,6.05-14.18,9.14-22.92,10.36C174.94,743,126.83,717.11,104.2,669q-19.73-42-39.35-84c-.08-.18-.29-.29-.44-.44Zm206.83,60.87c0-13.91-1.32-25.32-6-35.76-12.85-28.59-26.25-56.93-39.55-85.31a3.64,3.64,0,0,0-3-1.39c-6.9.78-13.88,1.33-20.65,2.81-28.73,6.3-55.18,18.24-80.27,33.32-12.53,7.53-24.21,16.19-34.28,26.9-1.67,1.78-1.77,3.09-.74,5.27q17.52,37,34.82,74.08c18.39,39.27,55.37,60.55,98.62,56.84,7.94-.68,14.61-3.21,20.54-9C260.5,688.67,270.61,665.35,271.24,640.24ZM220.31,498.38c3.49,0,6.9-.08,10.31,0a10.51,10.51,0,0,1,10,6.69c2.72,6.05,5.63,12,8.42,18,1.6,3.46,3.26,6.54,6.74,8.89,6,4.08,9.9,4.46,15.59-.12,4.34-3.49,10-3.18,13.6.74s3.35,9.82-.78,13.81a27.76,27.76,0,0,1-13,7.26c-2.25.53-4.53.88-6.77,1.3a3.79,3.79,0,0,0,.08.88c5.33,11.44,10.64,22.9,16.09,34.29a3.24,3.24,0,0,0,2.67,1.22c2.75-.29,5.45-1.16,8.21-1.4,17.33-1.53,32.31,3.75,44.74,16a9,9,0,0,1,2.36,9.48,9.26,9.26,0,0,1-7.41,6.79c-3.95.85-6.95-1-9.81-3.57-9.72-8.75-21-11.29-33.91-8.24a116.27,116.27,0,0,1-.35,55.78c6.75,2.82,9.71,3.16,14.83,1.79,42.66-11.4,71.75-48.39,72.27-92.51.33-28.5.05-57,.13-85.51,0-1.95-.63-2.95-2.42-3.49-7.47-2.23-14.82-5-22.41-6.68-24.25-5.34-48.86-6-73.54-4.38-15.63,1-31.18,3.06-46,8.3-12.79,4.52-9.62,1.06-9.88,13.88A7.88,7.88,0,0,0,220.31,498.38Z"/><path class="cls-2" d="M188.34,678c-5.64-1.14-11.35-2-16.89-3.51-6.21-1.71-9.08-7.05-7.32-12.56,1.68-5.27,7-7.73,13-6,19.68,5.76,37.05-2.4,45.22-21.24,2.49-5.75,7.75-8.25,12.94-6.16s7.31,7.76,4.93,13.72C231.71,663.66,211.56,677.29,188.34,678Z"/><path class="cls-2" d="M220.29,570.26c3.12.64,6.32,1,9.35,2a9.5,9.5,0,0,1,6.56,12.12c-1.6,5.15-6.67,7.89-12.28,6.36-4.15-1.14-7.87-.76-11,2.35a14.91,14.91,0,0,0-2.58,4c-2.63,5.34-8,7.57-13,5.33s-7-7.79-4.73-13.28A30.79,30.79,0,0,1,220.29,570.26Z"/><path class="cls-2" d="M155.88,600.33c3.22.69,6.52,1.15,9.65,2.13A9.51,9.51,0,0,1,172.11,614a9.78,9.78,0,0,1-11.65,7.07c-8.56-1.65-10.55-.71-14.83,7.09A9.67,9.67,0,0,1,128,620.34C131.92,608.88,143.43,600.77,155.88,600.33Z"/><path class="cls-2" d="M334.8,554.76A29.67,29.67,0,0,1,314,546.29a9.61,9.61,0,0,1-.72-13.56,9.72,9.72,0,0,1,13.57-1c6,4.71,9.85,4.71,15.7,0a9.69,9.69,0,0,1,13.07,14.3A29.49,29.49,0,0,1,334.8,554.76Z"/><path class="cls-2" d="M1618.23,556.68c-6-3.85-10.86-8.64-13-15.72-.29-.92-1.4-1.69-2.28-2.31-6.83-4.79-13.73-9.49-20.55-14.3-34.09-24-48.74-64.4-37-104.43,3.59-12.21,6.72-23.79.74-35.9-8.09-41.7,5.07-75.5,37.8-102.11a12.21,12.21,0,0,0,3.86-5.55c9.42-31.16,18.64-62.39,28-93.59,3.59-12,13.12-19.16,24.47-18.61,16.21.79,26.56,15.79,21.84,32-6,20.6-12.22,41.14-18.34,61.71-.38,1.29-.77,2.58-1.23,4.12,4.47.35,8.56.45,12.58,1.05a108.3,108.3,0,0,1,15,2.92c53.6,15.86,107.26,31.49,160.68,47.92,46.56,14.32,76.07,60.56,70.5,108.83-6.15,53.22-57.57,93.19-110.74,86.14-28.36-3.76-51.26-16.87-68.7-39.58-11.54-15-26.28-19.15-44-12.93-29.51,10.33-57.86,7.54-85-7.93-.76-.43-1.51-.87-2.27-1.29-.09,0-.23,0-.8.07a34.7,34.7,0,0,0,0,3.81,45.77,45.77,0,0,0,17.68,32.18c1.75,1.39,3.72,2.52,5.44,3.94,4.64,3.84,8.89,6,15.44,2.79,3.86-1.88,9.64-1.17,14.16-.05,11.61,2.89,23,6.6,34.47,10.09,13.08,4,20.5,15.55,17.76,28.85a160.84,160.84,0,0,1-7.34,24.72c-4,10.47-13.1,15.94-24.35,15.78a12.2,12.2,0,0,0-1.79.24Zm127.48-251.77v0q-38.21-11.37-76.41-22.72a104.32,104.32,0,0,0-10.91-2.62c-46.42-8.43-91.1,23.61-97.84,70.11-9.16,63.2,51.64,113.09,111.75,91.75a60.88,60.88,0,0,1,11.47-3.29c20.91-2.95,37.72,4.54,50.43,21.06,14.74,19.15,33.85,30.46,57.79,33.72,48.78,6.63,94.11-32.92,94.1-82.16,0-36.93-24.83-70.9-60.42-82C1799.11,320.54,1772.37,312.85,1745.71,304.91Zm-90.13,205.16c-5.85-1.74-11.68-3.57-17.56-5.2-5-1.37-9.62.76-11.19,5.52-2.33,7.1-4.44,14.28-6.22,21.53-1.28,5.2,1.09,9.08,6.25,10.68q17.13,5.31,34.39,10.23c5.68,1.62,10-1,11.81-6.71q2.94-9.47,5.65-19c1.67-5.92-.75-10.3-6.65-12.14C1666.59,513.28,1661.08,511.7,1655.58,510.07Zm-48.73,11.22c.55-1.85,1-3.39,1.46-4.94,1-3.58,3.4-7.65,2.44-10.62-.89-2.78-5.34-4.46-8.3-6.52-21.87-15.21-31.33-36-28.13-62.47a4,4,0,0,0-.4-2.72c-3.81-4.52-7.76-8.93-12-13.77-.45,1.53-.81,2.68-1.14,3.83C1549.73,463.39,1566.45,499.78,1606.85,521.29Zm.11-252.41c5.18-1.47,9.75-3,14.45-4,2.81-.59,4.12-1.75,4.94-4.55,6.56-22.51,13.31-45,20-67.44a28.76,28.76,0,0,0,.91-3.63,8,8,0,0,0-5.41-8.77,8,8,0,0,0-9.71,4.28,28.4,28.4,0,0,0-1.18,3.55q-11.43,38.37-22.85,76.74Z"/><path class="cls-2" d="M1741.27,320.48c25.46,7.58,51,15.09,76.38,22.76,29,8.73,49,32.07,52,60.3,4.57,43.24-35.05,80.28-77.87,72.93-18.88-3.25-33.69-12.69-45.26-27.88-17.88-23.49-47.75-33.06-74.64-24.28-3,1-5.85,2.19-8.85,3-25,6.74-47.53,1.93-66.1-16.05-18.9-18.3-25.55-41-18.7-66.74a67,67,0,0,1,83-47.69c26.81,7.4,53.35,15.77,80,23.71Zm-4.78,15.25c-26.3-7.83-52.55-15.84-78.92-23.45-31.25-9-63.36,13.62-65.65,46a51.87,51.87,0,0,0,69.28,52.95,94.91,94.91,0,0,1,12.12-3.78c35.06-7.14,63.55,4,85.84,31.53,6.41,7.9,13.63,14.34,23,18.46,32.8,14.36,71.46-10.52,71.85-46.37.24-23.32-15.75-44.8-39-51.89C1788.89,351.19,1762.67,343.52,1736.49,335.73Z"/><path class="cls-2" d="M1934.2,134.23c-.36-6.69-1-13.37-1-20.06C1933,54.76,1971,.49,2026.91-20c72.82-26.74,153.67,9.37,182.19,81.36a143.14,143.14,0,0,1-37.45,159.55,4.45,4.45,0,0,0-1.38,2c1.35-.28,2.7-.54,4-.83a181.69,181.69,0,0,1,80.7,1c3.77.9,7.1,2.22,9.45,5.42l1,4.65-5.1,7.72-4.67.95c-.06-.07-.12-.19-.2-.21a159.11,159.11,0,0,0-72.66-3c-25.61,4.95-51.12,10.36-76.67,15.63-12,2.47-24.14,3.85-36.34,2.87-58.53-4.72-100.41-33.59-125.16-86.83-2.77-6-4.58-12.37-6.84-18.57Zm264.68-45.07c-13.8-67.64-80-111.52-147.51-97.74-67.7,13.83-111.62,80.08-97.93,147.75s80.27,111.61,148.1,97.78C2169,223.19,2212.69,156.82,2198.88,89.16Z"/><path class="cls-2" d="M2164.08,155.13a35.64,35.64,0,1,1-41.51-27.91A35.51,35.51,0,0,1,2164.08,155.13Zm-31.41,24.53a17.8,17.8,0,1,0-21-13.83A17.77,17.77,0,0,0,2132.67,179.66Z"/><path class="cls-2" d="M2081.89,172.24A35.65,35.65,0,1,1,2040,144.12,35.5,35.5,0,0,1,2081.89,172.24Zm-17.48,3.55A17.81,17.81,0,1,0,2050,196.6,17.85,17.85,0,0,0,2064.41,175.79Z"/><path class="cls-2" d="M2055,9.46a35.63,35.63,0,1,1-27.82,42.13A35.8,35.8,0,0,1,2055,9.46Zm3.58,17.47a17.8,17.8,0,1,0,21,13.8A17.86,17.86,0,0,0,2058.61,26.93Z"/><path class="cls-2" d="M1970.58,113.37a35.69,35.69,0,1,1,42.16,27.76A35.62,35.62,0,0,1,1970.58,113.37Zm31.56-24.59a17.8,17.8,0,1,0,6.77,35,17.8,17.8,0,1,0-6.77-35Z"/><path class="cls-2" d="M2131.56,44.08a35.62,35.62,0,0,1,14.17,69.81c-19.16,3.88-38.32-8.63-42.11-27.52A35.71,35.71,0,0,1,2131.56,44.08ZM2156,75.55a17.84,17.84,0,0,0-35,6.87,17.84,17.84,0,0,0,35-6.87Z"/><path class="cls-2" d="M2085.18,112.29a8.91,8.91,0,1,1-10.53-6.82A9,9,0,0,1,2085.18,112.29Z"/><path class="cls-2" d="M1755.05,1407c0-1.37,0-2.74,0-4.12-.16-13.43,5.93-23.77,16.71-31.07,8-5.41,16.71-9.69,25-14.55a4.7,4.7,0,0,0,2.25-2.54c.28-1.68-.74-2.74-2.55-3.4-18.15-6.78-29.5-19.62-33.54-38.62-2.15-10.15-4.72-20.32-5.61-30.61-2.29-26.25,18.65-50.77,44.85-53.51,27.43-2.87,50.84,14,56.64,41,1.72,8,3.53,16,4.93,24.08,3.16,18.19-2.22,33.71-15.3,46.61-1.33,1.32-2.12,2.38-1.54,4.35.65,2.19,2.34,1.45,3.67,1.56,3,.27,6.58,1.46,8.76.22,1.87-1.06,2-5,3.09-7.63,6.32-14.57,17.32-22.74,33.21-24.29a5.65,5.65,0,0,0,3.49-1.76c7.07-8.59,9.56-18.47,7.77-29.42-1.59-9.75-3.6-19.45-4.79-29.24a54.76,54.76,0,0,1,2.67-24.23c6.33-18.67,19.75-28.78,38.94-31.37,23.83-3.21,40.74,9.7,49.91,30.76,4.31,9.89,6.11,20.44,8.32,30.89a41.5,41.5,0,0,0,6.58,15.93c7.2,10,17.54,14.4,29.22,16.39,1,.16,2,.23,3,.43,3.52.73,5.3,3,5.14,6.62-.46,9.94-2.39,19.28-10.77,25.75.12.41.11.67.23.75,8.82,6.07,13.5,14.7,15.6,25,3.35,16.35,6.8,32.68,10.18,49,1.14,5.5-.38,7.79-5.87,8.93L1982.49,1424l-3.92.82c.54,2.58,1.06,5,1.54,7.38.91,4.68-.71,7.3-5.39,8.31q-14.22,3.06-28.47,5.92c-4.4.89-7.4-.8-8.16-4.39s1.38-6.39,5.7-7.31c7.71-1.65,15.44-3.21,23.11-4.81.33-9.84-6.41-20.21-15.55-22.77-6.47-1.82-13.27-2.47-20.12-3.67-2.23,10.61-8.37,17.06-18.33,19.33-10.13,2.31-18.19-1.43-24.51-9.93-6.82,3.77-14.06,6.94-19.48,12.9-4.16,4.57-5.41,10.13-4.93,16.13.23,2.87.73,5.71,1.16,8.92,1.35-.18,2.4-.26,3.42-.47,6.85-1.4,13.69-2.87,20.55-4.24,3.64-.73,6.35.5,7.56,3.25,1.59,3.59-.43,7.35-4.72,8.33-6.23,1.43-12.51,2.65-18.77,4-3.42.71-6.84,1.47-10.27,2.11-4.71.88-7.25-.81-8.29-5.45-.52-2.32-1-4.67-1.54-7.4l-3.62.75c-24.65,5.13-49.31,10.21-74,15.44-3.52.73-6.27.21-8.5-2.62Zm47.48-40c-8.82,5.48-17.81,10.48-26.09,16.44-8.08,5.83-10.8,14.47-8.89,24.19,3,15.38,6.33,30.71,9.54,46,0,.17.22.3.38.48l19.35-4-.83-4c-1.35-6.55-2.79-13.09-4-19.67a5.64,5.64,0,0,1,4.38-6.79,5.74,5.74,0,0,1,7.14,4.28c.65,2.19,1,4.47,1.49,6.72l3.51,16.87a5.51,5.51,0,0,0,1.22.08c13.49-2.78,27-5.55,40.46-8.47a3.2,3.2,0,0,0,1.74-2.42c.85-9.6,5-17.49,12.67-23.18,5.26-3.9,11.11-7,16.64-10.54,1.21-.77,3-1.91,3.07-3a5.39,5.39,0,0,0-3-5.58,35,35,0,0,1-17.53-20.72c-1.53-4.81-2.16-9.91-3.19-14.9l-11.92-.77c-2.24,11.29-8.52,18.91-19.85,21.11C1817.93,1381.37,1809.41,1376.92,1802.53,1367Zm245.86,30.93c-3.3-15.85-6.43-31.4-9.8-46.91-2-9.13-7.59-15.23-16.47-18.18-10.35-3.46-21.14-3.37-31.85-4.16-2.26,11.3-8.5,18.83-19.69,21.09s-19.79-2.44-26.1-11.55c-2.21,1.12-4.1,2.26-6.14,3-2.47,1-3.09,2.24-2.49,4.94a82.24,82.24,0,0,1,2.29,15,35.16,35.16,0,0,1-8.24,23.53c-1.69,2.11-.89,4-.22,5.86.27.75,2,1.23,3.09,1.39,5.82.84,11.71,1.25,17.47,2.36,10.55,2,18.84,7.49,23.78,17.32.81,1.61,1.82,1.44,3.17,1.16q18.76-3.95,37.54-7.83c.75-.16,1.47-.44,2.42-.73-1.58-7.59-3.14-15-4.66-22.42-.9-4.39.75-7.32,4.43-8.06s6.38,1.36,7.31,5.7c1.38,6.45,2.68,12.91,4,19.36l.65,3.09ZM1850.6,1289.38l-3.25.68c-16.19,3.42-32.38,4.55-48.6.06-.79-.22-2,.57-2.84,1.2-3.67,2.86-7,6.2-10.92,8.67-3.4,2.14-7.39,3.34-11.12,5,.9,15.31,10.79,29.23,25.24,34.54,15.45,5.68,29.69,3,41.55-8.45S1855.18,1305.41,1850.6,1289.38Zm67.05-16.19c.58,13.56,9.66,26,21.91,31.39a36.72,36.72,0,0,0,40.73-7.56c10.07-9.86,13.82-26.25,8.68-38.63-13.42,4.47-26.39,4-38.24-4.8-7.41,12.91-18.94,18.28-33.08,19.6Zm-69.75,4.39c-.47-15.47-11.3-29.85-26.31-35.21a39.38,39.38,0,0,0-42.75,11.22c-9.42,10.82-12.39,26.38-7.28,39.14,7.29-2.36,13.82-5.6,17.5-12.92,1.76-3.5,4.41-4,8.36-3,5.85,1.54,11.75,3.21,17.73,3.89C1826.24,1282,1837.16,1280.23,1847.9,1277.58Zm138.84-31.44c-2.26-8.58-5.49-16.53-10.74-23.63-15.36-20.83-49.37-14-58.17,6.84-4.15,9.81-4.62,19.91-3,30.24a2.46,2.46,0,0,0,1.83,1.58c11-.8,21.52-5.19,25.79-18.64,2-6.46,7.16-7.52,11.64-2.51C1962.54,1249.54,1974.7,1251.9,1986.74,1246.14Zm-87.19,107.54c-9.56,2-18.41,6.48-23.82,11.94a4,4,0,0,0-1,3.26A26.2,26.2,0,0,0,1904.4,1387c13.76-2.66,23-14.67,21.77-28.33a3.19,3.19,0,0,0-2.47-3.19A48.18,48.18,0,0,0,1899.55,1353.68Zm102-67.06c-3.52,5.5-6.44,11.4-10.63,16.19-3.07,3.53-4.12,6.47-2.72,10.8.67,2.07,1.23,3,3.65,3.21,9,.7,18,1.78,27,2.69a5.83,5.83,0,0,0,2-.09c7.39-2,12-7.76,12.36-15.63-12.43-2.61-23.6-7.71-31.73-17.17Zm-79.39,55.85c-4.72-11.88-18-18.37-30.52-15.31-11.58,2.84-20.65,14.59-19.52,25.63C1887.24,1342.05,1903.8,1338.58,1922.17,1342.47Zm53.89-27.8a50.82,50.82,0,0,1-24.22,5c.69,3.27,1.22,6.3,2,9.29a12.47,12.47,0,0,0,13.84,9.24,12.23,12.23,0,0,0,10.53-13.11C1977.85,1321.77,1976.85,1318.5,1976.06,1314.67ZM1941,1326.46a20,20,0,0,1-.57-2.81c-.25-4.47-2-7.51-6.74-8.75-2.42-.61-4.67-2.27-6.74-3.79-3.19-2.34-6.17-5-9.14-7.4l-6.21,13.11a39.79,39.79,0,0,1,18.82,15.11ZM1811.72,1355c.18,5.81,3.23,10.33,8.55,12.13a12.26,12.26,0,0,0,13.53-3.79c3.3-3.93,3.87-9.53,1.73-13.29Zm85.19,45.22c.38,4.77,2.19,8.94,7.48,10.75a12.12,12.12,0,0,0,12.5-3.67,10.33,10.33,0,0,0,1.09-11.47Z"/><path class="cls-2" d="M1861.24,1161.69c5.81-7.21,13.23-10.77,22.28-10.49,19.49.62,32,22.17,22,38.86-8,13.33-17.27,25.91-26.08,38.74-2,3-5.14,3.52-8.19,1.62-12.61-7.89-25.29-15.67-37.71-23.86a26.12,26.12,0,0,1-8.25-35.13,26.46,26.46,0,0,1,34.34-10.51Zm11.58,55.6c7.26-10.67,14.46-21.09,21.48-31.63a14.36,14.36,0,1,0-23.8-16.06c-4.32,6.73-7,8.14-14.74,3a14.35,14.35,0,1,0-15.45,24.18c10.65,6.88,21.43,13.54,32.51,20.52Z"/><path class="cls-2" d="M1918.71,1452.11a5.91,5.91,0,0,1-7-4.5,6,6,0,1,1,11.68-2.52c0,.08,0,.15,0,.22A5.88,5.88,0,0,1,1918.71,1452.11Z"/><path class="cls-2" d="M1818.73,1329.26a20.72,20.72,0,0,1-14.2-2.3c-3.23-1.85-4.39-5.1-2.93-8.09,1.54-3.16,4.79-4.13,8.42-2.51,5.07,2.26,8,1.65,11.73-2.4,2.69-3,6-3.39,8.72-1.14s2.79,5.78.45,8.84A20.89,20.89,0,0,1,1818.73,1329.26Z"/><path class="cls-2" d="M-65.8,134.23c-.36-6.69-1-13.37-1-20.06C-67,54.76-29,.49,26.91-20,99.73-46.79,180.58-10.68,209.1,61.31a143.14,143.14,0,0,1-37.45,159.55,4.45,4.45,0,0,0-1.38,2c1.35-.28,2.7-.54,4-.83a181.69,181.69,0,0,1,80.7,1c3.77.9,7.1,2.22,9.45,5.42l1,4.65-5.1,7.72-4.67.95c-.06-.07-.12-.19-.2-.21a159.11,159.11,0,0,0-72.66-3c-25.61,4.95-51.12,10.36-76.67,15.63-12,2.47-24.14,3.85-36.34,2.87-58.53-4.72-100.41-33.59-125.16-86.83-2.77-6-4.58-12.37-6.84-18.57ZM198.88,89.16c-13.8-67.64-80-111.52-147.51-97.74C-16.33,5.25-60.25,71.5-46.56,139.17S33.71,250.78,101.54,237C169,223.19,212.69,156.82,198.88,89.16Z"/><path class="cls-2" d="M164.08,155.13a35.64,35.64,0,1,1-41.51-27.91A35.51,35.51,0,0,1,164.08,155.13Zm-31.41,24.53a17.8,17.8,0,1,0-21-13.83A17.77,17.77,0,0,0,132.67,179.66Z"/><path class="cls-2" d="M81.89,172.24A35.65,35.65,0,1,1,40,144.12,35.5,35.5,0,0,1,81.89,172.24Zm-17.48,3.55A17.81,17.81,0,1,0,50,196.6,17.85,17.85,0,0,0,64.41,175.79Z"/><path class="cls-2" d="M55,9.46A35.63,35.63,0,1,1,27.21,51.59,35.8,35.8,0,0,1,55,9.46Zm3.58,17.47a17.8,17.8,0,1,0,21,13.8A17.86,17.86,0,0,0,58.61,26.93Z"/><path class="cls-2" d="M-29.42,113.37a35.62,35.62,0,0,1,27.59-42A35.72,35.72,0,0,1,40.49,98.92a35.82,35.82,0,0,1-27.75,42.21A35.69,35.69,0,0,1-29.42,113.37ZM2.14,88.78A17.73,17.73,0,0,0-12,109.47a17.81,17.81,0,0,0,20.9,14.27,18,18,0,0,0,14.13-21A17.85,17.85,0,0,0,2.14,88.78Z"/><path class="cls-2" d="M131.56,44.08a35.62,35.62,0,0,1,14.17,69.81c-19.16,3.88-38.32-8.63-42.11-27.52A35.71,35.71,0,0,1,131.56,44.08ZM156,75.55a17.84,17.84,0,0,0-35,6.87,17.84,17.84,0,0,0,35-6.87Z"/><path class="cls-2" d="M85.18,112.29a8.91,8.91,0,1,1-10.53-6.82A9,9,0,0,1,85.18,112.29Z"/><path class="cls-2" d="M-244.95,1407c0-1.37,0-2.74,0-4.12-.16-13.43,5.93-23.77,16.71-31.07,8-5.41,16.71-9.69,25-14.55a4.7,4.7,0,0,0,2.25-2.54c.28-1.68-.74-2.74-2.55-3.4-18.15-6.78-29.5-19.62-33.54-38.62-2.15-10.15-4.72-20.32-5.61-30.61-2.29-26.25,18.65-50.77,44.85-53.51,27.43-2.87,50.84,14,56.64,41,1.72,8,3.53,16,4.93,24.08,3.16,18.19-2.22,33.71-15.3,46.61-1.33,1.32-2.12,2.38-1.54,4.35.65,2.19,2.34,1.45,3.67,1.56,3,.27,6.58,1.46,8.76.22,1.87-1.06,2-5,3.09-7.63,6.32-14.57,17.32-22.74,33.21-24.29a5.65,5.65,0,0,0,3.49-1.76c7.07-8.59,9.56-18.47,7.77-29.42-1.59-9.75-3.6-19.45-4.79-29.24a54.76,54.76,0,0,1,2.67-24.23c6.33-18.67,19.75-28.78,38.94-31.37,23.83-3.21,40.74,9.7,49.91,30.76,4.31,9.89,6.11,20.44,8.32,30.89A41.5,41.5,0,0,0,8.57,1276c7.2,10,17.54,14.4,29.22,16.39,1,.16,2,.23,3,.43,3.52.73,5.3,3,5.14,6.62-.46,9.94-2.39,19.28-10.77,25.75.12.41.11.67.23.75,8.82,6.07,13.5,14.7,15.6,25,3.35,16.35,6.8,32.68,10.18,49,1.14,5.5-.38,7.79-5.87,8.93L-17.51,1424l-3.92.82c.54,2.58,1.06,5,1.54,7.38.91,4.68-.71,7.3-5.39,8.31q-14.22,3.06-28.47,5.92c-4.4.89-7.4-.8-8.16-4.39s1.38-6.39,5.7-7.31c7.71-1.65,15.44-3.21,23.11-4.81.33-9.84-6.41-20.21-15.55-22.77-6.47-1.82-13.27-2.47-20.12-3.67-2.23,10.61-8.37,17.06-18.33,19.33-10.13,2.31-18.19-1.43-24.51-9.93-6.82,3.77-14.06,6.94-19.48,12.9-4.16,4.57-5.41,10.13-4.93,16.13.23,2.87.73,5.71,1.16,8.92,1.35-.18,2.4-.26,3.42-.47,6.85-1.4,13.69-2.87,20.55-4.24,3.64-.73,6.35.5,7.56,3.25,1.59,3.59-.43,7.35-4.72,8.33-6.23,1.43-12.51,2.65-18.77,4-3.42.71-6.84,1.47-10.27,2.11-4.71.88-7.25-.81-8.29-5.45-.52-2.32-1-4.67-1.54-7.4l-3.62.75c-24.65,5.13-49.31,10.21-74,15.44-3.52.73-6.27.21-8.5-2.62Zm47.48-40c-8.82,5.48-17.81,10.48-26.09,16.44-8.08,5.83-10.8,14.47-8.89,24.19,3,15.38,6.33,30.71,9.54,46,0,.17.22.3.38.48l19.35-4-.83-4c-1.35-6.55-2.79-13.09-4-19.67a5.64,5.64,0,0,1,4.38-6.79,5.74,5.74,0,0,1,7.14,4.28c.65,2.19,1,4.47,1.49,6.72l3.51,16.87a5.51,5.51,0,0,0,1.22.08c13.49-2.78,27-5.55,40.46-8.47a3.2,3.2,0,0,0,1.74-2.42c.85-9.6,5-17.49,12.67-23.18,5.26-3.9,11.11-7,16.64-10.54,1.21-.77,3-1.91,3.07-3a5.39,5.39,0,0,0-3-5.58,35,35,0,0,1-17.53-20.72c-1.53-4.81-2.16-9.91-3.19-14.9l-11.92-.77c-2.24,11.29-8.52,18.91-19.85,21.11C-182.07,1381.37-190.59,1376.92-197.47,1367Zm245.86,30.93c-3.3-15.85-6.43-31.4-9.8-46.91-2-9.13-7.59-15.23-16.47-18.18-10.35-3.46-21.14-3.37-31.85-4.16-2.26,11.3-8.5,18.83-19.69,21.09s-19.79-2.44-26.1-11.55c-2.21,1.12-4.1,2.26-6.14,3-2.47,1-3.09,2.24-2.49,4.94a82.24,82.24,0,0,1,2.29,15,35.16,35.16,0,0,1-8.24,23.53c-1.69,2.11-.89,4-.22,5.86.27.75,2,1.23,3.09,1.39,5.82.84,11.71,1.25,17.47,2.36,10.55,2,18.84,7.49,23.78,17.32.81,1.61,1.82,1.44,3.17,1.16q18.76-3.95,37.54-7.83c.75-.16,1.47-.44,2.42-.73-1.58-7.59-3.14-15-4.66-22.42-.9-4.39.75-7.32,4.43-8.06s6.38,1.36,7.31,5.7c1.38,6.45,2.68,12.91,4,19.36l.65,3.09ZM-149.4,1289.38l-3.25.68c-16.19,3.42-32.38,4.55-48.6.06-.79-.22-2.05.57-2.84,1.2-3.67,2.86-7,6.2-10.92,8.67-3.4,2.14-7.39,3.34-11.12,5,.9,15.31,10.79,29.23,25.24,34.54,15.45,5.68,29.69,3,41.55-8.45S-144.82,1305.41-149.4,1289.38Zm67.05-16.19c.58,13.56,9.66,26,21.91,31.39A36.72,36.72,0,0,0-19.71,1297c10.07-9.86,13.82-26.25,8.68-38.63-13.42,4.47-26.39,4-38.24-4.8-7.41,12.91-18.94,18.28-33.08,19.6Zm-69.75,4.39c-.47-15.47-11.3-29.85-26.31-35.21a39.38,39.38,0,0,0-42.75,11.22c-9.42,10.82-12.39,26.38-7.28,39.14,7.29-2.36,13.82-5.6,17.5-12.92,1.76-3.5,4.41-4,8.36-3,5.85,1.54,11.75,3.21,17.73,3.89C-173.76,1282-162.84,1280.23-152.1,1277.58Zm138.84-31.44c-2.26-8.58-5.49-16.53-10.74-23.63-15.36-20.83-49.37-14-58.17,6.84-4.15,9.81-4.62,19.91-3,30.24a2.46,2.46,0,0,0,1.83,1.58c11-.8,21.52-5.19,25.79-18.64,2.05-6.46,7.16-7.52,11.64-2.51C-37.46,1249.54-25.3,1251.9-13.26,1246.14Zm-87.19,107.54c-9.56,2-18.41,6.48-23.82,11.94a4,4,0,0,0-1,3.26A26.2,26.2,0,0,0-95.6,1387c13.76-2.66,23-14.67,21.77-28.33a3.19,3.19,0,0,0-2.47-3.19A48.18,48.18,0,0,0-100.45,1353.68Zm102-67.06c-3.52,5.5-6.44,11.4-10.63,16.19-3.07,3.53-4.12,6.47-2.72,10.8.67,2.07,1.23,3,3.65,3.21,9,.7,18,1.78,27,2.69a5.83,5.83,0,0,0,2-.09c7.39-2,12-7.76,12.36-15.63-12.43-2.61-23.6-7.71-31.73-17.17Zm-79.39,55.85c-4.72-11.88-18-18.37-30.52-15.31-11.58,2.84-20.65,14.59-19.52,25.63C-112.76,1342.05-96.2,1338.58-77.83,1342.47Zm53.89-27.8a50.82,50.82,0,0,1-24.22,5c.69,3.27,1.22,6.3,2,9.29a12.47,12.47,0,0,0,13.84,9.24,12.23,12.23,0,0,0,10.53-13.11C-22.15,1321.77-23.15,1318.5-23.94,1314.67ZM-59,1326.46a20,20,0,0,1-.57-2.81c-.25-4.47-2-7.51-6.74-8.75-2.42-.61-4.67-2.27-6.74-3.79-3.19-2.34-6.17-5-9.14-7.4l-6.21,13.11a39.79,39.79,0,0,1,18.82,15.11ZM-188.28,1355c.18,5.81,3.23,10.33,8.55,12.13a12.26,12.26,0,0,0,13.53-3.79c3.3-3.93,3.87-9.53,1.73-13.29Zm85.19,45.22c.38,4.77,2.19,8.94,7.48,10.75a12.12,12.12,0,0,0,12.5-3.67A10.33,10.33,0,0,0-82,1395.78Z"/></pattern></defs><g id="Capa_2" data-name="Capa 2"><g id="Capa_1-2" data-name="Capa 1"><rect class="cls-3" width="2000" height="2000"/></g></g></svg>