<?xml version="1.0" standalone="no"?>
<!DOCTYPE svg PUBLIC "-//W3C//DTD SVG 20010904//EN"
 "http://www.w3.org/TR/2001/REC-SVG-20010904/DTD/svg10.dtd">
<svg version="1.0" xmlns="http://www.w3.org/2000/svg"
 width="700.000000pt" height="700.000000pt" viewBox="0 0 700.000000 700.000000"
 preserveAspectRatio="xMidYMid meet">
<metadata>
Created by potrace 1.14, written by Peter Selinger 2001-2017
</metadata>
<g transform="translate(0.000000,700.000000) scale(0.100000,-0.100000)"
fill="#000000" stroke="none">
<path d="M3687 5813 c-1 0 -38 -4 -82 -7 -44 -3 -93 -8 -110 -11 -16 -3 -46
-8 -65 -11 -166 -26 -392 -103 -557 -188 -104 -54 -113 -51 -113 47 0 77 -4
89 -35 104 -12 6 -223 9 -547 9 -485 -1 -529 -2 -545 -18 -16 -16 -17 -161
-17 -2424 l0 -2407 25 -20 c22 -18 34 -19 149 -14 142 7 274 37 385 87 280
126 491 385 559 685 22 95 24 129 25 366 1 167 4 208 15 212 7 3 54 -14 102
-38 136 -65 171 -80 273 -114 92 -31 226 -64 306 -75 23 -4 52 -9 65 -12 14
-3 108 -7 210 -9 205 -4 326 9 500 50 3 1 21 5 40 9 177 40 422 152 605 277
127 87 168 121 285 239 156 157 257 297 353 486 43 83 114 253 122 292 2 9 15
62 29 117 14 55 28 123 32 150 3 28 8 59 11 70 8 39 10 341 2 419 -31 308
-153 639 -327 886 -108 153 -274 329 -407 431 -244 187 -565 331 -842 379 -35
5 -75 12 -90 15 -61 11 -349 26 -356 18z m88 -1057 c177 -40 329 -122 456
-249 173 -172 264 -405 254 -647 -2 -58 -8 -120 -14 -137 -5 -18 -8 -33 -6
-33 7 0 -46 -142 -73 -195 -99 -198 -296 -365 -516 -440 -148 -50 -369 -55
-516 -12 -285 85 -488 301 -570 607 -29 107 -37 315 -16 403 7 32 14 61 15 65
11 62 20 89 52 159 119 259 313 420 579 479 56 12 299 12 355 0z"/>
</g>
</svg>
